<?xml version="1.0" encoding="UTF-8" standalone="no"?>
<!DOCTYPE svg PUBLIC "-//W3C//DTD SVG 1.1//EN"
 "http://www.w3.org/Graphics/SVG/1.1/DTD/svg11.dtd">
<!-- Generated by graphviz version 2.38.0 (20140413.2041)
 -->
<!-- Title: g Pages: 1 -->
<svg width="1345pt" height="1602pt"
 viewBox="0.00 0.00 1345.00 1602.00" xmlns="http://www.w3.org/2000/svg" xmlns:xlink="http://www.w3.org/1999/xlink">
<g id="graph0" class="graph" transform="scale(1 1) rotate(0) translate(4 1598)">
<title>g</title>
<polygon fill="white" stroke="none" points="-4,4 -4,-1598 1341,-1598 1341,4 -4,4"/>
<!-- 0 -->
<g id="node1" class="node"><title>0</title>
<path fill="#f48fb1" stroke="black" stroke-width="2" d="M745,-1527C745,-1527 519,-1527 519,-1527 513,-1527 507,-1521 507,-1515 507,-1515 507,-1503 507,-1503 507,-1497 513,-1491 519,-1491 519,-1491 745,-1491 745,-1491 751,-1491 757,-1497 757,-1503 757,-1503 757,-1515 757,-1515 757,-1521 751,-1527 745,-1527"/>
<text text-anchor="middle" x="632" y="-1505.3" font-family="xkcd" font-size="14.00">1ère lecture • senat • commission 1144</text>
</g>
<!-- 1 -->
<g id="node2" class="node"><title>1</title>
<path fill="#f48fb1" stroke="black" stroke-width="2" d="M657.5,-1460C657.5,-1460 436.5,-1460 436.5,-1460 430.5,-1460 424.5,-1454 424.5,-1448 424.5,-1448 424.5,-1436 424.5,-1436 424.5,-1430 430.5,-1424 436.5,-1424 436.5,-1424 657.5,-1424 657.5,-1424 663.5,-1424 669.5,-1430 669.5,-1436 669.5,-1436 669.5,-1448 669.5,-1448 669.5,-1454 663.5,-1460 657.5,-1460"/>
<text text-anchor="middle" x="547" y="-1438.3" font-family="xkcd" font-size="14.00">1ère lecture • senat • hemicycle 1012</text>
</g>
<!-- 0&#45;&gt;1 -->
<g id="edge1" class="edge"><title>0&#45;&gt;1</title>
<path fill="none" stroke="black" stroke-width="3" d="M614.199,-1490.93C606.157,-1483.55 596.372,-1475.02 587,-1468 586.115,-1467.34 585.212,-1466.68 584.296,-1466.02"/>
<polygon fill="black" stroke="black" stroke-width="3" points="586.024,-1462.96 575.799,-1460.18 582.062,-1468.73 586.024,-1462.96"/>
<text text-anchor="middle" x="620.5" y="-1471.8" font-family="xkcd" font-size="14.00">1008</text>
</g>
<!-- 1&#45;&gt;0 -->
<g id="edge29" class="edge"><title>1&#45;&gt;0</title>
<path fill="none" stroke="black" d="M556.14,-1460.21C560.934,-1467.97 567.396,-1476.77 575,-1483 576.011,-1483.83 577.053,-1484.63 578.122,-1485.42"/>
<polygon fill="black" stroke="black" points="576.449,-1488.5 586.747,-1491 580.251,-1482.63 576.449,-1488.5"/>
<text text-anchor="middle" x="579.5" y="-1471.8" font-family="xkcd" font-size="14.00">5</text>
</g>
<!-- 1&#45;&gt;1 -->
<g id="edge34" class="edge"><title>1&#45;&gt;1</title>
<path fill="none" stroke="black" d="M669.837,-1446.73C680.695,-1445.73 687.5,-1444.16 687.5,-1442 687.5,-1440.62 684.707,-1439.48 679.845,-1438.57"/>
<polygon fill="black" stroke="black" points="680.204,-1435.09 669.837,-1437.27 679.305,-1442.03 680.204,-1435.09"/>
<text text-anchor="middle" x="692" y="-1438.3" font-family="xkcd" font-size="14.00">8</text>
</g>
<!-- 2 -->
<g id="node3" class="node"><title>2</title>
<path fill="#b3e5fd" stroke="black" d="M1014.5,-1125C1014.5,-1125 799.5,-1125 799.5,-1125 793.5,-1125 787.5,-1119 787.5,-1113 787.5,-1113 787.5,-1101 787.5,-1101 787.5,-1095 793.5,-1089 799.5,-1089 799.5,-1089 1014.5,-1089 1014.5,-1089 1020.5,-1089 1026.5,-1095 1026.5,-1101 1026.5,-1101 1026.5,-1113 1026.5,-1113 1026.5,-1119 1020.5,-1125 1014.5,-1125"/>
<text text-anchor="middle" x="907" y="-1103.3" font-family="xkcd" font-size="14.00">2ème lecture • assemblee • depot 99</text>
</g>
<!-- 1&#45;&gt;2 -->
<g id="edge31" class="edge"><title>1&#45;&gt;2</title>
<path fill="none" stroke="black" d="M669.629,-1440.96C858.999,-1439.23 1201,-1428.81 1201,-1376 1201,-1376 1201,-1376 1201,-1173 1201,-1136.91 1115.45,-1120.84 1036.65,-1113.69"/>
<polygon fill="black" stroke="black" points="1036.84,-1110.2 1026.58,-1112.83 1036.24,-1117.17 1036.84,-1110.2"/>
<text text-anchor="middle" x="1209" y="-1270.8" font-family="xkcd" font-size="14.00">78</text>
</g>
<!-- 6 -->
<g id="node7" class="node"><title>6</title>
<path fill="#f3f3f3" stroke="black" d="M700.5,-103C700.5,-103 407.5,-103 407.5,-103 401.5,-103 395.5,-97 395.5,-91 395.5,-91 395.5,-79 395.5,-79 395.5,-73 401.5,-67 407.5,-67 407.5,-67 700.5,-67 700.5,-67 706.5,-67 712.5,-73 712.5,-79 712.5,-79 712.5,-91 712.5,-91 712.5,-97 706.5,-103 700.5,-103"/>
<text text-anchor="middle" x="554" y="-81.3" font-family="xkcd" font-size="14.00">constitutionnalité • conseil constitutionnel 166</text>
</g>
<!-- 1&#45;&gt;6 -->
<g id="edge28" class="edge"><title>1&#45;&gt;6</title>
<path fill="none" stroke="black" d="M424.39,-1424.57C422.581,-1424.37 420.784,-1424.18 419,-1424 383.456,-1420.33 101,-1411.73 101,-1376 101,-1376 101,-1376 101,-251.5 101,-190.253 123.865,-170.564 173,-134 209.789,-106.623 326.602,-106.87 384.976,-103.289"/>
<polygon fill="black" stroke="black" points="385.435,-106.765 395.163,-102.568 384.941,-99.7827 385.435,-106.765"/>
<text text-anchor="middle" x="107.5" y="-717.8" font-family="xkcd" font-size="14.00">14</text>
</g>
<!-- 7 -->
<g id="node8" class="node"><title>7</title>
<path fill="#f3f3f3" stroke="black" d="M601,-861C601,-861 435,-861 435,-861 429,-861 423,-855 423,-849 423,-849 423,-837 423,-837 423,-831 429,-825 435,-825 435,-825 601,-825 601,-825 607,-825 613,-831 613,-837 613,-837 613,-849 613,-849 613,-855 607,-861 601,-861"/>
<text text-anchor="middle" x="518" y="-839.3" font-family="xkcd" font-size="14.00">CMP • CMP • commission 239</text>
</g>
<!-- 1&#45;&gt;7 -->
<g id="edge30" class="edge"><title>1&#45;&gt;7</title>
<path fill="none" stroke="black" d="M438.896,-1423.95C346.707,-1408.65 229,-1386.97 229,-1376 229,-1376 229,-1376 229,-930 229,-890.323 330.332,-867.481 412.991,-855.448"/>
<polygon fill="black" stroke="black" points="413.56,-858.902 422.97,-854.034 412.578,-851.971 413.56,-858.902"/>
<text text-anchor="middle" x="239.5" y="-1170.3" font-family="xkcd" font-size="14.00">154</text>
</g>
<!-- 9 -->
<g id="node10" class="node"><title>9</title>
<path fill="#f3f3f3" stroke="black" stroke-width="2" d="M990.5,-36C990.5,-36 785.5,-36 785.5,-36 779.5,-36 773.5,-30 773.5,-24 773.5,-24 773.5,-12 773.5,-12 773.5,-6 779.5,-0 785.5,-0 785.5,-0 990.5,-0 990.5,-0 996.5,-0 1002.5,-6 1002.5,-12 1002.5,-12 1002.5,-24 1002.5,-24 1002.5,-30 996.5,-36 990.5,-36"/>
<text text-anchor="middle" x="888" y="-14.3" font-family="xkcd" font-size="14.00">promulgation • gouvernement 785</text>
</g>
<!-- 1&#45;&gt;9 -->
<g id="edge33" class="edge"><title>1&#45;&gt;9</title>
<path fill="none" stroke="black" d="M669.707,-1438.86C818.565,-1435.74 1060.68,-1428.88 1150,-1416 1222.55,-1405.54 1310,-1449.3 1310,-1376 1310,-1376 1310,-1376 1310,-84 1310,-48.1677 1274.28,-54.4187 1240,-44 1198.74,-31.4612 1096.41,-25.1528 1012.66,-22.0142"/>
<polygon fill="black" stroke="black" points="1012.66,-18.5122 1002.54,-21.647 1012.41,-25.5075 1012.66,-18.5122"/>
<text text-anchor="middle" x="1323.5" y="-684.3" font-family="xkcd" font-size="14.00">234</text>
</g>
<!-- 19 -->
<g id="node20" class="node"><title>19</title>
<path fill="#b3e5fd" stroke="black" stroke-width="2" d="M642.5,-1393C642.5,-1393 397.5,-1393 397.5,-1393 391.5,-1393 385.5,-1387 385.5,-1381 385.5,-1381 385.5,-1369 385.5,-1369 385.5,-1363 391.5,-1357 397.5,-1357 397.5,-1357 642.5,-1357 642.5,-1357 648.5,-1357 654.5,-1363 654.5,-1369 654.5,-1369 654.5,-1381 654.5,-1381 654.5,-1387 648.5,-1393 642.5,-1393"/>
<text text-anchor="middle" x="520" y="-1371.3" font-family="xkcd" font-size="14.00">1ère lecture • assemblee • hemicycle 867</text>
</g>
<!-- 1&#45;&gt;19 -->
<g id="edge32" class="edge"><title>1&#45;&gt;19</title>
<path fill="none" stroke="black" d="M539.906,-1423.92C537.199,-1417.41 534.045,-1409.81 531.056,-1402.62"/>
<polygon fill="black" stroke="black" points="534.209,-1401.08 527.14,-1393.19 527.744,-1403.77 534.209,-1401.08"/>
<text text-anchor="middle" x="538" y="-1404.8" font-family="xkcd" font-size="14.00">1</text>
</g>
<!-- 25 -->
<g id="node26" class="node"><title>25</title>
<path fill="#b3e5fd" stroke="black" stroke-width="2" d="M350,-1594C350,-1594 134,-1594 134,-1594 128,-1594 122,-1588 122,-1582 122,-1582 122,-1570 122,-1570 122,-1564 128,-1558 134,-1558 134,-1558 350,-1558 350,-1558 356,-1558 362,-1564 362,-1570 362,-1570 362,-1582 362,-1582 362,-1588 356,-1594 350,-1594"/>
<text text-anchor="middle" x="242" y="-1572.3" font-family="xkcd" font-size="14.00">1ère lecture • assemblee • depot 968</text>
</g>
<!-- 1&#45;&gt;25 -->
<g id="edge27" class="edge"><title>1&#45;&gt;25</title>
<path fill="none" stroke="black" stroke-width="2" d="M513.899,-1460.01C499.753,-1468.22 483.628,-1478.92 471,-1491 447.93,-1513.08 457.259,-1533.37 430,-1550 419.02,-1556.7 397.231,-1561.64 372.254,-1565.27"/>
<polygon fill="black" stroke="black" stroke-width="2" points="371.592,-1561.82 362.157,-1566.64 372.538,-1568.76 371.592,-1561.82"/>
<text text-anchor="middle" x="484.5" y="-1505.3" font-family="xkcd" font-size="14.00">432</text>
</g>
<!-- 26 -->
<g id="node27" class="node"><title>26</title>
<path fill="#f48fb1" stroke="black" stroke-width="4" d="M918,-1594C918,-1594 716,-1594 716,-1594 710,-1594 704,-1588 704,-1582 704,-1582 704,-1570 704,-1570 704,-1564 710,-1558 716,-1558 716,-1558 918,-1558 918,-1558 924,-1558 930,-1564 930,-1570 930,-1570 930,-1582 930,-1582 930,-1588 924,-1594 918,-1594"/>
<text text-anchor="middle" x="817" y="-1572.3" font-family="xkcd" font-size="14.00">1ère lecture • senat • depot 2288</text>
</g>
<!-- 1&#45;&gt;26 -->
<g id="edge35" class="edge"><title>1&#45;&gt;26</title>
<path fill="none" stroke="black" d="M669.541,-1447.96C731.821,-1451.69 796.587,-1457.93 807,-1468 827.799,-1488.11 827.071,-1523.11 823.264,-1547.59"/>
<polygon fill="black" stroke="black" points="819.774,-1547.22 821.431,-1557.68 826.661,-1548.47 819.774,-1547.22"/>
<text text-anchor="middle" x="828" y="-1505.3" font-family="xkcd" font-size="14.00">1</text>
</g>
<!-- 2&#45;&gt;2 -->
<g id="edge2" class="edge"><title>2&#45;&gt;2</title>
<path fill="none" stroke="black" d="M1026.75,-1111.77C1037.65,-1110.78 1044.5,-1109.19 1044.5,-1107 1044.5,-1105.6 1041.69,-1104.44 1036.8,-1103.53"/>
<polygon fill="black" stroke="black" points="1037.12,-1100.04 1026.75,-1102.23 1036.22,-1106.99 1037.12,-1100.04"/>
<text text-anchor="middle" x="1046.5" y="-1103.3" font-family="xkcd" font-size="14.00">1</text>
</g>
<!-- 3 -->
<g id="node4" class="node"><title>3</title>
<path fill="#b3e5fd" stroke="black" d="M1017,-1037C1017,-1037 771,-1037 771,-1037 765,-1037 759,-1031 759,-1025 759,-1025 759,-1013 759,-1013 759,-1007 765,-1001 771,-1001 771,-1001 1017,-1001 1017,-1001 1023,-1001 1029,-1007 1029,-1013 1029,-1013 1029,-1025 1029,-1025 1029,-1031 1023,-1037 1017,-1037"/>
<text text-anchor="middle" x="894" y="-1015.3" font-family="xkcd" font-size="14.00">2ème lecture • assemblee • commission 91</text>
</g>
<!-- 2&#45;&gt;3 -->
<g id="edge3" class="edge"><title>2&#45;&gt;3</title>
<path fill="none" stroke="black" d="M904.369,-1088.6C902.578,-1076.75 900.17,-1060.82 898.125,-1047.29"/>
<polygon fill="black" stroke="black" points="901.538,-1046.45 896.582,-1037.08 894.617,-1047.49 901.538,-1046.45"/>
<text text-anchor="middle" x="910" y="-1059.3" font-family="xkcd" font-size="14.00">91</text>
</g>
<!-- 4 -->
<g id="node5" class="node"><title>4</title>
<path fill="#f48fb1" stroke="black" d="M870,-1192C870,-1192 650,-1192 650,-1192 644,-1192 638,-1186 638,-1180 638,-1180 638,-1168 638,-1168 638,-1162 644,-1156 650,-1156 650,-1156 870,-1156 870,-1156 876,-1156 882,-1162 882,-1168 882,-1168 882,-1180 882,-1180 882,-1186 876,-1192 870,-1192"/>
<text text-anchor="middle" x="760" y="-1170.3" font-family="xkcd" font-size="14.00">2ème lecture • senat • hemicycle 94</text>
</g>
<!-- 3&#45;&gt;4 -->
<g id="edge75" class="edge"><title>3&#45;&gt;4</title>
<path fill="none" stroke="black" d="M843.532,-1037.13C818.762,-1048.12 790.725,-1064.92 774,-1089 762.546,-1105.49 759.305,-1128.13 758.786,-1145.75"/>
<polygon fill="black" stroke="black" points="755.286,-1145.96 758.766,-1155.97 762.286,-1145.97 755.286,-1145.96"/>
<text text-anchor="middle" x="776" y="-1103.3" font-family="xkcd" font-size="14.00">1</text>
</g>
<!-- 5 -->
<g id="node6" class="node"><title>5</title>
<path fill="#b3e5fd" stroke="black" d="M893.5,-949C893.5,-949 648.5,-949 648.5,-949 642.5,-949 636.5,-943 636.5,-937 636.5,-937 636.5,-925 636.5,-925 636.5,-919 642.5,-913 648.5,-913 648.5,-913 893.5,-913 893.5,-913 899.5,-913 905.5,-919 905.5,-925 905.5,-925 905.5,-937 905.5,-937 905.5,-943 899.5,-949 893.5,-949"/>
<text text-anchor="middle" x="771" y="-927.3" font-family="xkcd" font-size="14.00">2ème lecture • assemblee • hemicycle 90</text>
</g>
<!-- 3&#45;&gt;5 -->
<g id="edge74" class="edge"><title>3&#45;&gt;5</title>
<path fill="none" stroke="black" d="M869.405,-1000.8C850.634,-987.679 824.584,-969.465 804.002,-955.074"/>
<polygon fill="black" stroke="black" points="805.754,-952.029 795.553,-949.167 801.743,-957.765 805.754,-952.029"/>
<text text-anchor="middle" x="866" y="-971.3" font-family="xkcd" font-size="14.00">89</text>
</g>
<!-- 3&#45;&gt;9 -->
<g id="edge73" class="edge"><title>3&#45;&gt;9</title>
<path fill="none" stroke="black" d="M899.228,-1000.76C910.667,-963.5 937.719,-878.089 948,-869 959.955,-858.432 968.797,-868.272 983,-861 1009.35,-847.51 1018.15,-842.608 1033,-817 1050.95,-786.048 1073,-777.618 1073,-588.5 1073,-588.5 1073,-588.5 1073,-452.5 1073,-408.72 1074,-397.78 1074,-354 1074,-354 1074,-354 1074,-84 1074,-59.1707 1056.99,-55.5373 1035,-44 1027.83,-40.2372 1020.22,-37.0207 1012.38,-34.2732"/>
<polygon fill="black" stroke="black" points="1013.31,-30.8956 1002.71,-31.1492 1011.15,-37.5561 1013.31,-30.8956"/>
<text text-anchor="middle" x="1075" y="-483.3" font-family="xkcd" font-size="14.00">1</text>
</g>
<!-- 4&#45;&gt;2 -->
<g id="edge7" class="edge"><title>4&#45;&gt;2</title>
<path fill="none" stroke="black" d="M798.623,-1155.92C817.118,-1147.74 839.448,-1137.87 859.022,-1129.21"/>
<polygon fill="black" stroke="black" points="860.65,-1132.32 868.38,-1125.08 857.819,-1125.92 860.65,-1132.32"/>
<text text-anchor="middle" x="853.5" y="-1136.8" font-family="xkcd" font-size="14.00">21</text>
</g>
<!-- 4&#45;&gt;5 -->
<g id="edge4" class="edge"><title>4&#45;&gt;5</title>
<path fill="none" stroke="black" d="M756.211,-1155.84C755.737,-1153.23 755.31,-1150.55 755,-1148 747.096,-1083.11 740.378,-1065.66 750,-1001 752.123,-986.732 756.588,-971.332 760.857,-958.709"/>
<polygon fill="black" stroke="black" points="764.166,-959.85 764.191,-949.255 757.564,-957.522 764.166,-959.85"/>
<text text-anchor="middle" x="749" y="-1059.3" font-family="xkcd" font-size="14.00">1</text>
</g>
<!-- 4&#45;&gt;6 -->
<g id="edge5" class="edge"><title>4&#45;&gt;6</title>
<path fill="none" stroke="black" d="M727.704,-1155.86C609.04,-1092.65 204,-874.634 204,-844 204,-844 204,-844 204,-452.5 204,-448.672 272.87,-337.204 276,-335 316.836,-306.241 336.516,-318.775 386,-312 399.349,-310.172 496.584,-312.547 507,-304 563.644,-257.518 562.223,-160.616 557.632,-113.248"/>
<polygon fill="black" stroke="black" points="561.092,-112.689 556.528,-103.128 554.133,-113.449 561.092,-112.689"/>
<text text-anchor="middle" x="208" y="-583.8" font-family="xkcd" font-size="14.00">7</text>
</g>
<!-- 4&#45;&gt;7 -->
<g id="edge6" class="edge"><title>4&#45;&gt;7</title>
<path fill="none" stroke="black" d="M747.33,-1155.77C707.39,-1101.48 583.974,-933.692 536.694,-869.415"/>
<polygon fill="black" stroke="black" points="539.29,-867.036 530.545,-861.055 533.651,-871.184 539.29,-867.036"/>
<text text-anchor="middle" x="668.5" y="-1015.3" font-family="xkcd" font-size="14.00">20</text>
</g>
<!-- 8 -->
<g id="node9" class="node"><title>8</title>
<path fill="#b3e5fd" stroke="black" d="M1181.5,-1081C1181.5,-1081 972.5,-1081 972.5,-1081 966.5,-1081 960.5,-1075 960.5,-1069 960.5,-1069 960.5,-1057 960.5,-1057 960.5,-1051 966.5,-1045 972.5,-1045 972.5,-1045 1181.5,-1045 1181.5,-1045 1187.5,-1045 1193.5,-1051 1193.5,-1057 1193.5,-1057 1193.5,-1069 1193.5,-1069 1193.5,-1075 1187.5,-1081 1181.5,-1081"/>
<text text-anchor="middle" x="1077" y="-1059.3" font-family="xkcd" font-size="14.00">3ème lecture • assemblee • depot 3</text>
</g>
<!-- 4&#45;&gt;8 -->
<g id="edge8" class="edge"><title>4&#45;&gt;8</title>
<path fill="none" stroke="black" d="M882.039,-1166.21C952.264,-1159.89 1031.67,-1147.83 1058,-1125 1067.72,-1116.57 1072.54,-1103.25 1074.89,-1091.21"/>
<polygon fill="black" stroke="black" points="1078.38,-1091.51 1076.39,-1081.11 1071.46,-1090.49 1078.38,-1091.51"/>
<text text-anchor="middle" x="1049" y="-1136.8" font-family="xkcd" font-size="14.00">3</text>
</g>
<!-- 4&#45;&gt;9 -->
<g id="edge9" class="edge"><title>4&#45;&gt;9</title>
<path fill="none" stroke="black" d="M882.132,-1167.69C1020.2,-1160.01 1226,-1142.74 1226,-1108 1226,-1108 1226,-1108 1226,-886 1226,-768.613 1218,-739.387 1218,-622 1218,-622 1218,-622 1218,-84 1218,-40.5481 1106.47,-25.6499 1013.08,-20.7913"/>
<polygon fill="black" stroke="black" points="1013.11,-17.2886 1002.95,-20.2993 1012.77,-24.2804 1013.11,-17.2886"/>
<text text-anchor="middle" x="1227" y="-550.3" font-family="xkcd" font-size="14.00">42</text>
</g>
<!-- 5&#45;&gt;6 -->
<g id="edge14" class="edge"><title>5&#45;&gt;6</title>
<path fill="none" stroke="black" d="M775.829,-912.695C780.214,-895.437 786,-868.098 786,-844 786,-844 786,-844 786,-720.5 786,-455.123 783.931,-375.537 674,-134 668.945,-122.892 668.98,-118.024 659,-111 657.551,-109.98 656.067,-109.002 654.55,-108.063"/>
<polygon fill="black" stroke="black" points="656.001,-104.867 645.554,-103.107 652.624,-110.998 656.001,-104.867"/>
<text text-anchor="middle" x="788.5" y="-483.3" font-family="xkcd" font-size="14.00">10</text>
</g>
<!-- 5&#45;&gt;7 -->
<g id="edge15" class="edge"><title>5&#45;&gt;7</title>
<path fill="none" stroke="black" d="M730.248,-912.989C698.379,-900.022 652.786,-882.206 612,-869 606.545,-867.234 600.884,-865.496 595.167,-863.811"/>
<polygon fill="black" stroke="black" points="596.097,-860.437 585.519,-861.028 594.157,-867.163 596.097,-860.437"/>
<text text-anchor="middle" x="713" y="-883.3" font-family="xkcd" font-size="14.00">16</text>
</g>
<!-- 5&#45;&gt;9 -->
<g id="edge13" class="edge"><title>5&#45;&gt;9</title>
<path fill="none" stroke="black" d="M830.456,-912.863C837.456,-910.423 844.437,-907.787 851,-905 860.383,-901.016 1006.13,-825.332 1012,-817 1036.5,-782.241 1027,-765.026 1027,-722.5 1027,-722.5 1027,-722.5 1027,-519.5 1027,-401.21 1036,-371.79 1036,-253.5 1036,-253.5 1036,-253.5 1036,-84 1036,-64.1649 1024.72,-50.3277 1008.38,-40.6884"/>
<polygon fill="black" stroke="black" points="1009.9,-37.5326 999.416,-36.0208 1006.67,-43.7421 1009.9,-37.5326"/>
<text text-anchor="middle" x="1036.5" y="-449.8" font-family="xkcd" font-size="14.00">27</text>
</g>
<!-- 10 -->
<g id="node11" class="node"><title>10</title>
<path fill="#f48fb1" stroke="black" d="M739,-1326C739,-1326 547,-1326 547,-1326 541,-1326 535,-1320 535,-1314 535,-1314 535,-1302 535,-1302 535,-1296 541,-1290 547,-1290 547,-1290 739,-1290 739,-1290 745,-1290 751,-1296 751,-1302 751,-1302 751,-1314 751,-1314 751,-1320 745,-1326 739,-1326"/>
<text text-anchor="middle" x="643" y="-1304.3" font-family="xkcd" font-size="14.00">2ème lecture • senat • depot 101</text>
</g>
<!-- 5&#45;&gt;10 -->
<g id="edge12" class="edge"><title>5&#45;&gt;10</title>
<path fill="none" stroke="black" d="M673.947,-949.073C613.051,-966 546,-998.953 546,-1062 546,-1242 546,-1242 546,-1242 546,-1261.33 559.464,-1275.28 576.359,-1285.18"/>
<polygon fill="black" stroke="black" points="574.978,-1288.41 585.454,-1289.99 578.251,-1282.22 574.978,-1288.41"/>
<text text-anchor="middle" x="555" y="-1136.8" font-family="xkcd" font-size="14.00">34</text>
</g>
<!-- 12 -->
<g id="node13" class="node"><title>12</title>
<path fill="#f48fb1" stroke="black" d="M998.5,-817C998.5,-817 813.5,-817 813.5,-817 807.5,-817 801.5,-811 801.5,-805 801.5,-805 801.5,-793 801.5,-793 801.5,-787 807.5,-781 813.5,-781 813.5,-781 998.5,-781 998.5,-781 1004.5,-781 1010.5,-787 1010.5,-793 1010.5,-793 1010.5,-805 1010.5,-805 1010.5,-811 1004.5,-817 998.5,-817"/>
<text text-anchor="middle" x="906" y="-795.3" font-family="xkcd" font-size="14.00">3ème lecture • senat • depot 2</text>
</g>
<!-- 5&#45;&gt;12 -->
<g id="edge11" class="edge"><title>5&#45;&gt;12</title>
<path fill="none" stroke="black" d="M791.128,-912.965C794.132,-910.331 797.169,-907.617 800,-905 829.098,-878.106 861.267,-845.864 882.45,-824.266"/>
<polygon fill="black" stroke="black" points="884.971,-826.693 889.461,-817.097 879.966,-821.799 884.971,-826.693"/>
<text text-anchor="middle" x="842" y="-883.3" font-family="xkcd" font-size="14.00">2</text>
</g>
<!-- 6&#45;&gt;9 -->
<g id="edge52" class="edge"><title>6&#45;&gt;9</title>
<path fill="none" stroke="black" d="M612.864,-66.9968C641.409,-59.1923 676.3,-50.2962 708,-44 725.837,-40.4572 744.767,-37.2424 763.394,-34.3875"/>
<polygon fill="black" stroke="black" points="764.031,-37.8312 773.399,-32.8833 762.99,-30.909 764.031,-37.8312"/>
<text text-anchor="middle" x="717.5" y="-47.8" font-family="xkcd" font-size="14.00">163</text>
</g>
<!-- 27 -->
<g id="node28" class="node"><title>27</title>
<path fill="#f48fb1" stroke="black" d="M599.5,-773C599.5,-773 436.5,-773 436.5,-773 430.5,-773 424.5,-767 424.5,-761 424.5,-761 424.5,-749 424.5,-749 424.5,-743 430.5,-737 436.5,-737 436.5,-737 599.5,-737 599.5,-737 605.5,-737 611.5,-743 611.5,-749 611.5,-749 611.5,-761 611.5,-761 611.5,-767 605.5,-773 599.5,-773"/>
<text text-anchor="middle" x="518" y="-751.3" font-family="xkcd" font-size="14.00">CMP • senat • hemicycle 162</text>
</g>
<!-- 7&#45;&gt;27 -->
<g id="edge65" class="edge"><title>7&#45;&gt;27</title>
<path fill="none" stroke="black" d="M518,-824.597C518,-812.746 518,-796.817 518,-783.292"/>
<polygon fill="black" stroke="black" points="521.5,-783.084 518,-773.084 514.5,-783.084 521.5,-783.084"/>
<text text-anchor="middle" x="526" y="-795.3" font-family="xkcd" font-size="14.00">67</text>
</g>
<!-- 28 -->
<g id="node29" class="node"><title>28</title>
<path fill="#b3e5fd" stroke="black" d="M746,-706C746,-706 558,-706 558,-706 552,-706 546,-700 546,-694 546,-694 546,-682 546,-682 546,-676 552,-670 558,-670 558,-670 746,-670 746,-670 752,-670 758,-676 758,-682 758,-682 758,-694 758,-694 758,-700 752,-706 746,-706"/>
<text text-anchor="middle" x="652" y="-684.3" font-family="xkcd" font-size="14.00">CMP • assemblee • hemicycle 162</text>
</g>
<!-- 7&#45;&gt;28 -->
<g id="edge63" class="edge"><title>7&#45;&gt;28</title>
<path fill="none" stroke="black" d="M553.784,-824.956C575.501,-813.041 602.342,-795.288 620,-773 633.081,-756.489 641.264,-734.035 646.078,-716.497"/>
<polygon fill="black" stroke="black" points="649.596,-716.862 648.653,-706.309 642.809,-715.146 649.596,-716.862"/>
<text text-anchor="middle" x="648" y="-751.3" font-family="xkcd" font-size="14.00">95</text>
</g>
<!-- 29 -->
<g id="node30" class="node"><title>29</title>
<path fill="#b3e5fd" stroke="black" d="M477.5,-706C477.5,-706 282.5,-706 282.5,-706 276.5,-706 270.5,-700 270.5,-694 270.5,-694 270.5,-682 270.5,-682 270.5,-676 276.5,-670 282.5,-670 282.5,-670 477.5,-670 477.5,-670 483.5,-670 489.5,-676 489.5,-682 489.5,-682 489.5,-694 489.5,-694 489.5,-700 483.5,-706 477.5,-706"/>
<text text-anchor="middle" x="380" y="-684.3" font-family="xkcd" font-size="14.00">nouv. lect. • assemblee • depot 78</text>
</g>
<!-- 7&#45;&gt;29 -->
<g id="edge64" class="edge"><title>7&#45;&gt;29</title>
<path fill="none" stroke="black" d="M469.701,-824.914C445.007,-813.794 416.539,-796.86 399,-773 386.973,-756.639 382.359,-733.996 380.678,-716.341"/>
<polygon fill="black" stroke="black" points="384.152,-715.829 379.971,-706.094 377.168,-716.311 384.152,-715.829"/>
<text text-anchor="middle" x="407" y="-751.3" font-family="xkcd" font-size="14.00">77</text>
</g>
<!-- 23 -->
<g id="node24" class="node"><title>23</title>
<path fill="#b3e5fd" stroke="black" d="M1199,-993C1199,-993 955,-993 955,-993 949,-993 943,-987 943,-981 943,-981 943,-969 943,-969 943,-963 949,-957 955,-957 955,-957 1199,-957 1199,-957 1205,-957 1211,-963 1211,-969 1211,-969 1211,-981 1211,-981 1211,-987 1205,-993 1199,-993"/>
<text text-anchor="middle" x="1077" y="-971.3" font-family="xkcd" font-size="14.00">3ème lecture • assemblee • commission 3</text>
</g>
<!-- 8&#45;&gt;23 -->
<g id="edge53" class="edge"><title>8&#45;&gt;23</title>
<path fill="none" stroke="black" d="M1077,-1044.6C1077,-1032.75 1077,-1016.82 1077,-1003.29"/>
<polygon fill="black" stroke="black" points="1080.5,-1003.08 1077,-993.084 1073.5,-1003.08 1080.5,-1003.08"/>
<text text-anchor="middle" x="1082" y="-1015.3" font-family="xkcd" font-size="14.00">3</text>
</g>
<!-- 11 -->
<g id="node12" class="node"><title>11</title>
<path fill="#f48fb1" stroke="black" d="M840.5,-1259C840.5,-1259 613.5,-1259 613.5,-1259 607.5,-1259 601.5,-1253 601.5,-1247 601.5,-1247 601.5,-1235 601.5,-1235 601.5,-1229 607.5,-1223 613.5,-1223 613.5,-1223 840.5,-1223 840.5,-1223 846.5,-1223 852.5,-1229 852.5,-1235 852.5,-1235 852.5,-1247 852.5,-1247 852.5,-1253 846.5,-1259 840.5,-1259"/>
<text text-anchor="middle" x="727" y="-1237.3" font-family="xkcd" font-size="14.00">2ème lecture • senat • commission 93</text>
</g>
<!-- 10&#45;&gt;11 -->
<g id="edge10" class="edge"><title>10&#45;&gt;11</title>
<path fill="none" stroke="black" d="M665.07,-1289.92C674.736,-1282.44 686.234,-1273.54 696.685,-1265.46"/>
<polygon fill="black" stroke="black" points="699.019,-1268.08 704.786,-1259.19 694.735,-1262.54 699.019,-1268.08"/>
<text text-anchor="middle" x="701.5" y="-1270.8" font-family="xkcd" font-size="14.00">93</text>
</g>
<!-- 11&#45;&gt;4 -->
<g id="edge26" class="edge"><title>11&#45;&gt;4</title>
<path fill="none" stroke="black" d="M735.67,-1222.92C739.054,-1216.26 743.01,-1208.47 746.736,-1201.13"/>
<polygon fill="black" stroke="black" points="749.867,-1202.69 751.273,-1192.19 743.625,-1199.52 749.867,-1202.69"/>
<text text-anchor="middle" x="755.5" y="-1203.8" font-family="xkcd" font-size="14.00">93</text>
</g>
<!-- 13 -->
<g id="node14" class="node"><title>13</title>
<path fill="#f48fb1" stroke="black" d="M995.5,-237C995.5,-237 776.5,-237 776.5,-237 770.5,-237 764.5,-231 764.5,-225 764.5,-225 764.5,-213 764.5,-213 764.5,-207 770.5,-201 776.5,-201 776.5,-201 995.5,-201 995.5,-201 1001.5,-201 1007.5,-207 1007.5,-213 1007.5,-213 1007.5,-225 1007.5,-225 1007.5,-231 1001.5,-237 995.5,-237"/>
<text text-anchor="middle" x="886" y="-215.3" font-family="xkcd" font-size="14.00">3ème lecture • senat • commission 2</text>
</g>
<!-- 12&#45;&gt;13 -->
<g id="edge16" class="edge"><title>12&#45;&gt;13</title>
<path fill="none" stroke="black" d="M902.446,-780.993C899.572,-765.747 896,-742.73 896,-722.5 896,-722.5 896,-722.5 896,-285 896,-272.5 894.171,-258.803 892.077,-247.219"/>
<polygon fill="black" stroke="black" points="895.485,-246.409 890.125,-237.27 888.616,-247.757 895.485,-246.409"/>
<text text-anchor="middle" x="901" y="-516.8" font-family="xkcd" font-size="14.00">2</text>
</g>
<!-- 31 -->
<g id="node32" class="node"><title>31</title>
<path fill="#f48fb1" stroke="black" d="M994.5,-170C994.5,-170 781.5,-170 781.5,-170 775.5,-170 769.5,-164 769.5,-158 769.5,-158 769.5,-146 769.5,-146 769.5,-140 775.5,-134 781.5,-134 781.5,-134 994.5,-134 994.5,-134 1000.5,-134 1006.5,-140 1006.5,-146 1006.5,-146 1006.5,-158 1006.5,-158 1006.5,-164 1000.5,-170 994.5,-170"/>
<text text-anchor="middle" x="888" y="-148.3" font-family="xkcd" font-size="14.00">3ème lecture • senat • hemicycle 2</text>
</g>
<!-- 13&#45;&gt;31 -->
<g id="edge62" class="edge"><title>13&#45;&gt;31</title>
<path fill="none" stroke="black" d="M886.525,-200.922C886.717,-194.702 886.938,-187.5 887.151,-180.6"/>
<polygon fill="black" stroke="black" points="890.662,-180.293 887.471,-170.19 883.665,-180.077 890.662,-180.293"/>
<text text-anchor="middle" x="893" y="-181.8" font-family="xkcd" font-size="14.00">2</text>
</g>
<!-- 14 -->
<g id="node15" class="node"><title>14</title>
<path fill="#b3e5fd" stroke="black" d="M512,-639C512,-639 282,-639 282,-639 276,-639 270,-633 270,-627 270,-627 270,-615 270,-615 270,-609 276,-603 282,-603 282,-603 512,-603 512,-603 518,-603 524,-609 524,-615 524,-615 524,-627 524,-627 524,-633 518,-639 512,-639"/>
<text text-anchor="middle" x="397" y="-617.3" font-family="xkcd" font-size="14.00">nouv. lect. • assemblee • commission 78</text>
</g>
<!-- 15 -->
<g id="node16" class="node"><title>15</title>
<path fill="#b3e5fd" stroke="black" d="M509,-572C509,-572 285,-572 285,-572 279,-572 273,-566 273,-560 273,-560 273,-548 273,-548 273,-542 279,-536 285,-536 285,-536 509,-536 509,-536 515,-536 521,-542 521,-548 521,-548 521,-560 521,-560 521,-566 515,-572 509,-572"/>
<text text-anchor="middle" x="397" y="-550.3" font-family="xkcd" font-size="14.00">nouv. lect. • assemblee • hemicycle 78</text>
</g>
<!-- 14&#45;&gt;15 -->
<g id="edge17" class="edge"><title>14&#45;&gt;15</title>
<path fill="none" stroke="black" d="M397,-602.922C397,-596.702 397,-589.5 397,-582.6"/>
<polygon fill="black" stroke="black" points="400.5,-582.19 397,-572.19 393.5,-582.19 400.5,-582.19"/>
<text text-anchor="middle" x="405" y="-583.8" font-family="xkcd" font-size="14.00">78</text>
</g>
<!-- 20 -->
<g id="node21" class="node"><title>20</title>
<path fill="#f48fb1" stroke="black" d="M482,-505C482,-505 312,-505 312,-505 306,-505 300,-499 300,-493 300,-493 300,-481 300,-481 300,-475 306,-469 312,-469 312,-469 482,-469 482,-469 488,-469 494,-475 494,-481 494,-481 494,-493 494,-493 494,-499 488,-505 482,-505"/>
<text text-anchor="middle" x="397" y="-483.3" font-family="xkcd" font-size="14.00">nouv. lect. • senat • depot 78</text>
</g>
<!-- 15&#45;&gt;20 -->
<g id="edge71" class="edge"><title>15&#45;&gt;20</title>
<path fill="none" stroke="black" d="M397,-535.922C397,-529.702 397,-522.5 397,-515.6"/>
<polygon fill="black" stroke="black" points="400.5,-515.19 397,-505.19 393.5,-515.19 400.5,-515.19"/>
<text text-anchor="middle" x="405" y="-516.8" font-family="xkcd" font-size="14.00">78</text>
</g>
<!-- 16 -->
<g id="node17" class="node"><title>16</title>
<path fill="#b3e5fd" stroke="black" d="M504,-237C504,-237 266,-237 266,-237 260,-237 254,-231 254,-225 254,-225 254,-213 254,-213 254,-207 260,-201 266,-201 266,-201 504,-201 504,-201 510,-201 516,-207 516,-213 516,-213 516,-225 516,-225 516,-231 510,-237 504,-237"/>
<text text-anchor="middle" x="385" y="-215.3" font-family="xkcd" font-size="14.00">l. définitive • assemblee • commission 64</text>
</g>
<!-- 17 -->
<g id="node18" class="node"><title>17</title>
<path fill="#b3e5fd" stroke="black" d="M486,-170C486,-170 256,-170 256,-170 250,-170 244,-164 244,-158 244,-158 244,-146 244,-146 244,-140 250,-134 256,-134 256,-134 486,-134 486,-134 492,-134 498,-140 498,-146 498,-146 498,-158 498,-158 498,-164 492,-170 486,-170"/>
<text text-anchor="middle" x="371" y="-148.3" font-family="xkcd" font-size="14.00">l. définitive • assemblee • hemicycle 77</text>
</g>
<!-- 16&#45;&gt;17 -->
<g id="edge18" class="edge"><title>16&#45;&gt;17</title>
<path fill="none" stroke="black" d="M381.322,-200.922C379.95,-194.553 378.357,-187.156 376.839,-180.108"/>
<polygon fill="black" stroke="black" points="380.23,-179.228 374.702,-170.19 373.386,-180.702 380.23,-179.228"/>
<text text-anchor="middle" x="388.5" y="-181.8" font-family="xkcd" font-size="14.00">64</text>
</g>
<!-- 17&#45;&gt;6 -->
<g id="edge59" class="edge"><title>17&#45;&gt;6</title>
<path fill="none" stroke="black" d="M419.081,-133.922C442.734,-125.521 471.425,-115.33 496.258,-106.509"/>
<polygon fill="black" stroke="black" points="497.671,-109.722 505.923,-103.077 495.328,-103.126 497.671,-109.722"/>
<text text-anchor="middle" x="487" y="-114.8" font-family="xkcd" font-size="14.00">57</text>
</g>
<!-- 17&#45;&gt;9 -->
<g id="edge60" class="edge"><title>17&#45;&gt;9</title>
<path fill="none" stroke="black" d="M363.809,-133.793C357.198,-114.91 350.668,-84.9061 367,-67 393.19,-38.286 617.211,-26.5116 762.848,-21.8608"/>
<polygon fill="black" stroke="black" points="763.309,-25.3482 773.195,-21.5381 763.091,-18.3516 763.309,-25.3482"/>
<text text-anchor="middle" x="376.5" y="-81.3" font-family="xkcd" font-size="14.00">20</text>
</g>
<!-- 18 -->
<g id="node19" class="node"><title>18</title>
<path fill="#b3e5fd" stroke="black" stroke-width="2" d="M367.5,-1527C367.5,-1527 116.5,-1527 116.5,-1527 110.5,-1527 104.5,-1521 104.5,-1515 104.5,-1515 104.5,-1503 104.5,-1503 104.5,-1497 110.5,-1491 116.5,-1491 116.5,-1491 367.5,-1491 367.5,-1491 373.5,-1491 379.5,-1497 379.5,-1503 379.5,-1503 379.5,-1515 379.5,-1515 379.5,-1521 373.5,-1527 367.5,-1527"/>
<text text-anchor="middle" x="242" y="-1505.3" font-family="xkcd" font-size="14.00">1ère lecture • assemblee • commission 873</text>
</g>
<!-- 18&#45;&gt;1 -->
<g id="edge20" class="edge"><title>18&#45;&gt;1</title>
<path fill="none" stroke="black" d="M303.588,-1490.92C332.17,-1483.33 366.681,-1474.63 398,-1468 408.015,-1465.88 418.439,-1463.83 428.915,-1461.87"/>
<polygon fill="black" stroke="black" points="429.762,-1465.27 438.963,-1460.02 428.495,-1458.38 429.762,-1465.27"/>
<text text-anchor="middle" x="400" y="-1471.8" font-family="xkcd" font-size="14.00">1</text>
</g>
<!-- 18&#45;&gt;9 -->
<g id="edge21" class="edge"><title>18&#45;&gt;9</title>
<path fill="none" stroke="black" d="M128.665,-1490.95C81.7106,-1480.59 38,-1465.02 38,-1443 38,-1443 38,-1443 38,-84 38,-48.071 527.197,-29.2467 763.348,-22.2528"/>
<polygon fill="black" stroke="black" points="763.472,-25.7508 773.365,-21.9588 763.267,-18.7538 763.472,-25.7508"/>
<text text-anchor="middle" x="40" y="-717.8" font-family="xkcd" font-size="14.00">1</text>
</g>
<!-- 18&#45;&gt;19 -->
<g id="edge19" class="edge"><title>18&#45;&gt;19</title>
<path fill="none" stroke="black" stroke-width="3" d="M268.846,-1491C297.973,-1472.97 346.193,-1444.35 390,-1424 411.857,-1413.84 436.514,-1404.29 458.434,-1396.41"/>
<polygon fill="black" stroke="black" stroke-width="3" points="459.712,-1399.67 467.967,-1393.03 457.372,-1393.08 459.712,-1399.67"/>
<text text-anchor="middle" x="402.5" y="-1438.3" font-family="xkcd" font-size="14.00">865</text>
</g>
<!-- 19&#45;&gt;1 -->
<g id="edge51" class="edge"><title>19&#45;&gt;1</title>
<path fill="none" stroke="black" d="M520.529,-1393.32C521.102,-1398.94 522.161,-1405.22 526.19,-1414.64"/>
<polygon fill="black" stroke="black" points="523.091,-1416.28 530.556,-1423.79 529.408,-1413.26 523.091,-1416.28"/>
<text text-anchor="middle" x="528" y="-1404.8" font-family="xkcd" font-size="14.00">1</text>
</g>
<!-- 19&#45;&gt;6 -->
<g id="edge47" class="edge"><title>19&#45;&gt;6</title>
<path fill="none" stroke="black" d="M458.334,-1356.91C384.978,-1333.05 265.154,-1282.21 207,-1192 125.856,-1066.12 139,-671.264 139,-521.5 139,-521.5 139,-521.5 139,-251.5 139,-184.064 176.396,-167.364 235,-134 250.049,-125.432 325.018,-113.939 398.494,-104.347"/>
<polygon fill="black" stroke="black" points="399.378,-107.762 408.846,-103.007 398.479,-100.82 399.378,-107.762"/>
<text text-anchor="middle" x="145.5" y="-684.3" font-family="xkcd" font-size="14.00">14</text>
</g>
<!-- 19&#45;&gt;7 -->
<g id="edge48" class="edge"><title>19&#45;&gt;7</title>
<path fill="none" stroke="black" d="M514.637,-1356.81C511.056,-1343.81 507,-1325.46 507,-1309 507,-1309 507,-1309 507,-930 507,-910.244 509.891,-888.14 512.709,-871.289"/>
<polygon fill="black" stroke="black" points="516.225,-871.507 514.52,-861.051 509.332,-870.289 516.225,-871.507"/>
<text text-anchor="middle" x="515" y="-1136.8" font-family="xkcd" font-size="14.00">49</text>
</g>
<!-- 19&#45;&gt;9 -->
<g id="edge50" class="edge"><title>19&#45;&gt;9</title>
<path fill="none" stroke="black" d="M629.599,-1356.96C670.936,-1349.26 718.082,-1338.95 760,-1326 1001.21,-1251.49 1264,-1316.46 1264,-1064 1264,-1064 1264,-1064 1264,-84 1264,-51.2073 1233.06,-54.5085 1202,-44 1167.68,-32.3886 1084.75,-26.0994 1012.73,-22.7338"/>
<polygon fill="black" stroke="black" points="1012.8,-19.2333 1002.65,-22.2781 1012.48,-26.2261 1012.8,-19.2333"/>
<text text-anchor="middle" x="1274.5" y="-650.8" font-family="xkcd" font-size="14.00">186</text>
</g>
<!-- 19&#45;&gt;10 -->
<g id="edge49" class="edge"><title>19&#45;&gt;10</title>
<path fill="none" stroke="black" d="M552.317,-1356.92C567.311,-1349 585.317,-1339.48 601.32,-1331.03"/>
<polygon fill="black" stroke="black" points="603.266,-1333.96 610.472,-1326.19 599.995,-1327.77 603.266,-1333.96"/>
<text text-anchor="middle" x="601" y="-1337.8" font-family="xkcd" font-size="14.00">67</text>
</g>
<!-- 19&#45;&gt;26 -->
<g id="edge46" class="edge"><title>19&#45;&gt;26</title>
<path fill="none" stroke="black" stroke-width="2" d="M654.737,-1386.4C715.04,-1397.84 782.437,-1421.12 827,-1468 850.354,-1492.57 850.693,-1512.16 837.477,-1548.37"/>
<polygon fill="black" stroke="black" stroke-width="2" points="834.118,-1547.36 833.831,-1557.95 840.66,-1549.85 834.118,-1547.36"/>
<text text-anchor="middle" x="851.5" y="-1471.8" font-family="xkcd" font-size="14.00">556</text>
</g>
<!-- 21 -->
<g id="node22" class="node"><title>21</title>
<path fill="#f48fb1" stroke="black" d="M499.5,-438C499.5,-438 294.5,-438 294.5,-438 288.5,-438 282.5,-432 282.5,-426 282.5,-426 282.5,-414 282.5,-414 282.5,-408 288.5,-402 294.5,-402 294.5,-402 499.5,-402 499.5,-402 505.5,-402 511.5,-408 511.5,-414 511.5,-414 511.5,-426 511.5,-426 511.5,-432 505.5,-438 499.5,-438"/>
<text text-anchor="middle" x="397" y="-416.3" font-family="xkcd" font-size="14.00">nouv. lect. • senat • commission 78</text>
</g>
<!-- 20&#45;&gt;21 -->
<g id="edge22" class="edge"><title>20&#45;&gt;21</title>
<path fill="none" stroke="black" d="M397,-468.922C397,-462.702 397,-455.5 397,-448.6"/>
<polygon fill="black" stroke="black" points="400.5,-448.19 397,-438.19 393.5,-448.19 400.5,-448.19"/>
<text text-anchor="middle" x="405" y="-449.8" font-family="xkcd" font-size="14.00">78</text>
</g>
<!-- 30 -->
<g id="node31" class="node"><title>30</title>
<path fill="#f48fb1" stroke="black" d="M496.5,-371C496.5,-371 297.5,-371 297.5,-371 291.5,-371 285.5,-365 285.5,-359 285.5,-359 285.5,-347 285.5,-347 285.5,-341 291.5,-335 297.5,-335 297.5,-335 496.5,-335 496.5,-335 502.5,-335 508.5,-341 508.5,-347 508.5,-347 508.5,-359 508.5,-359 508.5,-365 502.5,-371 496.5,-371"/>
<text text-anchor="middle" x="397" y="-349.3" font-family="xkcd" font-size="14.00">nouv. lect. • senat • hemicycle 78</text>
</g>
<!-- 21&#45;&gt;30 -->
<g id="edge72" class="edge"><title>21&#45;&gt;30</title>
<path fill="none" stroke="black" d="M397,-401.922C397,-395.702 397,-388.5 397,-381.6"/>
<polygon fill="black" stroke="black" points="400.5,-381.19 397,-371.19 393.5,-381.19 400.5,-381.19"/>
<text text-anchor="middle" x="405" y="-382.8" font-family="xkcd" font-size="14.00">78</text>
</g>
<!-- 22 -->
<g id="node23" class="node"><title>22</title>
<path fill="#b3e5fd" stroke="black" d="M486,-304C486,-304 284,-304 284,-304 278,-304 272,-298 272,-292 272,-292 272,-280 272,-280 272,-274 278,-268 284,-268 284,-268 486,-268 486,-268 492,-268 498,-274 498,-280 498,-280 498,-292 498,-292 498,-298 492,-304 486,-304"/>
<text text-anchor="middle" x="385" y="-282.3" font-family="xkcd" font-size="14.00">l. définitive • assemblee • depot 77</text>
</g>
<!-- 22&#45;&gt;16 -->
<g id="edge24" class="edge"><title>22&#45;&gt;16</title>
<path fill="none" stroke="black" d="M385,-267.922C385,-261.702 385,-254.5 385,-247.6"/>
<polygon fill="black" stroke="black" points="388.5,-247.19 385,-237.19 381.5,-247.19 388.5,-247.19"/>
<text text-anchor="middle" x="393.5" y="-248.8" font-family="xkcd" font-size="14.00">64</text>
</g>
<!-- 22&#45;&gt;17 -->
<g id="edge23" class="edge"><title>22&#45;&gt;17</title>
<path fill="none" stroke="black" d="M271.796,-267.877C256.228,-260.74 242.134,-250.8 232,-237 222.53,-224.104 222.715,-214.03 232,-201 239.988,-189.791 250.777,-181.174 262.832,-174.555"/>
<polygon fill="black" stroke="black" points="264.423,-177.672 271.812,-170.079 261.3,-171.407 264.423,-177.672"/>
<text text-anchor="middle" x="238.5" y="-215.3" font-family="xkcd" font-size="14.00">13</text>
</g>
<!-- 24 -->
<g id="node25" class="node"><title>24</title>
<path fill="#b3e5fd" stroke="black" d="M1199,-905C1199,-905 961,-905 961,-905 955,-905 949,-899 949,-893 949,-893 949,-881 949,-881 949,-875 955,-869 961,-869 961,-869 1199,-869 1199,-869 1205,-869 1211,-875 1211,-881 1211,-881 1211,-893 1211,-893 1211,-899 1205,-905 1199,-905"/>
<text text-anchor="middle" x="1080" y="-883.3" font-family="xkcd" font-size="14.00">3ème lecture • assemblee • hemicycle 3</text>
</g>
<!-- 23&#45;&gt;24 -->
<g id="edge25" class="edge"><title>23&#45;&gt;24</title>
<path fill="none" stroke="black" d="M1077.61,-956.597C1078.02,-944.746 1078.58,-928.817 1079.05,-915.292"/>
<polygon fill="black" stroke="black" points="1082.55,-915.2 1079.4,-905.084 1075.56,-914.956 1082.55,-915.2"/>
<text text-anchor="middle" x="1084" y="-927.3" font-family="xkcd" font-size="14.00">3</text>
</g>
<!-- 24&#45;&gt;9 -->
<g id="edge43" class="edge"><title>24&#45;&gt;9</title>
<path fill="none" stroke="black" d="M1090.48,-868.906C1099.81,-852.03 1112,-825.17 1112,-800 1112,-800 1112,-800 1112,-84 1112,-63.2677 1105.37,-55.3161 1088,-44 1074.55,-35.2373 1045.05,-29.5445 1012.73,-25.8466"/>
<polygon fill="black" stroke="black" points="1012.94,-22.3491 1002.62,-24.7618 1012.19,-29.3092 1012.94,-22.3491"/>
<text text-anchor="middle" x="1117" y="-449.8" font-family="xkcd" font-size="14.00">2</text>
</g>
<!-- 25&#45;&gt;1 -->
<g id="edge56" class="edge"><title>25&#45;&gt;1</title>
<path fill="none" stroke="black" d="M308.468,-1557.99C334.057,-1550.21 363.094,-1539.83 388,-1527 412.024,-1514.63 414.362,-1505.76 437,-1491 454.179,-1479.8 458.381,-1476.59 477,-1468 479.988,-1466.62 483.075,-1465.27 486.212,-1463.95"/>
<polygon fill="black" stroke="black" points="487.76,-1467.1 495.723,-1460.11 485.14,-1460.61 487.76,-1467.1"/>
<text text-anchor="middle" x="442" y="-1505.3" font-family="xkcd" font-size="14.00">2</text>
</g>
<!-- 25&#45;&gt;9 -->
<g id="edge57" class="edge"><title>25&#45;&gt;9</title>
<path fill="none" stroke="black" d="M121.709,-1563.49C60.9736,-1554.22 0,-1537.95 0,-1510 0,-1510 0,-1510 0,-84 0,-43.0369 6.36507,-59.3784 140,-44 256.868,-30.5511 582.645,-23.6199 763.323,-20.7148"/>
<polygon fill="black" stroke="black" points="763.47,-24.213 773.413,-20.5543 763.358,-17.2139 763.47,-24.213"/>
<text text-anchor="middle" x="4" y="-751.3" font-family="xkcd" font-size="14.00">9</text>
</g>
<!-- 25&#45;&gt;18 -->
<g id="edge58" class="edge"><title>25&#45;&gt;18</title>
<path fill="none" stroke="black" stroke-width="3" d="M242,-1557.92C242,-1551.7 242,-1544.5 242,-1537.6"/>
<polygon fill="black" stroke="black" stroke-width="3" points="245.5,-1537.19 242,-1527.19 238.5,-1537.19 245.5,-1537.19"/>
<text text-anchor="middle" x="254.5" y="-1538.8" font-family="xkcd" font-size="14.00">874</text>
</g>
<!-- 25&#45;&gt;19 -->
<g id="edge54" class="edge"><title>25&#45;&gt;19</title>
<path fill="none" stroke="black" d="M134.994,-1557.97C119.321,-1550.86 105.089,-1540.91 95,-1527 85.6049,-1514.05 85.4518,-1503.84 95,-1491 129.538,-1444.56 271.923,-1412.82 382.482,-1394.64"/>
<polygon fill="black" stroke="black" points="383.091,-1398.09 392.402,-1393.03 381.97,-1391.18 383.091,-1398.09"/>
<text text-anchor="middle" x="126" y="-1471.8" font-family="xkcd" font-size="14.00">9</text>
</g>
<!-- 25&#45;&gt;25 -->
<g id="edge55" class="edge"><title>25&#45;&gt;25</title>
<path fill="none" stroke="black" d="M362.185,-1580.77C373.121,-1579.78 380,-1578.19 380,-1576 380,-1574.6 377.177,-1573.44 372.273,-1572.53"/>
<polygon fill="black" stroke="black" points="372.551,-1569.04 362.185,-1571.23 371.656,-1575.98 372.551,-1569.04"/>
<text text-anchor="middle" x="389.5" y="-1572.3" font-family="xkcd" font-size="14.00">23</text>
</g>
<!-- 26&#45;&gt;0 -->
<g id="edge41" class="edge"><title>26&#45;&gt;0</title>
<path fill="none" stroke="black" stroke-width="3" d="M768.393,-1557.92C744.377,-1549.48 715.221,-1539.24 690.04,-1530.39"/>
<polygon fill="black" stroke="black" stroke-width="3" points="691.198,-1527.09 680.603,-1527.08 688.877,-1533.69 691.198,-1527.09"/>
<text text-anchor="middle" x="754" y="-1538.8" font-family="xkcd" font-size="14.00">1147</text>
</g>
<!-- 26&#45;&gt;1 -->
<g id="edge40" class="edge"><title>26&#45;&gt;1</title>
<path fill="none" stroke="black" d="M811.331,-1557.95C803.996,-1538.63 789.32,-1507.66 766,-1491 740.71,-1472.93 709.888,-1461.46 679.446,-1454.23"/>
<polygon fill="black" stroke="black" points="680.105,-1450.8 669.582,-1452.03 678.581,-1457.63 680.105,-1450.8"/>
<text text-anchor="middle" x="803.5" y="-1505.3" font-family="xkcd" font-size="14.00">15</text>
</g>
<!-- 26&#45;&gt;26 -->
<g id="edge42" class="edge"><title>26&#45;&gt;26</title>
<path fill="none" stroke="black" d="M930.19,-1580.85C941.092,-1579.87 948,-1578.25 948,-1576 948,-1574.56 945.165,-1573.38 940.261,-1572.45"/>
<polygon fill="black" stroke="black" points="940.557,-1568.96 930.19,-1571.15 939.656,-1575.91 940.557,-1568.96"/>
<text text-anchor="middle" x="956.5" y="-1572.3" font-family="xkcd" font-size="14.00">46</text>
</g>
<!-- 27&#45;&gt;6 -->
<g id="edge37" class="edge"><title>27&#45;&gt;6</title>
<path fill="none" stroke="black" d="M521.763,-736.876C540.408,-651.91 622,-278.655 622,-253.5 622,-253.5 622,-253.5 622,-151 622,-133.662 610.305,-119.525 596.616,-108.917"/>
<polygon fill="black" stroke="black" points="598.578,-106.018 588.398,-103.081 594.525,-111.725 598.578,-106.018"/>
<text text-anchor="middle" x="600.5" y="-416.3" font-family="xkcd" font-size="14.00">31</text>
</g>
<!-- 27&#45;&gt;9 -->
<g id="edge39" class="edge"><title>27&#45;&gt;9</title>
<path fill="none" stroke="black" d="M424.34,-737.597C352.227,-724.797 264.266,-708.739 261,-706 242.625,-690.592 242,-679.48 242,-655.5 242,-655.5 242,-655.5 242,-452.5 242,-310.91 154.36,-250.382 235,-134 277.556,-72.5831 305.772,-66.5728 377,-44 412.726,-32.6781 623.453,-25.4185 762.902,-21.7859"/>
<polygon fill="black" stroke="black" points="763.327,-25.2763 773.234,-21.52 763.147,-18.2786 763.327,-25.2763"/>
<text text-anchor="middle" x="246" y="-382.8" font-family="xkcd" font-size="14.00">63</text>
</g>
<!-- 27&#45;&gt;28 -->
<g id="edge36" class="edge"><title>27&#45;&gt;28</title>
<path fill="none" stroke="black" d="M561.256,-736.978C567.263,-734.41 573.319,-731.71 579,-729 590.413,-723.556 602.552,-717.16 613.588,-711.099"/>
<polygon fill="black" stroke="black" points="615.517,-714.032 622.559,-706.115 612.117,-707.913 615.517,-714.032"/>
<text text-anchor="middle" x="616" y="-717.8" font-family="xkcd" font-size="14.00">67</text>
</g>
<!-- 27&#45;&gt;29 -->
<g id="edge38" class="edge"><title>27&#45;&gt;29</title>
<path fill="none" stroke="black" d="M481.742,-736.922C464.605,-728.85 443.961,-719.126 425.759,-710.553"/>
<polygon fill="black" stroke="black" points="427.033,-707.284 416.495,-706.19 424.05,-713.617 427.033,-707.284"/>
<text text-anchor="middle" x="464" y="-717.8" font-family="xkcd" font-size="14.00">1</text>
</g>
<!-- 28&#45;&gt;6 -->
<g id="edge68" class="edge"><title>28&#45;&gt;6</title>
<path fill="none" stroke="black" d="M652,-669.893C652,-656.785 652,-638.25 652,-622 652,-622 652,-622 652,-385.5 652,-326.726 660,-312.274 660,-253.5 660,-253.5 660,-253.5 660,-151 660,-130.268 652.338,-123.763 636,-111 634.944,-110.175 633.862,-109.378 632.755,-108.607"/>
<polygon fill="black" stroke="black" points="634.218,-105.4 623.856,-103.192 630.579,-111.38 634.218,-105.4"/>
<text text-anchor="middle" x="658.5" y="-382.8" font-family="xkcd" font-size="14.00">31</text>
</g>
<!-- 28&#45;&gt;9 -->
<g id="edge69" class="edge"><title>28&#45;&gt;9</title>
<path fill="none" stroke="black" d="M672.847,-669.937C685.018,-657.971 698,-640.802 698,-622 698,-622 698,-622 698,-251.5 698,-184.112 712.862,-163.588 755,-111 778.921,-81.1467 815.055,-57.0098 843.625,-40.9613"/>
<polygon fill="black" stroke="black" points="845.522,-43.9127 852.61,-36.0379 842.158,-37.7739 845.522,-43.9127"/>
<text text-anchor="middle" x="707" y="-349.3" font-family="xkcd" font-size="14.00">36</text>
</g>
<!-- 28&#45;&gt;27 -->
<g id="edge70" class="edge"><title>28&#45;&gt;27</title>
<path fill="none" stroke="black" d="M575.587,-706.055C569.828,-708.385 564.23,-711.021 559,-714 551.831,-718.084 545.002,-723.722 539.046,-729.479"/>
<polygon fill="black" stroke="black" points="536.465,-727.113 532.009,-736.725 541.487,-731.99 536.465,-727.113"/>
<text text-anchor="middle" x="567" y="-717.8" font-family="xkcd" font-size="14.00">95</text>
</g>
<!-- 29&#45;&gt;14 -->
<g id="edge61" class="edge"><title>29&#45;&gt;14</title>
<path fill="none" stroke="black" d="M384.467,-669.922C386.132,-663.553 388.067,-656.156 389.91,-649.108"/>
<polygon fill="black" stroke="black" points="393.36,-649.75 392.504,-639.19 386.588,-647.979 393.36,-649.75"/>
<text text-anchor="middle" x="399" y="-650.8" font-family="xkcd" font-size="14.00">78</text>
</g>
<!-- 30&#45;&gt;6 -->
<g id="edge44" class="edge"><title>30&#45;&gt;6</title>
<path fill="none" stroke="black" d="M498.277,-334.977C515.862,-327.93 532.488,-317.996 545,-304 592.428,-250.946 575.093,-158.358 562.505,-112.832"/>
<polygon fill="black" stroke="black" points="565.828,-111.722 559.683,-103.091 559.104,-113.67 565.828,-111.722"/>
<text text-anchor="middle" x="579" y="-215.3" font-family="xkcd" font-size="14.00">1</text>
</g>
<!-- 30&#45;&gt;22 -->
<g id="edge45" class="edge"><title>30&#45;&gt;22</title>
<path fill="none" stroke="black" d="M393.847,-334.922C392.671,-328.553 391.306,-321.156 390.004,-314.108"/>
<polygon fill="black" stroke="black" points="393.431,-313.388 388.173,-304.19 386.547,-314.659 393.431,-313.388"/>
<text text-anchor="middle" x="401" y="-315.8" font-family="xkcd" font-size="14.00">77</text>
</g>
<!-- 31&#45;&gt;6 -->
<g id="edge66" class="edge"><title>31&#45;&gt;6</title>
<path fill="none" stroke="black" d="M820.438,-133.921C789.098,-126.328 751.275,-117.627 717,-111 705.691,-108.813 693.91,-106.697 682.085,-104.682"/>
<polygon fill="black" stroke="black" points="682.593,-101.218 672.151,-103.014 681.434,-108.121 682.593,-101.218"/>
<text text-anchor="middle" x="786" y="-114.8" font-family="xkcd" font-size="14.00">1</text>
</g>
<!-- 31&#45;&gt;9 -->
<g id="edge67" class="edge"><title>31&#45;&gt;9</title>
<path fill="none" stroke="black" d="M888,-133.743C888,-111.509 888,-72.5994 888,-46.3249"/>
<polygon fill="black" stroke="black" points="891.5,-46.2609 888,-36.2609 884.5,-46.261 891.5,-46.2609"/>
<text text-anchor="middle" x="890" y="-81.3" font-family="xkcd" font-size="14.00">1</text>
</g>
</g>
</svg>
