<?xml version="1.0" encoding="UTF-8" standalone="no"?>
<!DOCTYPE svg PUBLIC "-//W3C//DTD SVG 1.1//EN"
 "http://www.w3.org/Graphics/SVG/1.1/DTD/svg11.dtd">
<!-- Generated by graphviz version 2.38.0 (20140413.2041)
 -->
<!-- Title: g Pages: 1 -->
<svg width="1697pt" height="1585pt"
 viewBox="0.00 0.00 1697.00 1585.00" xmlns="http://www.w3.org/2000/svg" xmlns:xlink="http://www.w3.org/1999/xlink">
<g id="graph0" class="graph" transform="scale(1 1) rotate(0) translate(4 1581)">
<title>g</title>
<polygon fill="white" stroke="none" points="-4,4 -4,-1581 1693,-1581 1693,4 -4,4"/>
<!-- 0 -->
<g id="node1" class="node"><title>0</title>
<path fill="#b3e5fd" stroke="black" d="M830.5,-572C830.5,-572 597.5,-572 597.5,-572 591.5,-572 585.5,-566 585.5,-560 585.5,-560 585.5,-548 585.5,-548 585.5,-542 591.5,-536 597.5,-536 597.5,-536 830.5,-536 830.5,-536 836.5,-536 842.5,-542 842.5,-548 842.5,-548 842.5,-560 842.5,-560 842.5,-566 836.5,-572 830.5,-572"/>
<text text-anchor="middle" x="714" y="-550.3" font-family="xkcd" font-size="14.00">nouv. lect. • assemblee • hemicycle 229</text>
</g>
<!-- 1 -->
<g id="node2" class="node"><title>1</title>
<path fill="#f48fb1" stroke="black" d="M804,-505C804,-505 624,-505 624,-505 618,-505 612,-499 612,-493 612,-493 612,-481 612,-481 612,-475 618,-469 624,-469 624,-469 804,-469 804,-469 810,-469 816,-475 816,-481 816,-481 816,-493 816,-493 816,-499 810,-505 804,-505"/>
<text text-anchor="middle" x="714" y="-483.3" font-family="xkcd" font-size="14.00">nouv. lect. • senat • depot 229</text>
</g>
<!-- 0&#45;&gt;1 -->
<g id="edge1" class="edge"><title>0&#45;&gt;1</title>
<path fill="none" stroke="black" d="M714,-535.922C714,-529.702 714,-522.5 714,-515.6"/>
<polygon fill="black" stroke="black" points="717.5,-515.19 714,-505.19 710.5,-515.19 717.5,-515.19"/>
<text text-anchor="middle" x="727.5" y="-516.8" font-family="xkcd" font-size="14.00">243</text>
</g>
<!-- 9 -->
<g id="node10" class="node"><title>9</title>
<path fill="#f48fb1" stroke="black" d="M836.5,-438C836.5,-438 625.5,-438 625.5,-438 619.5,-438 613.5,-432 613.5,-426 613.5,-426 613.5,-414 613.5,-414 613.5,-408 619.5,-402 625.5,-402 625.5,-402 836.5,-402 836.5,-402 842.5,-402 848.5,-408 848.5,-414 848.5,-414 848.5,-426 848.5,-426 848.5,-432 842.5,-438 836.5,-438"/>
<text text-anchor="middle" x="731" y="-416.3" font-family="xkcd" font-size="14.00">nouv. lect. • senat • commission 221</text>
</g>
<!-- 1&#45;&gt;9 -->
<g id="edge7" class="edge"><title>1&#45;&gt;9</title>
<path fill="none" stroke="black" d="M718.467,-468.922C720.132,-462.553 722.067,-455.156 723.91,-448.108"/>
<polygon fill="black" stroke="black" points="727.36,-448.75 726.504,-438.19 720.588,-446.979 727.36,-448.75"/>
<text text-anchor="middle" x="738.5" y="-449.8" font-family="xkcd" font-size="14.00">235</text>
</g>
<!-- 10 -->
<g id="node11" class="node"><title>10</title>
<path fill="#f48fb1" stroke="black" d="M809.5,-371C809.5,-371 600.5,-371 600.5,-371 594.5,-371 588.5,-365 588.5,-359 588.5,-359 588.5,-347 588.5,-347 588.5,-341 594.5,-335 600.5,-335 600.5,-335 809.5,-335 809.5,-335 815.5,-335 821.5,-341 821.5,-347 821.5,-347 821.5,-359 821.5,-359 821.5,-365 815.5,-371 809.5,-371"/>
<text text-anchor="middle" x="705" y="-349.3" font-family="xkcd" font-size="14.00">nouv. lect. • senat • hemicycle 229</text>
</g>
<!-- 1&#45;&gt;10 -->
<g id="edge8" class="edge"><title>1&#45;&gt;10</title>
<path fill="none" stroke="black" d="M634.284,-468.993C618.807,-461.965 604.471,-452.033 595,-438 586.049,-424.738 586.236,-415.386 595,-402 602.276,-390.887 612.749,-382.332 624.377,-375.75"/>
<polygon fill="black" stroke="black" points="626.158,-378.77 633.459,-371.092 622.964,-372.541 626.158,-378.77"/>
<text text-anchor="middle" x="599.5" y="-416.3" font-family="xkcd" font-size="14.00">8</text>
</g>
<!-- 2 -->
<g id="node3" class="node"><title>2</title>
<path fill="#f48fb1" stroke="black" d="M745,-840C745,-840 575,-840 575,-840 569,-840 563,-834 563,-828 563,-828 563,-816 563,-816 563,-810 569,-804 575,-804 575,-804 745,-804 745,-804 751,-804 757,-810 757,-816 757,-816 757,-828 757,-828 757,-834 751,-840 745,-840"/>
<text text-anchor="middle" x="660" y="-818.3" font-family="xkcd" font-size="14.00">CMP • senat • hemicycle 560</text>
</g>
<!-- 3 -->
<g id="node4" class="node"><title>3</title>
<path fill="#b3e5fd" stroke="black" d="M792,-773C792,-773 598,-773 598,-773 592,-773 586,-767 586,-761 586,-761 586,-749 586,-749 586,-743 592,-737 598,-737 598,-737 792,-737 792,-737 798,-737 804,-743 804,-749 804,-749 804,-761 804,-761 804,-767 798,-773 792,-773"/>
<text text-anchor="middle" x="695" y="-751.3" font-family="xkcd" font-size="14.00">CMP • assemblee • hemicycle 568</text>
</g>
<!-- 2&#45;&gt;3 -->
<g id="edge2" class="edge"><title>2&#45;&gt;3</title>
<path fill="none" stroke="black" d="M653.427,-803.777C652.064,-797.989 651.472,-791.527 655.958,-782.008"/>
<polygon fill="black" stroke="black" points="659.051,-783.652 661.016,-773.241 652.987,-780.154 659.051,-783.652"/>
<text text-anchor="middle" x="665.5" y="-784.8" font-family="xkcd" font-size="14.00">371</text>
</g>
<!-- 4 -->
<g id="node5" class="node"><title>4</title>
<path fill="#f3f3f3" stroke="black" d="M1404.5,-103C1404.5,-103 1093.5,-103 1093.5,-103 1087.5,-103 1081.5,-97 1081.5,-91 1081.5,-91 1081.5,-79 1081.5,-79 1081.5,-73 1087.5,-67 1093.5,-67 1093.5,-67 1404.5,-67 1404.5,-67 1410.5,-67 1416.5,-73 1416.5,-79 1416.5,-79 1416.5,-91 1416.5,-91 1416.5,-97 1410.5,-103 1404.5,-103"/>
<text text-anchor="middle" x="1249" y="-81.3" font-family="xkcd" font-size="14.00">constitutionnalité • conseil constitutionnel • &#160;469</text>
</g>
<!-- 2&#45;&gt;4 -->
<g id="edge3" class="edge"><title>2&#45;&gt;4</title>
<path fill="none" stroke="black" d="M757.281,-805.131C780.161,-801.209 799.529,-797.655 805,-796 882.229,-772.635 971,-803.186 971,-722.5 971,-722.5 971,-722.5 971,-184.5 971,-160.52 971.614,-149.395 990,-134 1004.99,-121.448 1038.86,-111.927 1077.32,-104.811"/>
<polygon fill="black" stroke="black" points="1077.96,-108.252 1087.19,-103.053 1076.74,-101.361 1077.96,-108.252"/>
<text text-anchor="middle" x="979" y="-449.8" font-family="xkcd" font-size="14.00">79</text>
</g>
<!-- 5 -->
<g id="node6" class="node"><title>5</title>
<path fill="#b3e5fd" stroke="black" d="M886.5,-706C886.5,-706 681.5,-706 681.5,-706 675.5,-706 669.5,-700 669.5,-694 669.5,-694 669.5,-682 669.5,-682 669.5,-676 675.5,-670 681.5,-670 681.5,-670 886.5,-670 886.5,-670 892.5,-670 898.5,-676 898.5,-682 898.5,-682 898.5,-694 898.5,-694 898.5,-700 892.5,-706 886.5,-706"/>
<text text-anchor="middle" x="784" y="-684.3" font-family="xkcd" font-size="14.00">nouv. lect. • assemblee • depot 229</text>
</g>
<!-- 2&#45;&gt;5 -->
<g id="edge4" class="edge"><title>2&#45;&gt;5</title>
<path fill="none" stroke="black" d="M744.106,-803.903C774.682,-795.843 803.979,-785.285 813,-773 825.675,-755.739 816.08,-732.501 804.638,-714.842"/>
<polygon fill="black" stroke="black" points="807.186,-712.377 798.594,-706.178 801.444,-716.382 807.186,-712.377"/>
<text text-anchor="middle" x="825" y="-751.3" font-family="xkcd" font-size="14.00">2</text>
</g>
<!-- 6 -->
<g id="node7" class="node"><title>6</title>
<path fill="#f3f3f3" stroke="black" stroke-width="5" d="M576.5,-36C576.5,-36 355.5,-36 355.5,-36 349.5,-36 343.5,-30 343.5,-24 343.5,-24 343.5,-12 343.5,-12 343.5,-6 349.5,-0 355.5,-0 355.5,-0 576.5,-0 576.5,-0 582.5,-0 588.5,-6 588.5,-12 588.5,-12 588.5,-24 588.5,-24 588.5,-30 582.5,-36 576.5,-36"/>
<text text-anchor="middle" x="466" y="-14.3" font-family="xkcd" font-size="14.00">promulgation • gouvernement • &#160;2941</text>
</g>
<!-- 2&#45;&gt;6 -->
<g id="edge5" class="edge"><title>2&#45;&gt;6</title>
<path fill="none" stroke="black" d="M577.476,-803.905C534.99,-792.645 492,-776.25 492,-756 492,-756 492,-756 492,-586.5 492,-541.52 449.518,-546.428 432,-505 387.865,-400.622 390,-366.826 390,-253.5 390,-253.5 390,-253.5 390,-84 390,-65.9815 402.49,-51.8898 417.344,-41.5023"/>
<polygon fill="black" stroke="black" points="419.235,-44.4472 425.775,-36.1112 415.464,-38.5499 419.235,-44.4472"/>
<text text-anchor="middle" x="415.5" y="-416.3" font-family="xkcd" font-size="14.00">121</text>
</g>
<!-- 3&#45;&gt;2 -->
<g id="edge62" class="edge"><title>3&#45;&gt;2</title>
<path fill="none" stroke="black" d="M687.33,-773.369C684.732,-778.984 681.687,-785.307 676.234,-795.203"/>
<polygon fill="black" stroke="black" points="673.161,-793.527 671.307,-803.959 679.261,-796.96 673.161,-793.527"/>
<text text-anchor="middle" x="698" y="-784.8" font-family="xkcd" font-size="14.00">202</text>
</g>
<!-- 3&#45;&gt;4 -->
<g id="edge64" class="edge"><title>3&#45;&gt;4</title>
<path fill="none" stroke="black" d="M788.783,-736.942C841.047,-726.704 897.505,-714.131 907,-706 925.336,-690.298 927,-679.641 927,-655.5 927,-655.5 927,-655.5 927,-452.5 927,-364.015 933,-341.985 933,-253.5 933,-253.5 933,-253.5 933,-151 933,-127.082 947.606,-121.693 969,-111 988.339,-101.334 1027.83,-95.3639 1071.21,-91.6895"/>
<polygon fill="black" stroke="black" points="1071.72,-95.1599 1081.41,-90.872 1071.16,-88.1823 1071.72,-95.1599"/>
<text text-anchor="middle" x="936" y="-416.3" font-family="xkcd" font-size="14.00">115</text>
</g>
<!-- 3&#45;&gt;5 -->
<g id="edge63" class="edge"><title>3&#45;&gt;5</title>
<path fill="none" stroke="black" d="M718.384,-736.922C728.726,-729.369 741.049,-720.368 752.209,-712.218"/>
<polygon fill="black" stroke="black" points="754.452,-714.914 760.463,-706.19 750.324,-709.261 754.452,-714.914"/>
<text text-anchor="middle" x="757.5" y="-717.8" font-family="xkcd" font-size="14.00">20</text>
</g>
<!-- 3&#45;&gt;6 -->
<g id="edge61" class="edge"><title>3&#45;&gt;6</title>
<path fill="none" stroke="black" d="M585.861,-745.305C555.177,-736.442 530,-719.788 530,-689 530,-689 530,-689 530,-586.5 530,-490.249 496.393,-470.968 468,-379 450.73,-323.063 428,-312.042 428,-253.5 428,-253.5 428,-253.5 428,-84 428,-69.6253 435.012,-55.6061 443.012,-44.2895"/>
<polygon fill="black" stroke="black" points="445.908,-46.2646 449.222,-36.2013 440.356,-42.0015 445.908,-46.2646"/>
<text text-anchor="middle" x="486" y="-382.8" font-family="xkcd" font-size="14.00">244</text>
</g>
<!-- 4&#45;&gt;6 -->
<g id="edge90" class="edge"><title>4&#45;&gt;6</title>
<path fill="none" stroke="black" stroke-width="2" d="M1147.32,-66.9801C1095.07,-58.8275 1030.28,-49.6349 972,-44 845.654,-31.7837 700.95,-25.3959 598.741,-22.1475"/>
<polygon fill="black" stroke="black" stroke-width="2" points="598.778,-18.6471 588.674,-21.8334 598.56,-25.6437 598.778,-18.6471"/>
<text text-anchor="middle" x="1106.5" y="-47.8" font-family="xkcd" font-size="14.00">474</text>
</g>
<!-- 32 -->
<g id="node33" class="node"><title>32</title>
<path fill="#f3f3f3" stroke="black" d="M1566,-36C1566,-36 1444,-36 1444,-36 1438,-36 1432,-30 1432,-24 1432,-24 1432,-12 1432,-12 1432,-6 1438,-0 1444,-0 1444,-0 1566,-0 1566,-0 1572,-0 1578,-6 1578,-12 1578,-12 1578,-24 1578,-24 1578,-30 1572,-36 1566,-36"/>
<text text-anchor="middle" x="1505" y="-14.3" font-family="xkcd" font-size="14.00">None • nouv. délib. • &#160;1</text>
</g>
<!-- 4&#45;&gt;32 -->
<g id="edge89" class="edge"><title>4&#45;&gt;32</title>
<path fill="none" stroke="black" d="M1316.26,-66.922C1350.52,-58.2235 1392.34,-47.6062 1427.89,-38.578"/>
<polygon fill="black" stroke="black" points="1428.91,-41.9301 1437.74,-36.0767 1427.19,-35.1453 1428.91,-41.9301"/>
<text text-anchor="middle" x="1401" y="-47.8" font-family="xkcd" font-size="14.00">1</text>
</g>
<!-- 5&#45;&gt;0 -->
<g id="edge10" class="edge"><title>5&#45;&gt;0</title>
<path fill="none" stroke="black" d="M816.181,-669.886C827.447,-662.09 838.819,-651.728 845,-639 851.989,-624.607 854.163,-616.116 845,-603 837.131,-591.735 826.316,-583.106 814.247,-576.498"/>
<polygon fill="black" stroke="black" points="815.775,-573.349 805.262,-572.034 812.661,-579.618 815.775,-573.349"/>
<text text-anchor="middle" x="854" y="-617.3" font-family="xkcd" font-size="14.00">1</text>
</g>
<!-- 11 -->
<g id="node12" class="node"><title>11</title>
<path fill="#b3e5fd" stroke="black" d="M824,-639C824,-639 584,-639 584,-639 578,-639 572,-633 572,-627 572,-627 572,-615 572,-615 572,-609 578,-603 584,-603 584,-603 824,-603 824,-603 830,-603 836,-609 836,-615 836,-615 836,-627 836,-627 836,-633 830,-639 824,-639"/>
<text text-anchor="middle" x="704" y="-617.3" font-family="xkcd" font-size="14.00">nouv. lect. • assemblee • commission 228</text>
</g>
<!-- 5&#45;&gt;11 -->
<g id="edge11" class="edge"><title>5&#45;&gt;11</title>
<path fill="none" stroke="black" d="M762.981,-669.922C753.867,-662.517 743.041,-653.721 733.168,-645.699"/>
<polygon fill="black" stroke="black" points="735.125,-642.779 725.156,-639.19 730.711,-648.212 735.125,-642.779"/>
<text text-anchor="middle" x="765.5" y="-650.8" font-family="xkcd" font-size="14.00">242</text>
</g>
<!-- 7 -->
<g id="node8" class="node"><title>7</title>
<path fill="#f48fb1" stroke="black" d="M1364.5,-840C1364.5,-840 1143.5,-840 1143.5,-840 1137.5,-840 1131.5,-834 1131.5,-828 1131.5,-828 1131.5,-816 1131.5,-816 1131.5,-810 1137.5,-804 1143.5,-804 1143.5,-804 1364.5,-804 1364.5,-804 1370.5,-804 1376.5,-810 1376.5,-816 1376.5,-816 1376.5,-828 1376.5,-828 1376.5,-834 1370.5,-840 1364.5,-840"/>
<text text-anchor="middle" x="1254" y="-818.3" font-family="xkcd" font-size="14.00">3ème lecture • senat • commission 19</text>
</g>
<!-- 8 -->
<g id="node9" class="node"><title>8</title>
<path fill="#f48fb1" stroke="black" d="M1525,-1175C1525,-1175 1303,-1175 1303,-1175 1297,-1175 1291,-1169 1291,-1163 1291,-1163 1291,-1151 1291,-1151 1291,-1145 1297,-1139 1303,-1139 1303,-1139 1525,-1139 1525,-1139 1531,-1139 1537,-1145 1537,-1151 1537,-1151 1537,-1163 1537,-1163 1537,-1169 1531,-1175 1525,-1175"/>
<text text-anchor="middle" x="1414" y="-1153.3" font-family="xkcd" font-size="14.00">3ème lecture • senat • hemicycle 20</text>
</g>
<!-- 7&#45;&gt;8 -->
<g id="edge6" class="edge"><title>7&#45;&gt;8</title>
<path fill="none" stroke="black" d="M1304.89,-840.122C1320.52,-847.513 1336.59,-857.611 1348,-871 1408.89,-942.462 1390.11,-980.945 1413,-1072 1418.77,-1094.96 1423.5,-1103.08 1420.74,-1128.96"/>
<polygon fill="black" stroke="black" points="1417.27,-1128.55 1419.45,-1138.92 1424.21,-1129.45 1417.27,-1128.55"/>
<text text-anchor="middle" x="1408.5" y="-985.8" font-family="xkcd" font-size="14.00">22</text>
</g>
<!-- 8&#45;&gt;4 -->
<g id="edge21" class="edge"><title>8&#45;&gt;4</title>
<path fill="none" stroke="black" d="M1447.89,-1138.8C1464.51,-1127.74 1481,-1111.58 1481,-1091 1481,-1091 1481,-1091 1481,-151 1481,-128.233 1468.87,-122.118 1449,-111 1443.62,-107.988 1435.93,-105.332 1426.66,-102.99"/>
<polygon fill="black" stroke="black" points="1427.43,-99.5755 1416.9,-100.751 1425.87,-106.398 1427.43,-99.5755"/>
<text text-anchor="middle" x="1485.5" y="-617.3" font-family="xkcd" font-size="14.00">4</text>
</g>
<!-- 8&#45;&gt;6 -->
<g id="edge23" class="edge"><title>8&#45;&gt;6</title>
<path fill="none" stroke="black" d="M1479.3,-1138.89C1500.66,-1129.06 1519,-1113.94 1519,-1091 1519,-1091 1519,-1091 1519,-452.5 1519,-362.457 1557,-343.543 1557,-253.5 1557,-253.5 1557,-253.5 1557,-84 1557,-15.0037 1475.29,-53.8726 1407,-44 1255.17,-22.0491 819.95,-18.8486 598.647,-18.7025"/>
<polygon fill="black" stroke="black" points="598.599,-15.2025 588.597,-18.6978 598.595,-22.2025 598.599,-15.2025"/>
<text text-anchor="middle" x="1525.5" y="-583.8" font-family="xkcd" font-size="14.00">14</text>
</g>
<!-- 13 -->
<g id="node14" class="node"><title>13</title>
<path fill="#f3f3f3" stroke="black" stroke-width="2" d="M598.5,-907C598.5,-907 435.5,-907 435.5,-907 429.5,-907 423.5,-901 423.5,-895 423.5,-895 423.5,-883 423.5,-883 423.5,-877 429.5,-871 435.5,-871 435.5,-871 598.5,-871 598.5,-871 604.5,-871 610.5,-877 610.5,-883 610.5,-883 610.5,-895 610.5,-895 610.5,-901 604.5,-907 598.5,-907"/>
<text text-anchor="middle" x="517" y="-885.3" font-family="xkcd" font-size="14.00">CMP • CMP • commission 777</text>
</g>
<!-- 8&#45;&gt;13 -->
<g id="edge22" class="edge"><title>8&#45;&gt;13</title>
<path fill="none" stroke="black" d="M1290.88,-1154.71C1170.26,-1151.48 996.322,-1141.01 938,-1108 905.665,-1089.7 904.271,-1074.4 888,-1041 867.226,-998.351 895.596,-969.359 860,-938 850.958,-930.034 718.71,-913.219 621.125,-901.764"/>
<polygon fill="black" stroke="black" points="621.24,-898.254 610.901,-900.568 620.427,-905.206 621.24,-898.254"/>
<text text-anchor="middle" x="890" y="-1019.3" font-family="xkcd" font-size="14.00">1</text>
</g>
<!-- 20 -->
<g id="node21" class="node"><title>20</title>
<path fill="#b3e5fd" stroke="black" d="M1177,-1108C1177,-1108 959,-1108 959,-1108 953,-1108 947,-1102 947,-1096 947,-1096 947,-1084 947,-1084 947,-1078 953,-1072 959,-1072 959,-1072 1177,-1072 1177,-1072 1183,-1072 1189,-1078 1189,-1084 1189,-1084 1189,-1096 1189,-1096 1189,-1102 1183,-1108 1177,-1108"/>
<text text-anchor="middle" x="1068" y="-1086.3" font-family="xkcd" font-size="14.00">3ème lecture • assemblee • depot 28</text>
</g>
<!-- 8&#45;&gt;20 -->
<g id="edge24" class="edge"><title>8&#45;&gt;20</title>
<path fill="none" stroke="black" d="M1313.32,-1138.98C1298.45,-1136.37 1283.32,-1133.66 1269,-1131 1233.66,-1124.44 1194.91,-1116.83 1160.94,-1110.01"/>
<polygon fill="black" stroke="black" points="1161.53,-1106.56 1151.03,-1108.02 1160.15,-1113.42 1161.53,-1106.56"/>
<text text-anchor="middle" x="1274" y="-1119.8" font-family="xkcd" font-size="14.00">3</text>
</g>
<!-- 21 -->
<g id="node22" class="node"><title>21</title>
<path fill="#f3f3f3" stroke="black" d="M1052.5,-907C1052.5,-907 867.5,-907 867.5,-907 861.5,-907 855.5,-901 855.5,-895 855.5,-895 855.5,-883 855.5,-883 855.5,-877 861.5,-871 867.5,-871 867.5,-871 1052.5,-871 1052.5,-871 1058.5,-871 1064.5,-877 1064.5,-883 1064.5,-883 1064.5,-895 1064.5,-895 1064.5,-901 1058.5,-907 1052.5,-907"/>
<text text-anchor="middle" x="960" y="-885.3" font-family="xkcd" font-size="14.00">congrès • congrés • congrès 18</text>
</g>
<!-- 8&#45;&gt;21 -->
<g id="edge25" class="edge"><title>8&#45;&gt;21</title>
<path fill="none" stroke="black" d="M1404.88,-1138.71C1382.36,-1097.66 1320.01,-993.638 1239,-938 1211.31,-918.982 1199.82,-922.157 1167,-915 1157.22,-912.867 1117.23,-907.909 1074.98,-902.965"/>
<polygon fill="black" stroke="black" points="1075.12,-899.459 1064.78,-901.778 1074.31,-906.412 1075.12,-899.459"/>
<text text-anchor="middle" x="1343" y="-1019.3" font-family="xkcd" font-size="14.00">1</text>
</g>
<!-- 9&#45;&gt;10 -->
<g id="edge19" class="edge"><title>9&#45;&gt;10</title>
<path fill="none" stroke="black" d="M724.169,-401.922C721.562,-395.405 718.525,-387.812 715.647,-380.616"/>
<polygon fill="black" stroke="black" points="718.839,-379.174 711.876,-371.19 712.34,-381.774 718.839,-379.174"/>
<text text-anchor="middle" x="734.5" y="-382.8" font-family="xkcd" font-size="14.00">235</text>
</g>
<!-- 10&#45;&gt;4 -->
<g id="edge82" class="edge"><title>10&#45;&gt;4</title>
<path fill="none" stroke="black" d="M805.564,-334.958C851.138,-324.284 895,-308.441 895,-287 895,-287 895,-287 895,-151 895,-130.268 901.358,-121.889 919,-111 933.009,-102.353 1000.62,-96.4376 1071.03,-92.5411"/>
<polygon fill="black" stroke="black" points="1071.63,-96.0137 1081.43,-91.9808 1071.26,-89.0238 1071.63,-96.0137"/>
<text text-anchor="middle" x="900" y="-215.3" font-family="xkcd" font-size="14.00">2</text>
</g>
<!-- 10&#45;&gt;6 -->
<g id="edge83" class="edge"><title>10&#45;&gt;6</title>
<path fill="none" stroke="black" d="M633.292,-334.915C562.893,-313.367 466,-268.766 466,-186.5 466,-186.5 466,-186.5 466,-84 466,-71.5586 466,-57.7777 466,-46.1185"/>
<polygon fill="black" stroke="black" points="469.5,-46.1069 466,-36.1069 462.5,-46.107 469.5,-46.1069"/>
<text text-anchor="middle" x="471.5" y="-181.8" font-family="xkcd" font-size="14.00">4</text>
</g>
<!-- 25 -->
<g id="node26" class="node"><title>25</title>
<path fill="#b3e5fd" stroke="black" d="M812,-304C812,-304 598,-304 598,-304 592,-304 586,-298 586,-292 586,-292 586,-280 586,-280 586,-274 592,-268 598,-268 598,-268 812,-268 812,-268 818,-268 824,-274 824,-280 824,-280 824,-292 824,-292 824,-298 818,-304 812,-304"/>
<text text-anchor="middle" x="705" y="-282.3" font-family="xkcd" font-size="14.00">l. définitive • assemblee • depot 223</text>
</g>
<!-- 10&#45;&gt;25 -->
<g id="edge84" class="edge"><title>10&#45;&gt;25</title>
<path fill="none" stroke="black" d="M705,-334.922C705,-328.702 705,-321.5 705,-314.6"/>
<polygon fill="black" stroke="black" points="708.5,-314.19 705,-304.19 701.5,-314.19 708.5,-314.19"/>
<text text-anchor="middle" x="718" y="-315.8" font-family="xkcd" font-size="14.00">237</text>
</g>
<!-- 11&#45;&gt;0 -->
<g id="edge9" class="edge"><title>11&#45;&gt;0</title>
<path fill="none" stroke="black" d="M706.627,-602.922C707.607,-596.553 708.745,-589.156 709.83,-582.108"/>
<polygon fill="black" stroke="black" points="713.294,-582.606 711.355,-572.19 706.375,-581.541 713.294,-582.606"/>
<text text-anchor="middle" x="723.5" y="-583.8" font-family="xkcd" font-size="14.00">242</text>
</g>
<!-- 12 -->
<g id="node13" class="node"><title>12</title>
<path fill="#b3e5fd" stroke="black" stroke-width="6" d="M294,-1376C294,-1376 40,-1376 40,-1376 34,-1376 28,-1370 28,-1364 28,-1364 28,-1352 28,-1352 28,-1346 34,-1340 40,-1340 40,-1340 294,-1340 294,-1340 300,-1340 306,-1346 306,-1352 306,-1352 306,-1364 306,-1364 306,-1370 300,-1376 294,-1376"/>
<text text-anchor="middle" x="167" y="-1354.3" font-family="xkcd" font-size="14.00">1ère lecture • assemblee • hemicycle 3098</text>
</g>
<!-- 12&#45;&gt;4 -->
<g id="edge14" class="edge"><title>12&#45;&gt;4</title>
<path fill="none" stroke="black" d="M306.019,-1340.77C309.039,-1340.5 312.036,-1340.25 315,-1340 367.555,-1335.66 1263,-1344.73 1263,-1292 1263,-1292 1263,-1292 1263,-1189.5 1263,-1078.53 1383.75,-1101.17 1422,-997 1484.61,-826.483 1435,-770.147 1435,-588.5 1435,-588.5 1435,-588.5 1435,-151 1435,-123.57 1412.8,-122.721 1388,-111 1384.64,-109.414 1381.2,-107.927 1377.69,-106.535"/>
<polygon fill="black" stroke="black" points="1378.84,-103.231 1368.25,-103.065 1376.42,-109.801 1378.84,-103.231"/>
<text text-anchor="middle" x="1453" y="-717.8" font-family="xkcd" font-size="14.00">34</text>
</g>
<!-- 12&#45;&gt;6 -->
<g id="edge16" class="edge"><title>12&#45;&gt;6</title>
<path fill="none" stroke="black" stroke-width="3" d="M150.222,-1339.8C140.042,-1327.52 129,-1310.04 129,-1292 129,-1292 129,-1292 129,-84 129,-40.4509 238.873,-25.4421 333.145,-20.5795"/>
<polygon fill="black" stroke="black" stroke-width="3" points="333.562,-24.0636 343.382,-20.0874 333.225,-17.0716 333.562,-24.0636"/>
<text text-anchor="middle" x="141.5" y="-684.3" font-family="xkcd" font-size="14.00">873</text>
</g>
<!-- 12&#45;&gt;13 -->
<g id="edge12" class="edge"><title>12&#45;&gt;13</title>
<path fill="none" stroke="black" d="M167,-1339.89C167,-1326.79 167,-1308.25 167,-1292 167,-1292 167,-1292 167,-988.5 167,-923.284 232.057,-935.4 294,-915 331.874,-902.527 375.11,-896.032 413.366,-892.728"/>
<polygon fill="black" stroke="black" points="413.807,-896.204 423.495,-891.916 413.248,-889.226 413.807,-896.204"/>
<text text-anchor="middle" x="178" y="-1119.8" font-family="xkcd" font-size="14.00">132</text>
</g>
<!-- 14 -->
<g id="node15" class="node"><title>14</title>
<path fill="#f48fb1" stroke="black" d="M695.5,-1309C695.5,-1309 494.5,-1309 494.5,-1309 488.5,-1309 482.5,-1303 482.5,-1297 482.5,-1297 482.5,-1285 482.5,-1285 482.5,-1279 488.5,-1273 494.5,-1273 494.5,-1273 695.5,-1273 695.5,-1273 701.5,-1273 707.5,-1279 707.5,-1285 707.5,-1285 707.5,-1297 707.5,-1297 707.5,-1303 701.5,-1309 695.5,-1309"/>
<text text-anchor="middle" x="595" y="-1287.3" font-family="xkcd" font-size="14.00">2ème lecture • senat • depot 506</text>
</g>
<!-- 12&#45;&gt;14 -->
<g id="edge13" class="edge"><title>12&#45;&gt;14</title>
<path fill="none" stroke="black" d="M279.172,-1339.96C338.648,-1330.93 411.806,-1319.82 472.73,-1310.57"/>
<polygon fill="black" stroke="black" points="473.426,-1314 482.787,-1309.04 472.375,-1307.08 473.426,-1314"/>
<text text-anchor="middle" x="433.5" y="-1320.8" font-family="xkcd" font-size="14.00">308</text>
</g>
<!-- 15 -->
<g id="node16" class="node"><title>15</title>
<path fill="#b3e5fd" stroke="black" stroke-width="6" d="M699.5,-1577C699.5,-1577 476.5,-1577 476.5,-1577 470.5,-1577 464.5,-1571 464.5,-1565 464.5,-1565 464.5,-1553 464.5,-1553 464.5,-1547 470.5,-1541 476.5,-1541 476.5,-1541 699.5,-1541 699.5,-1541 705.5,-1541 711.5,-1547 711.5,-1553 711.5,-1553 711.5,-1565 711.5,-1565 711.5,-1571 705.5,-1577 699.5,-1577"/>
<text text-anchor="middle" x="588" y="-1555.3" font-family="xkcd" font-size="14.00">1ère lecture • assemblee • depot 3321</text>
</g>
<!-- 12&#45;&gt;15 -->
<g id="edge15" class="edge"><title>12&#45;&gt;15</title>
<path fill="none" stroke="black" d="M306.094,-1374.56C314.34,-1377.25 322.373,-1380.37 330,-1384 415.715,-1424.77 400.576,-1485.93 483,-1533 485.359,-1534.35 487.789,-1535.62 490.272,-1536.83"/>
<polygon fill="black" stroke="black" points="488.911,-1540.05 499.472,-1540.9 491.746,-1533.65 488.911,-1540.05"/>
<text text-anchor="middle" x="417" y="-1454.8" font-family="xkcd" font-size="14.00">1</text>
</g>
<!-- 16 -->
<g id="node17" class="node"><title>16</title>
<path fill="#f48fb1" stroke="black" stroke-width="12" d="M423,-1577C423,-1577 223,-1577 223,-1577 217,-1577 211,-1571 211,-1565 211,-1565 211,-1553 211,-1553 211,-1547 217,-1541 223,-1541 223,-1541 423,-1541 423,-1541 429,-1541 435,-1547 435,-1553 435,-1553 435,-1565 435,-1565 435,-1571 429,-1577 423,-1577"/>
<text text-anchor="middle" x="323" y="-1555.3" font-family="xkcd" font-size="14.00">1ère lecture • senat • depot 6874</text>
</g>
<!-- 12&#45;&gt;16 -->
<g id="edge17" class="edge"><title>12&#45;&gt;16</title>
<path fill="none" stroke="black" stroke-width="5" d="M127.817,-1376.19C70.8327,-1403.5 -23.6004,-1458.95 20,-1510 43.455,-1537.46 127.097,-1549.3 200.573,-1554.36"/>
<polygon fill="black" stroke="black" stroke-width="5" points="200.603,-1558.74 210.866,-1555.03 201.172,-1550.01 200.603,-1558.74"/>
<text text-anchor="middle" x="34.5" y="-1454.8" font-family="xkcd" font-size="14.00">1854</text>
</g>
<!-- 17 -->
<g id="node18" class="node"><title>17</title>
<path fill="#f48fb1" stroke="black" stroke-width="6" d="M736.5,-1443C736.5,-1443 505.5,-1443 505.5,-1443 499.5,-1443 493.5,-1437 493.5,-1431 493.5,-1431 493.5,-1419 493.5,-1419 493.5,-1413 499.5,-1407 505.5,-1407 505.5,-1407 736.5,-1407 736.5,-1407 742.5,-1407 748.5,-1413 748.5,-1419 748.5,-1419 748.5,-1431 748.5,-1431 748.5,-1437 742.5,-1443 736.5,-1443"/>
<text text-anchor="middle" x="621" y="-1421.3" font-family="xkcd" font-size="14.00">1ère lecture • senat • hemicycle 3402</text>
</g>
<!-- 12&#45;&gt;17 -->
<g id="edge18" class="edge"><title>12&#45;&gt;17</title>
<path fill="none" stroke="black" d="M306.027,-1375.14C309.045,-1375.43 312.039,-1375.72 315,-1376 363.361,-1380.55 376.256,-1375.06 424,-1384 446.386,-1388.19 450.836,-1393.76 473,-1399 481.846,-1401.09 491.029,-1403.08 500.293,-1404.95"/>
<polygon fill="black" stroke="black" points="499.878,-1408.43 510.366,-1406.93 501.23,-1401.56 499.878,-1408.43"/>
<text text-anchor="middle" x="475" y="-1387.8" font-family="xkcd" font-size="14.00">1</text>
</g>
<!-- 13&#45;&gt;2 -->
<g id="edge27" class="edge"><title>13&#45;&gt;2</title>
<path fill="none" stroke="black" d="M554.572,-870.922C572.411,-862.813 593.918,-853.037 612.843,-844.435"/>
<polygon fill="black" stroke="black" points="614.528,-847.514 622.183,-840.19 611.631,-841.141 614.528,-847.514"/>
<text text-anchor="middle" x="612.5" y="-851.8" font-family="xkcd" font-size="14.00">371</text>
</g>
<!-- 13&#45;&gt;3 -->
<g id="edge26" class="edge"><title>13&#45;&gt;3</title>
<path fill="none" stroke="black" d="M513.691,-870.718C511.172,-852.05 510.402,-822.503 526,-804 539.177,-788.368 557.041,-777.631 576.233,-770.298"/>
<polygon fill="black" stroke="black" points="577.466,-773.575 585.746,-766.965 575.151,-766.968 577.466,-773.575"/>
<text text-anchor="middle" x="540" y="-818.3" font-family="xkcd" font-size="14.00">202</text>
</g>
<!-- 13&#45;&gt;5 -->
<g id="edge28" class="edge"><title>13&#45;&gt;5</title>
<path fill="none" stroke="black" d="M610.667,-884.144C731.187,-878.203 927.787,-864.812 950,-840 995.202,-789.51 902.337,-737.919 838.162,-710.034"/>
<polygon fill="black" stroke="black" points="839.493,-706.796 828.922,-706.094 836.748,-713.236 839.493,-706.796"/>
<text text-anchor="middle" x="970" y="-784.8" font-family="xkcd" font-size="14.00">221</text>
</g>
<!-- 22 -->
<g id="node23" class="node"><title>22</title>
<path fill="#f3f3f3" stroke="black" d="M929.5,-840C929.5,-840 786.5,-840 786.5,-840 780.5,-840 774.5,-834 774.5,-828 774.5,-828 774.5,-816 774.5,-816 774.5,-810 780.5,-804 786.5,-804 786.5,-804 929.5,-804 929.5,-804 935.5,-804 941.5,-810 941.5,-816 941.5,-816 941.5,-828 941.5,-828 941.5,-834 935.5,-840 929.5,-840"/>
<text text-anchor="middle" x="858" y="-818.3" font-family="xkcd" font-size="14.00">CMP • CMP • hemicycle 8</text>
</g>
<!-- 13&#45;&gt;22 -->
<g id="edge29" class="edge"><title>13&#45;&gt;22</title>
<path fill="none" stroke="black" d="M606.594,-870.922C655.146,-861.667 715.094,-850.24 764.272,-840.866"/>
<polygon fill="black" stroke="black" points="765.107,-844.27 774.275,-838.959 763.796,-837.394 765.107,-844.27"/>
<text text-anchor="middle" x="723.5" y="-851.8" font-family="xkcd" font-size="14.00">8</text>
</g>
<!-- 29 -->
<g id="node30" class="node"><title>29</title>
<path fill="#f48fb1" stroke="black" d="M764.5,-1242C764.5,-1242 529.5,-1242 529.5,-1242 523.5,-1242 517.5,-1236 517.5,-1230 517.5,-1230 517.5,-1218 517.5,-1218 517.5,-1212 523.5,-1206 529.5,-1206 529.5,-1206 764.5,-1206 764.5,-1206 770.5,-1206 776.5,-1212 776.5,-1218 776.5,-1218 776.5,-1230 776.5,-1230 776.5,-1236 770.5,-1242 764.5,-1242"/>
<text text-anchor="middle" x="647" y="-1220.3" font-family="xkcd" font-size="14.00">2ème lecture • senat • commission 488</text>
</g>
<!-- 14&#45;&gt;29 -->
<g id="edge86" class="edge"><title>14&#45;&gt;29</title>
<path fill="none" stroke="black" stroke-width="2" d="M608.662,-1272.92C614.231,-1265.96 620.783,-1257.77 626.88,-1250.15"/>
<polygon fill="black" stroke="black" stroke-width="2" points="629.734,-1252.18 633.248,-1242.19 624.268,-1247.81 629.734,-1252.18"/>
<text text-anchor="middle" x="638" y="-1253.8" font-family="xkcd" font-size="14.00">497</text>
</g>
<!-- 30 -->
<g id="node31" class="node"><title>30</title>
<path fill="#f48fb1" stroke="black" d="M761.5,-1175C761.5,-1175 532.5,-1175 532.5,-1175 526.5,-1175 520.5,-1169 520.5,-1163 520.5,-1163 520.5,-1151 520.5,-1151 520.5,-1145 526.5,-1139 532.5,-1139 532.5,-1139 761.5,-1139 761.5,-1139 767.5,-1139 773.5,-1145 773.5,-1151 773.5,-1151 773.5,-1163 773.5,-1163 773.5,-1169 767.5,-1175 761.5,-1175"/>
<text text-anchor="middle" x="647" y="-1153.3" font-family="xkcd" font-size="14.00">2ème lecture • senat • hemicycle 493</text>
</g>
<!-- 14&#45;&gt;30 -->
<g id="edge85" class="edge"><title>14&#45;&gt;30</title>
<path fill="none" stroke="black" d="M535.869,-1272.89C521.34,-1265.75 507.523,-1255.79 499,-1242 490.588,-1228.39 489.592,-1218.94 499,-1206 507.116,-1194.84 517.888,-1186.22 529.933,-1179.57"/>
<polygon fill="black" stroke="black" points="531.538,-1182.68 538.909,-1175.07 528.401,-1176.42 531.538,-1182.68"/>
<text text-anchor="middle" x="503.5" y="-1220.3" font-family="xkcd" font-size="14.00">6</text>
</g>
<!-- 15&#45;&gt;6 -->
<g id="edge99" class="edge"><title>15&#45;&gt;6</title>
<path fill="none" stroke="black" d="M711.553,-1556.72C990.906,-1553.02 1647,-1539.4 1647,-1493 1647,-1493 1647,-1493 1647,-84 1647,-53.9979 1601.92,-53.1558 1540,-44 1449.43,-30.6084 865.983,-23.0523 599.005,-20.2582"/>
<polygon fill="black" stroke="black" points="598.901,-16.757 588.865,-20.1528 598.828,-23.7567 598.901,-16.757"/>
<text text-anchor="middle" x="1651" y="-784.8" font-family="xkcd" font-size="14.00">9</text>
</g>
<!-- 15&#45;&gt;12 -->
<g id="edge96" class="edge"><title>15&#45;&gt;12</title>
<path fill="none" stroke="black" d="M483.62,-1540.92C474.86,-1538.59 466.217,-1535.96 458,-1533 437.975,-1525.79 432.422,-1523.54 416,-1510 389.697,-1488.32 394.044,-1471.75 367,-1451 325.505,-1419.16 271.226,-1395.08 229.686,-1379.55"/>
<polygon fill="black" stroke="black" points="230.816,-1376.24 220.222,-1376.08 228.405,-1382.81 230.816,-1376.24"/>
<text text-anchor="middle" x="389.5" y="-1454.8" font-family="xkcd" font-size="14.00">12</text>
</g>
<!-- 15&#45;&gt;17 -->
<g id="edge98" class="edge"><title>15&#45;&gt;17</title>
<path fill="none" stroke="black" d="M591.907,-1540.91C595.831,-1523.91 602.123,-1497.1 608,-1474 609.704,-1467.3 611.614,-1460.1 613.434,-1453.36"/>
<polygon fill="black" stroke="black" points="616.924,-1453.86 616.178,-1443.3 610.171,-1452.02 616.924,-1453.86"/>
<text text-anchor="middle" x="613" y="-1488.3" font-family="xkcd" font-size="14.00">3</text>
</g>
<!-- 28 -->
<g id="node29" class="node"><title>28</title>
<path fill="#f48fb1" stroke="black" stroke-width="7" d="M572,-1376C572,-1376 336,-1376 336,-1376 330,-1376 324,-1370 324,-1364 324,-1364 324,-1352 324,-1352 324,-1346 330,-1340 336,-1340 336,-1340 572,-1340 572,-1340 578,-1340 584,-1346 584,-1352 584,-1352 584,-1364 584,-1364 584,-1370 578,-1376 572,-1376"/>
<text text-anchor="middle" x="454" y="-1354.3" font-family="xkcd" font-size="14.00">1ère lecture • senat • commission 3604</text>
</g>
<!-- 15&#45;&gt;28 -->
<g id="edge95" class="edge"><title>15&#45;&gt;28</title>
<path fill="none" stroke="black" d="M521.925,-1540.96C505.744,-1533.84 489.95,-1523.88 479,-1510 464.246,-1491.3 457.895,-1424.72 455.414,-1386.5"/>
<polygon fill="black" stroke="black" points="458.882,-1385.86 454.788,-1376.09 451.895,-1386.28 458.882,-1385.86"/>
<text text-anchor="middle" x="467" y="-1454.8" font-family="xkcd" font-size="14.00">1</text>
</g>
<!-- 33 -->
<g id="node34" class="node"><title>33</title>
<path fill="#b3e5fd" stroke="black" stroke-width="6" d="M293,-1510C293,-1510 41,-1510 41,-1510 35,-1510 29,-1504 29,-1498 29,-1498 29,-1486 29,-1486 29,-1480 35,-1474 41,-1474 41,-1474 293,-1474 293,-1474 299,-1474 305,-1480 305,-1486 305,-1486 305,-1498 305,-1498 305,-1504 299,-1510 293,-1510"/>
<text text-anchor="middle" x="167" y="-1488.3" font-family="xkcd" font-size="14.00">1ère lecture • assemblee • commission 3110</text>
</g>
<!-- 15&#45;&gt;33 -->
<g id="edge97" class="edge"><title>15&#45;&gt;33</title>
<path fill="none" stroke="black" stroke-width="9" d="M464.306,-1543.19C457.439,-1542.43 450.635,-1541.7 444,-1541 405.382,-1536.95 395.396,-1538.79 357,-1533 321.204,-1527.6 282.005,-1519.7 248.557,-1512.33"/>
<polygon fill="black" stroke="black" stroke-width="9" points="249.842,-1504.55 238.372,-1510.07 246.425,-1519.93 249.842,-1504.55"/>
<text text-anchor="middle" x="372.5" y="-1521.8" font-family="xkcd" font-size="14.00">3215</text>
</g>
<!-- 16&#45;&gt;17 -->
<g id="edge75" class="edge"><title>16&#45;&gt;17</title>
<path fill="none" stroke="black" d="M371.839,-1540.92C378.647,-1538.36 385.525,-1535.68 392,-1533 457.817,-1505.76 532.234,-1470.05 577.886,-1447.56"/>
<polygon fill="black" stroke="black" points="579.484,-1450.67 586.899,-1443.1 576.383,-1444.4 579.484,-1450.67"/>
<text text-anchor="middle" x="527.5" y="-1488.3" font-family="xkcd" font-size="14.00">81</text>
</g>
<!-- 16&#45;&gt;28 -->
<g id="edge74" class="edge"><title>16&#45;&gt;28</title>
<path fill="none" stroke="black" stroke-width="10" d="M320.818,-1540.85C318.835,-1518.64 318.26,-1479.43 334,-1451 350.966,-1420.36 382.842,-1396.67 409.478,-1381.01"/>
<polygon fill="black" stroke="black" stroke-width="10" points="413.91,-1388.55 418.281,-1376 405.263,-1373.34 413.91,-1388.55"/>
<text text-anchor="middle" x="350.5" y="-1454.8" font-family="xkcd" font-size="14.00">3775</text>
</g>
<!-- 17&#45;&gt;4 -->
<g id="edge44" class="edge"><title>17&#45;&gt;4</title>
<path fill="none" stroke="black" d="M748.803,-1421.67C1006.69,-1416.12 1565,-1399.43 1565,-1359 1565,-1359 1565,-1359 1565,-519.5 1565,-456.151 1551.8,-441.421 1541,-379 1531.34,-323.201 1519,-310.128 1519,-253.5 1519,-253.5 1519,-253.5 1519,-151 1519,-124.241 1498.45,-121.878 1474,-111 1463.74,-106.434 1446.85,-102.662 1426.8,-99.5547"/>
<polygon fill="black" stroke="black" points="1427.11,-96.0642 1416.71,-98.0825 1426.1,-102.991 1427.11,-96.0642"/>
<text text-anchor="middle" x="1573" y="-751.3" font-family="xkcd" font-size="14.00">49</text>
</g>
<!-- 17&#45;&gt;6 -->
<g id="edge46" class="edge"><title>17&#45;&gt;6</title>
<path fill="none" stroke="black" stroke-width="3" d="M748.839,-1424.71C905.989,-1424.5 1180.67,-1420.57 1415,-1399 1502.67,-1390.93 1609,-1447.04 1609,-1359 1609,-1359 1609,-1359 1609,-84 1609,-68.297 1534.67,-50.5349 1493,-44 1407.15,-30.5379 856.77,-23.0836 598.925,-20.2921"/>
<polygon fill="black" stroke="black" stroke-width="3" points="598.786,-16.7905 588.749,-20.1827 598.711,-23.7901 598.786,-16.7905"/>
<text text-anchor="middle" x="1618.5" y="-717.8" font-family="xkcd" font-size="14.00">816</text>
</g>
<!-- 17&#45;&gt;12 -->
<g id="edge43" class="edge"><title>17&#45;&gt;12</title>
<path fill="none" stroke="black" d="M530.059,-1406.97C521.497,-1404.6 513.025,-1401.95 505,-1399 491.748,-1394.13 490.604,-1387.77 477,-1384 444.71,-1375.04 363.489,-1378.37 316.144,-1375.9"/>
<polygon fill="black" stroke="black" points="316.228,-1372.4 306.019,-1375.23 315.767,-1379.39 316.228,-1372.4"/>
<text text-anchor="middle" x="507" y="-1387.8" font-family="xkcd" font-size="14.00">1</text>
</g>
<!-- 17&#45;&gt;13 -->
<g id="edge40" class="edge"><title>17&#45;&gt;13</title>
<path fill="none" stroke="black" stroke-width="2" d="M620.62,-1406.99C619.176,-1387.4 613.558,-1355.88 593,-1340 571.851,-1323.66 495.52,-1346.39 473,-1332 348.813,-1252.64 350.467,-1183.8 314,-1041 310.041,-1025.5 305.943,-1018.82 314,-1005 341.801,-957.299 397.546,-927.793 443.597,-910.628"/>
<polygon fill="black" stroke="black" stroke-width="2" points="445.038,-913.829 453.263,-907.151 442.668,-907.243 445.038,-913.829"/>
<text text-anchor="middle" x="360.5" y="-1153.3" font-family="xkcd" font-size="14.00">458</text>
</g>
<!-- 17&#45;&gt;15 -->
<g id="edge45" class="edge"><title>17&#45;&gt;15</title>
<path fill="none" stroke="black" stroke-width="5" d="M623.551,-1443.24C625.799,-1463.4 627.312,-1497.58 613.246,-1531.6"/>
<polygon fill="black" stroke="black" stroke-width="5" points="609.261,-1529.79 609.091,-1540.71 617.222,-1533.42 609.261,-1529.79"/>
<text text-anchor="middle" x="639.5" y="-1488.3" font-family="xkcd" font-size="14.00">1665</text>
</g>
<!-- 17&#45;&gt;16 -->
<g id="edge47" class="edge"><title>17&#45;&gt;16</title>
<path fill="none" stroke="black" d="M611.195,-1443.24C596.161,-1467.86 564.915,-1512.39 525,-1533 511.088,-1540.18 470.542,-1539.11 455,-1541 451.789,-1541.39 448.534,-1541.79 445.25,-1542.19"/>
<polygon fill="black" stroke="black" points="444.819,-1538.72 435.325,-1543.42 445.68,-1545.67 444.819,-1538.72"/>
<text text-anchor="middle" x="592" y="-1488.3" font-family="xkcd" font-size="14.00">1</text>
</g>
<!-- 17&#45;&gt;21 -->
<g id="edge49" class="edge"><title>17&#45;&gt;21</title>
<path fill="none" stroke="black" d="M748.701,-1414.64C862.441,-1404.52 1011,-1386.11 1011,-1359 1011,-1359 1011,-1359 1011,-1156 1011,-1113.1 1171.2,-1141.5 1198,-1108 1226.6,-1072.25 1204.71,-1050.54 1200,-1005 1196.87,-974.74 1208.48,-958.497 1186,-938 1174.43,-927.451 1131.4,-932.84 1116,-930 1086.98,-924.648 1055.38,-916.91 1028.25,-909.663"/>
<polygon fill="black" stroke="black" points="1029.04,-906.251 1018.47,-907.021 1027.21,-913.009 1029.04,-906.251"/>
<text text-anchor="middle" x="1017.5" y="-1153.3" font-family="xkcd" font-size="14.00">12</text>
</g>
<!-- 26 -->
<g id="node27" class="node"><title>26</title>
<path fill="#b3e5fd" stroke="black" d="M643,-1108C643,-1108 417,-1108 417,-1108 411,-1108 405,-1102 405,-1096 405,-1096 405,-1084 405,-1084 405,-1078 411,-1072 417,-1072 417,-1072 643,-1072 643,-1072 649,-1072 655,-1078 655,-1084 655,-1084 655,-1096 655,-1096 655,-1102 649,-1108 643,-1108"/>
<text text-anchor="middle" x="530" y="-1086.3" font-family="xkcd" font-size="14.00">2ème lecture • assemblee • depot 526</text>
</g>
<!-- 17&#45;&gt;26 -->
<g id="edge41" class="edge"><title>17&#45;&gt;26</title>
<path fill="none" stroke="black" d="M628.587,-1406.7C635.593,-1387.73 642.633,-1357.65 626,-1340 615.694,-1329.07 504.308,-1338.98 491,-1332 479.504,-1325.97 477.231,-1321.27 473,-1309 449.528,-1240.92 489.282,-1158.03 513.473,-1116.83"/>
<polygon fill="black" stroke="black" points="516.497,-1118.6 518.66,-1108.22 510.501,-1114.98 516.497,-1118.6"/>
<text text-anchor="middle" x="479.5" y="-1253.8" font-family="xkcd" font-size="14.00">378</text>
</g>
<!-- 27 -->
<g id="node28" class="node"><title>27</title>
<path fill="#f3f3f3" stroke="black" d="M841,-1108C841,-1108 761,-1108 761,-1108 755,-1108 749,-1102 749,-1096 749,-1096 749,-1084 749,-1084 749,-1078 755,-1072 761,-1072 761,-1072 841,-1072 841,-1072 847,-1072 853,-1078 853,-1084 853,-1084 853,-1096 853,-1096 853,-1102 847,-1108 841,-1108"/>
<text text-anchor="middle" x="801" y="-1086.3" font-family="xkcd" font-size="14.00"> • congrés • &#160;2</text>
</g>
<!-- 17&#45;&gt;27 -->
<g id="edge42" class="edge"><title>17&#45;&gt;27</title>
<path fill="none" stroke="black" d="M748.53,-1407.65C798.006,-1397.62 843,-1382.14 843,-1359 843,-1359 843,-1359 843,-1156 843,-1141.19 835.211,-1127.08 826.342,-1115.82"/>
<polygon fill="black" stroke="black" points="828.946,-1113.47 819.789,-1108.15 823.624,-1118.02 828.946,-1113.47"/>
<text text-anchor="middle" x="845" y="-1253.8" font-family="xkcd" font-size="14.00">1</text>
</g>
<!-- 17&#45;&gt;28 -->
<g id="edge48" class="edge"><title>17&#45;&gt;28</title>
<path fill="none" stroke="black" d="M551.262,-1406.96C543.986,-1404.55 536.778,-1401.9 530,-1399 518.087,-1393.9 516.383,-1390.19 505,-1384 503.029,-1382.93 501.006,-1381.85 498.955,-1380.77"/>
<polygon fill="black" stroke="black" points="500.358,-1377.56 489.864,-1376.1 497.16,-1383.79 500.358,-1377.56"/>
<text text-anchor="middle" x="534" y="-1387.8" font-family="xkcd" font-size="14.00">7</text>
</g>
<!-- 18 -->
<g id="node19" class="node"><title>18</title>
<path fill="#b3e5fd" stroke="black" d="M847,-237C847,-237 599,-237 599,-237 593,-237 587,-231 587,-225 587,-225 587,-213 587,-213 587,-207 593,-201 599,-201 599,-201 847,-201 847,-201 853,-201 859,-207 859,-213 859,-213 859,-225 859,-225 859,-231 853,-237 847,-237"/>
<text text-anchor="middle" x="723" y="-215.3" font-family="xkcd" font-size="14.00">l. définitive • assemblee • commission 208</text>
</g>
<!-- 19 -->
<g id="node20" class="node"><title>19</title>
<path fill="#b3e5fd" stroke="black" d="M801,-170C801,-170 559,-170 559,-170 553,-170 547,-164 547,-158 547,-158 547,-146 547,-146 547,-140 553,-134 559,-134 559,-134 801,-134 801,-134 807,-134 813,-140 813,-146 813,-146 813,-158 813,-158 813,-164 807,-170 801,-170"/>
<text text-anchor="middle" x="680" y="-148.3" font-family="xkcd" font-size="14.00">l. définitive • assemblee • hemicycle 222</text>
</g>
<!-- 18&#45;&gt;19 -->
<g id="edge20" class="edge"><title>18&#45;&gt;19</title>
<path fill="none" stroke="black" d="M711.702,-200.922C707.195,-194.109 701.91,-186.119 696.96,-178.638"/>
<polygon fill="black" stroke="black" points="699.808,-176.599 691.372,-170.19 693.97,-180.461 699.808,-176.599"/>
<text text-anchor="middle" x="715.5" y="-181.8" font-family="xkcd" font-size="14.00">216</text>
</g>
<!-- 19&#45;&gt;4 -->
<g id="edge38" class="edge"><title>19&#45;&gt;4</title>
<path fill="none" stroke="black" d="M745.383,-133.916C779.342,-125.695 821.652,-116.46 860,-111 865.597,-110.203 971.39,-103.423 1071.23,-97.1255"/>
<polygon fill="black" stroke="black" points="1071.73,-100.601 1081.49,-96.4786 1071.29,-93.6149 1071.73,-100.601"/>
<text text-anchor="middle" x="870.5" y="-114.8" font-family="xkcd" font-size="14.00">144</text>
</g>
<!-- 19&#45;&gt;6 -->
<g id="edge39" class="edge"><title>19&#45;&gt;6</title>
<path fill="none" stroke="black" d="M656.219,-133.814C625.196,-111.743 568.868,-72.8508 518,-44 516.053,-42.8958 514.05,-41.7939 512.015,-40.7024"/>
<polygon fill="black" stroke="black" points="513.456,-37.5069 502.968,-36.0073 510.232,-43.7201 513.456,-37.5069"/>
<text text-anchor="middle" x="618.5" y="-81.3" font-family="xkcd" font-size="14.00">92</text>
</g>
<!-- 23 -->
<g id="node24" class="node"><title>23</title>
<path fill="#b3e5fd" stroke="black" d="M1165,-974C1165,-974 919,-974 919,-974 913,-974 907,-968 907,-962 907,-962 907,-950 907,-950 907,-944 913,-938 919,-938 919,-938 1165,-938 1165,-938 1171,-938 1177,-944 1177,-950 1177,-950 1177,-962 1177,-962 1177,-968 1171,-974 1165,-974"/>
<text text-anchor="middle" x="1042" y="-952.3" font-family="xkcd" font-size="14.00">3ème lecture • assemblee • hemicycle 28</text>
</g>
<!-- 20&#45;&gt;23 -->
<g id="edge101" class="edge"><title>20&#45;&gt;23</title>
<path fill="none" stroke="black" d="M1146.1,-1071.87C1161.43,-1064.85 1175.65,-1054.95 1185,-1041 1193.91,-1027.71 1194.34,-1017.99 1185,-1005 1176.94,-993.794 1166.14,-985.168 1154.06,-978.534"/>
<polygon fill="black" stroke="black" points="1155.58,-975.379 1145.07,-974.047 1152.46,-981.643 1155.58,-975.379"/>
<text text-anchor="middle" x="1194" y="-1019.3" font-family="xkcd" font-size="14.00">1</text>
</g>
<!-- 31 -->
<g id="node32" class="node"><title>31</title>
<path fill="#b3e5fd" stroke="black" d="M1164.5,-1041C1164.5,-1041 913.5,-1041 913.5,-1041 907.5,-1041 901.5,-1035 901.5,-1029 901.5,-1029 901.5,-1017 901.5,-1017 901.5,-1011 907.5,-1005 913.5,-1005 913.5,-1005 1164.5,-1005 1164.5,-1005 1170.5,-1005 1176.5,-1011 1176.5,-1017 1176.5,-1017 1176.5,-1029 1176.5,-1029 1176.5,-1035 1170.5,-1041 1164.5,-1041"/>
<text text-anchor="middle" x="1039" y="-1019.3" font-family="xkcd" font-size="14.00">3ème lecture • assemblee • commission 27</text>
</g>
<!-- 20&#45;&gt;31 -->
<g id="edge100" class="edge"><title>20&#45;&gt;31</title>
<path fill="none" stroke="black" d="M1060.38,-1071.92C1057.47,-1065.41 1054.09,-1057.81 1050.87,-1050.62"/>
<polygon fill="black" stroke="black" points="1053.94,-1048.9 1046.67,-1041.19 1047.55,-1051.75 1053.94,-1048.9"/>
<text text-anchor="middle" x="1066" y="-1052.8" font-family="xkcd" font-size="14.00">28</text>
</g>
<!-- 36 -->
<g id="node37" class="node"><title>36</title>
<path fill="#f3f3f3" stroke="black" d="M1208.5,-170C1208.5,-170 1011.5,-170 1011.5,-170 1005.5,-170 999.5,-164 999.5,-158 999.5,-158 999.5,-146 999.5,-146 999.5,-140 1005.5,-134 1011.5,-134 1011.5,-134 1208.5,-134 1208.5,-134 1214.5,-134 1220.5,-140 1220.5,-146 1220.5,-146 1220.5,-158 1220.5,-158 1220.5,-164 1214.5,-170 1208.5,-170"/>
<text text-anchor="middle" x="1110" y="-148.3" font-family="xkcd" font-size="14.00">congrès • congrés • hemicycle 18</text>
</g>
<!-- 21&#45;&gt;36 -->
<g id="edge102" class="edge"><title>21&#45;&gt;36</title>
<path fill="none" stroke="black" d="M1025.3,-870.887C1046.66,-861.059 1065,-845.94 1065,-823 1065,-823 1065,-823 1065,-218 1065,-202.98 1073.22,-188.923 1082.64,-177.75"/>
<polygon fill="black" stroke="black" points="1085.43,-179.889 1089.61,-170.153 1080.27,-175.158 1085.43,-179.889"/>
<text text-anchor="middle" x="1071.5" y="-516.8" font-family="xkcd" font-size="14.00">18</text>
</g>
<!-- 22&#45;&gt;3 -->
<g id="edge37" class="edge"><title>22&#45;&gt;3</title>
<path fill="none" stroke="black" d="M815.174,-803.922C794.386,-795.632 769.228,-785.6 747.314,-776.861"/>
<polygon fill="black" stroke="black" points="748.408,-773.53 737.823,-773.077 745.815,-780.032 748.408,-773.53"/>
<text text-anchor="middle" x="796.5" y="-784.8" font-family="xkcd" font-size="14.00">8</text>
</g>
<!-- 23&#45;&gt;4 -->
<g id="edge34" class="edge"><title>23&#45;&gt;4</title>
<path fill="none" stroke="black" d="M1054.61,-937.851C1060.74,-928.964 1067.88,-917.745 1073,-907 1138.77,-769.068 1287,-406.31 1287,-253.5 1287,-253.5 1287,-253.5 1287,-151 1287,-136.625 1279.99,-122.606 1271.99,-111.29"/>
<polygon fill="black" stroke="black" points="1274.64,-109.001 1265.78,-103.201 1269.09,-113.265 1274.64,-109.001"/>
<text text-anchor="middle" x="1233.5" y="-516.8" font-family="xkcd" font-size="14.00">4</text>
</g>
<!-- 23&#45;&gt;6 -->
<g id="edge31" class="edge"><title>23&#45;&gt;6</title>
<path fill="none" stroke="black" d="M1010.57,-937.913C990.688,-927.123 968.614,-915.177 968,-915 915.785,-899.956 899.944,-913.534 846,-907 734.869,-893.539 707.384,-886.8 598,-863 558.079,-854.314 540.432,-866.099 509,-840 464.638,-803.166 454,-780.16 454,-722.5 454,-722.5 454,-722.5 454,-352 454,-275.161 504,-263.339 504,-186.5 504,-186.5 504,-186.5 504,-84 504,-69.6253 496.988,-55.6061 488.988,-44.2895"/>
<polygon fill="black" stroke="black" points="491.644,-42.0015 482.778,-36.2013 486.092,-46.2646 491.644,-42.0015"/>
<text text-anchor="middle" x="460" y="-483.3" font-family="xkcd" font-size="14.00">19</text>
</g>
<!-- 23&#45;&gt;13 -->
<g id="edge32" class="edge"><title>23&#45;&gt;13</title>
<path fill="none" stroke="black" d="M951.844,-937.931C943.355,-935.568 934.956,-932.931 927,-930 913.753,-925.12 912.621,-918.711 899,-915 856.299,-903.366 744.16,-909.937 700,-907 674.423,-905.299 646.878,-902.992 621.117,-900.626"/>
<polygon fill="black" stroke="black" points="621.243,-897.122 610.962,-899.682 620.595,-904.092 621.243,-897.122"/>
<text text-anchor="middle" x="929" y="-918.8" font-family="xkcd" font-size="14.00">1</text>
</g>
<!-- 23&#45;&gt;21 -->
<g id="edge33" class="edge"><title>23&#45;&gt;21</title>
<path fill="none" stroke="black" d="M1023.14,-937.786C1014.97,-930.541 1005.19,-922.15 996,-915 995.264,-914.427 994.517,-913.853 993.76,-913.277"/>
<polygon fill="black" stroke="black" points="995.556,-910.253 985.428,-907.142 991.406,-915.89 995.556,-910.253"/>
<text text-anchor="middle" x="1017" y="-918.8" font-family="xkcd" font-size="14.00">1</text>
</g>
<!-- 24 -->
<g id="node25" class="node"><title>24</title>
<path fill="#f48fb1" stroke="black" d="M1327,-907C1327,-907 1133,-907 1133,-907 1127,-907 1121,-901 1121,-895 1121,-895 1121,-883 1121,-883 1121,-877 1127,-871 1133,-871 1133,-871 1327,-871 1327,-871 1333,-871 1339,-877 1339,-883 1339,-883 1339,-895 1339,-895 1339,-901 1333,-907 1327,-907"/>
<text text-anchor="middle" x="1230" y="-885.3" font-family="xkcd" font-size="14.00">3ème lecture • senat • depot 20</text>
</g>
<!-- 23&#45;&gt;24 -->
<g id="edge30" class="edge"><title>23&#45;&gt;24</title>
<path fill="none" stroke="black" d="M1091.39,-937.922C1115.8,-929.484 1145.43,-919.24 1171.02,-910.392"/>
<polygon fill="black" stroke="black" points="1172.3,-913.652 1180.61,-907.077 1170.01,-907.037 1172.3,-913.652"/>
<text text-anchor="middle" x="1158" y="-918.8" font-family="xkcd" font-size="14.00">3</text>
</g>
<!-- 24&#45;&gt;7 -->
<g id="edge87" class="edge"><title>24&#45;&gt;7</title>
<path fill="none" stroke="black" d="M1236.31,-870.922C1238.71,-864.405 1241.52,-856.812 1244.17,-849.616"/>
<polygon fill="black" stroke="black" points="1247.47,-850.783 1247.65,-840.19 1240.91,-848.358 1247.47,-850.783"/>
<text text-anchor="middle" x="1253.5" y="-851.8" font-family="xkcd" font-size="14.00">22</text>
</g>
<!-- 24&#45;&gt;8 -->
<g id="edge88" class="edge"><title>24&#45;&gt;8</title>
<path fill="none" stroke="black" d="M1294.29,-907.169C1298.12,-909.461 1301.74,-912.058 1305,-915 1370.28,-973.884 1398.88,-1079.48 1409.16,-1128.99"/>
<polygon fill="black" stroke="black" points="1405.75,-1129.82 1411.13,-1138.94 1412.62,-1128.45 1405.75,-1129.82"/>
<text text-anchor="middle" x="1385" y="-1019.3" font-family="xkcd" font-size="14.00">1</text>
</g>
<!-- 25&#45;&gt;18 -->
<g id="edge36" class="edge"><title>25&#45;&gt;18</title>
<path fill="none" stroke="black" d="M709.729,-267.922C711.493,-261.553 713.541,-254.156 715.493,-247.108"/>
<polygon fill="black" stroke="black" points="718.944,-247.761 718.24,-237.19 712.198,-245.893 718.944,-247.761"/>
<text text-anchor="middle" x="725.5" y="-248.8" font-family="xkcd" font-size="14.00">216</text>
</g>
<!-- 25&#45;&gt;19 -->
<g id="edge35" class="edge"><title>25&#45;&gt;19</title>
<path fill="none" stroke="black" d="M598.71,-267.842C583.145,-260.749 569.013,-250.833 559,-237 549.618,-224.039 550.011,-214.236 559,-201 566.588,-189.826 577.228,-181.254 589.082,-174.677"/>
<polygon fill="black" stroke="black" points="590.983,-177.639 598.352,-170.026 587.844,-171.382 590.983,-177.639"/>
<text text-anchor="middle" x="568.5" y="-215.3" font-family="xkcd" font-size="14.00">20</text>
</g>
<!-- 34 -->
<g id="node35" class="node"><title>34</title>
<path fill="#b3e5fd" stroke="black" d="M595,-1041C595,-1041 335,-1041 335,-1041 329,-1041 323,-1035 323,-1029 323,-1029 323,-1017 323,-1017 323,-1011 329,-1005 335,-1005 335,-1005 595,-1005 595,-1005 601,-1005 607,-1011 607,-1017 607,-1017 607,-1029 607,-1029 607,-1035 601,-1041 595,-1041"/>
<text text-anchor="middle" x="465" y="-1019.3" font-family="xkcd" font-size="14.00">2ème lecture • assemblee • commission 508</text>
</g>
<!-- 26&#45;&gt;34 -->
<g id="edge57" class="edge"><title>26&#45;&gt;34</title>
<path fill="none" stroke="black" stroke-width="2" d="M512.922,-1071.92C505.813,-1064.81 497.422,-1056.42 489.665,-1048.66"/>
<polygon fill="black" stroke="black" stroke-width="2" points="491.736,-1045.79 482.19,-1041.19 486.786,-1050.74 491.736,-1045.79"/>
<text text-anchor="middle" x="513.5" y="-1052.8" font-family="xkcd" font-size="14.00">516</text>
</g>
<!-- 35 -->
<g id="node36" class="node"><title>35</title>
<path fill="#b3e5fd" stroke="black" d="M839,-974C839,-974 589,-974 589,-974 583,-974 577,-968 577,-962 577,-962 577,-950 577,-950 577,-944 583,-938 589,-938 589,-938 839,-938 839,-938 845,-938 851,-944 851,-950 851,-950 851,-962 851,-962 851,-968 845,-974 839,-974"/>
<text text-anchor="middle" x="714" y="-952.3" font-family="xkcd" font-size="14.00">2ème lecture • assemblee • hemicycle 501</text>
</g>
<!-- 26&#45;&gt;35 -->
<g id="edge58" class="edge"><title>26&#45;&gt;35</title>
<path fill="none" stroke="black" d="M564.492,-1071.9C580.621,-1063.37 599.798,-1052.44 616,-1041 635.809,-1027.01 638.613,-1020.81 657,-1005 666.332,-996.975 676.599,-988.286 685.819,-980.535"/>
<polygon fill="black" stroke="black" points="688.19,-983.114 693.601,-974.004 683.691,-977.751 688.19,-983.114"/>
<text text-anchor="middle" x="659" y="-1019.3" font-family="xkcd" font-size="14.00">1</text>
</g>
<!-- 28&#45;&gt;17 -->
<g id="edge73" class="edge"><title>28&#45;&gt;17</title>
<path fill="none" stroke="black" stroke-width="9" d="M517.96,-1376.06C524.821,-1378.47 531.62,-1381.12 538,-1384 549.465,-1389.17 550.841,-1393.19 562,-1399 564.37,-1400.23 566.815,-1401.45 569.299,-1402.66"/>
<polygon fill="black" stroke="black" stroke-width="9" points="566.015,-1409.81 578.406,-1406.9 572.672,-1395.54 566.015,-1409.81"/>
<text text-anchor="middle" x="580" y="-1387.8" font-family="xkcd" font-size="14.00">3500</text>
</g>
<!-- 29&#45;&gt;30 -->
<g id="edge50" class="edge"><title>29&#45;&gt;30</title>
<path fill="none" stroke="black" stroke-width="2" d="M647,-1205.92C647,-1199.7 647,-1192.5 647,-1185.6"/>
<polygon fill="black" stroke="black" stroke-width="2" points="650.5,-1185.19 647,-1175.19 643.5,-1185.19 650.5,-1185.19"/>
<text text-anchor="middle" x="659.5" y="-1186.8" font-family="xkcd" font-size="14.00">495</text>
</g>
<!-- 30&#45;&gt;4 -->
<g id="edge69" class="edge"><title>30&#45;&gt;4</title>
<path fill="none" stroke="black" d="M765.221,-1138.99C778.355,-1136.56 791.496,-1133.89 804,-1131 826.189,-1125.86 830.516,-1119.63 853,-1116 890.853,-1109.89 1161.18,-1118.71 1198,-1108 1253.33,-1091.9 1272.02,-1085.19 1309,-1041 1440.07,-884.374 1389,-792.73 1389,-588.5 1389,-588.5 1389,-588.5 1389,-151 1389,-131.147 1377.27,-117.341 1360.61,-107.745"/>
<polygon fill="black" stroke="black" points="1361.98,-104.515 1351.48,-103.1 1358.81,-110.754 1361.98,-104.515"/>
<text text-anchor="middle" x="1398" y="-617.3" font-family="xkcd" font-size="14.00">26</text>
</g>
<!-- 30&#45;&gt;6 -->
<g id="edge71" class="edge"><title>30&#45;&gt;6</title>
<path fill="none" stroke="black" d="M520.483,-1154.42C470.437,-1151.34 412.837,-1144.7 362,-1131 338.771,-1124.74 330.561,-1124.44 313,-1108 232.269,-1032.41 193,-1000.6 193,-890 193,-890 193,-890 193,-84 193,-52.2487 263.768,-35.9796 333.242,-27.6582"/>
<polygon fill="black" stroke="black" points="333.938,-31.1015 343.475,-26.4872 333.142,-24.1469 333.938,-31.1015"/>
<text text-anchor="middle" x="202.5" y="-583.8" font-family="xkcd" font-size="14.00">166</text>
</g>
<!-- 30&#45;&gt;13 -->
<g id="edge66" class="edge"><title>30&#45;&gt;13</title>
<path fill="none" stroke="black" d="M520.399,-1150.51C470.692,-1146.86 420.251,-1140.84 398,-1131 343.316,-1106.81 322.326,-1095.62 298,-1041 286.347,-1014.83 286.353,-934.404 305,-915 313.003,-906.672 363.483,-900.527 413.174,-896.413"/>
<polygon fill="black" stroke="black" points="413.73,-899.88 423.418,-895.592 413.17,-892.902 413.73,-899.88"/>
<text text-anchor="middle" x="306" y="-1019.3" font-family="xkcd" font-size="14.00">118</text>
</g>
<!-- 30&#45;&gt;20 -->
<g id="edge70" class="edge"><title>30&#45;&gt;20</title>
<path fill="none" stroke="black" d="M737.736,-1138.94C745.705,-1136.59 753.562,-1133.95 761,-1131 773.042,-1126.22 773.678,-1120.01 786,-1116 789.864,-1114.74 865.027,-1108.11 936.774,-1101.99"/>
<polygon fill="black" stroke="black" points="937.201,-1105.47 946.868,-1101.13 936.607,-1098.49 937.201,-1105.47"/>
<text text-anchor="middle" x="795" y="-1119.8" font-family="xkcd" font-size="14.00">26</text>
</g>
<!-- 30&#45;&gt;21 -->
<g id="edge72" class="edge"><title>30&#45;&gt;21</title>
<path fill="none" stroke="black" d="M655.538,-1138.54C669.067,-1108.09 690.991,-1044.71 661,-1005 634.74,-970.234 593.475,-1009.35 568,-974 558.645,-961.02 557.396,-949.982 568,-938 586.259,-917.369 736.12,-903.722 845.129,-896.423"/>
<polygon fill="black" stroke="black" points="845.466,-899.909 855.214,-895.758 845.005,-892.924 845.466,-899.909"/>
<text text-anchor="middle" x="680" y="-1019.3" font-family="xkcd" font-size="14.00">3</text>
</g>
<!-- 30&#45;&gt;26 -->
<g id="edge67" class="edge"><title>30&#45;&gt;26</title>
<path fill="none" stroke="black" d="M616.26,-1138.92C602.13,-1131.07 585.189,-1121.66 570.074,-1113.26"/>
<polygon fill="black" stroke="black" points="571.383,-1109.99 560.941,-1108.19 567.983,-1116.11 571.383,-1109.99"/>
<text text-anchor="middle" x="608.5" y="-1119.8" font-family="xkcd" font-size="14.00">160</text>
</g>
<!-- 30&#45;&gt;27 -->
<g id="edge68" class="edge"><title>30&#45;&gt;27</title>
<path fill="none" stroke="black" d="M712.41,-1138.85C719.449,-1136.46 726.433,-1133.83 733,-1131 739.591,-1128.16 752.183,-1120.94 764.758,-1113.4"/>
<polygon fill="black" stroke="black" points="766.641,-1116.35 773.387,-1108.18 763.019,-1110.36 766.641,-1116.35"/>
<text text-anchor="middle" x="763" y="-1119.8" font-family="xkcd" font-size="14.00">1</text>
</g>
<!-- 30&#45;&gt;35 -->
<g id="edge65" class="edge"><title>30&#45;&gt;35</title>
<path fill="none" stroke="black" d="M689.926,-1138.72C692.609,-1136.44 695.021,-1133.88 697,-1131 727.361,-1086.84 723.928,-1020.82 718.874,-984.103"/>
<polygon fill="black" stroke="black" points="722.323,-983.497 717.361,-974.136 715.402,-984.548 722.323,-983.497"/>
<text text-anchor="middle" x="724" y="-1052.8" font-family="xkcd" font-size="14.00">1</text>
</g>
<!-- 31&#45;&gt;23 -->
<g id="edge51" class="edge"><title>31&#45;&gt;23</title>
<path fill="none" stroke="black" d="M1039.79,-1004.92C1040.08,-998.702 1040.41,-991.5 1040.73,-984.6"/>
<polygon fill="black" stroke="black" points="1044.24,-984.34 1041.21,-974.19 1037.25,-984.018 1044.24,-984.34"/>
<text text-anchor="middle" x="1050" y="-985.8" font-family="xkcd" font-size="14.00">28</text>
</g>
<!-- 32&#45;&gt;15 -->
<g id="edge52" class="edge"><title>32&#45;&gt;15</title>
<path fill="none" stroke="black" d="M1578.21,-31.7015C1628.05,-42.5018 1685,-60.0779 1685,-84 1685,-1493 1685,-1493 1685,-1493 1685,-1571.05 1591.66,-1525.23 1514,-1533 1364.65,-1547.95 940.781,-1554.39 722.127,-1556.78"/>
<polygon fill="black" stroke="black" points="721.833,-1553.28 711.872,-1556.89 721.909,-1560.28 721.833,-1553.28"/>
<text text-anchor="middle" x="1687" y="-784.8" font-family="xkcd" font-size="14.00">1</text>
</g>
<!-- 33&#45;&gt;6 -->
<g id="edge53" class="edge"><title>33&#45;&gt;6</title>
<path fill="none" stroke="black" d="M83.0107,-1473.9C41.4245,-1460.02 0,-1435.42 0,-1392.5 0,-1392.5 0,-1392.5 0,-84 0,-50.1559 195.297,-32.8903 333.031,-24.9221"/>
<polygon fill="black" stroke="black" points="333.474,-28.4027 343.259,-24.3413 333.077,-21.414 333.474,-28.4027"/>
<text text-anchor="middle" x="2" y="-751.3" font-family="xkcd" font-size="14.00">1</text>
</g>
<!-- 33&#45;&gt;12 -->
<g id="edge54" class="edge"><title>33&#45;&gt;12</title>
<path fill="none" stroke="black" stroke-width="8" d="M167,-1473.74C167,-1451.51 167,-1412.6 167,-1386.32"/>
<polygon fill="black" stroke="black" stroke-width="8" points="174,-1386.26 167,-1376.26 160,-1386.26 174,-1386.26"/>
<text text-anchor="middle" x="182" y="-1421.3" font-family="xkcd" font-size="14.00">3193</text>
</g>
<!-- 33&#45;&gt;16 -->
<g id="edge55" class="edge"><title>33&#45;&gt;16</title>
<path fill="none" stroke="black" d="M207.984,-1510.08C227.789,-1518.33 251.74,-1528.31 272.647,-1537.02"/>
<polygon fill="black" stroke="black" points="271.436,-1540.31 282.013,-1540.92 274.128,-1533.85 271.436,-1540.31"/>
<text text-anchor="middle" x="264" y="-1521.8" font-family="xkcd" font-size="14.00">2</text>
</g>
<!-- 33&#45;&gt;17 -->
<g id="edge56" class="edge"><title>33&#45;&gt;17</title>
<path fill="none" stroke="black" d="M305.364,-1485.02C370.007,-1481.12 439.373,-1475.04 470,-1466 483.54,-1462 484.72,-1455.79 498,-1451 503.125,-1449.15 508.421,-1447.43 513.808,-1445.82"/>
<polygon fill="black" stroke="black" points="514.917,-1449.14 523.582,-1443.04 513.006,-1442.41 514.917,-1449.14"/>
<text text-anchor="middle" x="500" y="-1454.8" font-family="xkcd" font-size="14.00">1</text>
</g>
<!-- 34&#45;&gt;6 -->
<g id="edge94" class="edge"><title>34&#45;&gt;6</title>
<path fill="none" stroke="black" d="M334.257,-1004.99C286.063,-994.946 243,-979.64 243,-957 243,-957 243,-957 243,-84 243,-61.458 285.53,-46.2081 333.443,-36.1804"/>
<polygon fill="black" stroke="black" points="334.293,-39.5795 343.41,-34.1815 332.917,-32.7162 334.293,-39.5795"/>
<text text-anchor="middle" x="245" y="-516.8" font-family="xkcd" font-size="14.00">1</text>
</g>
<!-- 34&#45;&gt;13 -->
<g id="edge93" class="edge"><title>34&#45;&gt;13</title>
<path fill="none" stroke="black" d="M471.798,-1004.74C480.635,-982.311 496.158,-942.906 506.51,-916.627"/>
<polygon fill="black" stroke="black" points="509.791,-917.848 510.2,-907.261 503.278,-915.282 509.791,-917.848"/>
<text text-anchor="middle" x="502.5" y="-952.3" font-family="xkcd" font-size="14.00">6</text>
</g>
<!-- 34&#45;&gt;30 -->
<g id="edge91" class="edge"><title>34&#45;&gt;30</title>
<path fill="none" stroke="black" d="M424.35,-1041.1C411.66,-1048.61 399.128,-1058.78 392,-1072 384.406,-1086.08 381.786,-1095.68 392,-1108 408.041,-1127.34 458.527,-1138.94 510.391,-1145.87"/>
<polygon fill="black" stroke="black" points="510.064,-1149.36 520.427,-1147.16 510.951,-1142.42 510.064,-1149.36"/>
<text text-anchor="middle" x="394" y="-1086.3" font-family="xkcd" font-size="14.00">1</text>
</g>
<!-- 34&#45;&gt;35 -->
<g id="edge92" class="edge"><title>34&#45;&gt;35</title>
<path fill="none" stroke="black" stroke-width="2" d="M521.609,-1004.92C546.752,-997.54 576.763,-989.008 604,-982 611.401,-980.096 619.102,-978.191 626.839,-976.33"/>
<polygon fill="black" stroke="black" stroke-width="2" points="627.72,-979.718 636.639,-974 626.101,-972.908 627.72,-979.718"/>
<text text-anchor="middle" x="616.5" y="-985.8" font-family="xkcd" font-size="14.00">507</text>
</g>
<!-- 35&#45;&gt;4 -->
<g id="edge79" class="edge"><title>35&#45;&gt;4</title>
<path fill="none" stroke="black" d="M734.384,-937.81C759.069,-918.045 802.738,-886.356 846,-871 899.535,-851.998 931.21,-881.502 970,-840 1112.05,-688.02 961.461,-566.772 1051,-379 1103.52,-268.868 1173.79,-278.804 1229,-170 1237.96,-152.345 1243,-130.549 1245.78,-113.585"/>
<polygon fill="black" stroke="black" points="1249.31,-113.628 1247.29,-103.226 1242.38,-112.613 1249.31,-113.628"/>
<text text-anchor="middle" x="1029.5" y="-516.8" font-family="xkcd" font-size="14.00">27</text>
</g>
<!-- 35&#45;&gt;6 -->
<g id="edge80" class="edge"><title>35&#45;&gt;6</title>
<path fill="none" stroke="black" d="M576.595,-939.677C488.289,-927.888 390,-910.223 390,-890 390,-890 390,-890 390,-787.5 390,-638.539 352,-603.461 352,-454.5 352,-454.5 352,-454.5 352,-84 352,-64.211 365.124,-50.3678 382.466,-40.7137"/>
<polygon fill="black" stroke="black" points="384.475,-43.6234 391.872,-36.0378 381.359,-37.3552 384.475,-43.6234"/>
<text text-anchor="middle" x="363.5" y="-483.3" font-family="xkcd" font-size="14.00">164</text>
</g>
<!-- 35&#45;&gt;13 -->
<g id="edge76" class="edge"><title>35&#45;&gt;13</title>
<path fill="none" stroke="black" d="M662.241,-937.922C636.553,-929.447 605.345,-919.149 578.451,-910.276"/>
<polygon fill="black" stroke="black" points="579.349,-906.886 568.755,-907.077 577.155,-913.534 579.349,-906.886"/>
<text text-anchor="middle" x="642.5" y="-918.8" font-family="xkcd" font-size="14.00">88</text>
</g>
<!-- 35&#45;&gt;14 -->
<g id="edge77" class="edge"><title>35&#45;&gt;14</title>
<path fill="none" stroke="black" d="M751.848,-974.004C787.674,-992.421 839.258,-1025.53 862,-1072 873.568,-1095.64 867.12,-1106.71 857,-1131 834.386,-1185.28 832.81,-1207.77 785,-1242 765.064,-1256.28 741.294,-1266.32 717.429,-1273.38"/>
<polygon fill="black" stroke="black" points="716.26,-1270.07 707.569,-1276.13 718.142,-1276.81 716.26,-1270.07"/>
<text text-anchor="middle" x="877.5" y="-1119.8" font-family="xkcd" font-size="14.00">208</text>
</g>
<!-- 35&#45;&gt;21 -->
<g id="edge81" class="edge"><title>35&#45;&gt;21</title>
<path fill="none" stroke="black" d="M807.947,-937.935C819.135,-935.482 830.357,-932.823 841,-930 861.911,-924.453 884.495,-917.194 904.313,-910.384"/>
<polygon fill="black" stroke="black" points="905.503,-913.676 913.799,-907.087 903.205,-907.064 905.503,-913.676"/>
<text text-anchor="middle" x="893" y="-918.8" font-family="xkcd" font-size="14.00">1</text>
</g>
<!-- 35&#45;&gt;24 -->
<g id="edge78" class="edge"><title>35&#45;&gt;24</title>
<path fill="none" stroke="black" d="M851.203,-942.717C876.228,-939.374 902.003,-935.194 926,-930 947.431,-925.361 951.486,-919.235 973,-915 1016.75,-906.388 1028.61,-911.178 1073,-907 1085.17,-905.855 1097.86,-904.593 1110.52,-903.289"/>
<polygon fill="black" stroke="black" points="1111.08,-906.751 1120.66,-902.237 1110.36,-899.788 1111.08,-906.751"/>
<text text-anchor="middle" x="982.5" y="-918.8" font-family="xkcd" font-size="14.00">20</text>
</g>
<!-- 36&#45;&gt;4 -->
<g id="edge59" class="edge"><title>36&#45;&gt;4</title>
<path fill="none" stroke="black" d="M1146.52,-133.922C1163.86,-125.813 1184.77,-116.037 1203.16,-107.435"/>
<polygon fill="black" stroke="black" points="1204.66,-110.596 1212.24,-103.19 1201.7,-104.255 1204.66,-110.596"/>
<text text-anchor="middle" x="1194" y="-114.8" font-family="xkcd" font-size="14.00">1</text>
</g>
<!-- 36&#45;&gt;6 -->
<g id="edge60" class="edge"><title>36&#45;&gt;6</title>
<path fill="none" stroke="black" d="M1026.8,-133.946C906.458,-109.28 684.528,-63.7915 558.955,-38.053"/>
<polygon fill="black" stroke="black" points="559.468,-34.5854 548.969,-36.0061 558.063,-41.4429 559.468,-34.5854"/>
<text text-anchor="middle" x="879" y="-81.3" font-family="xkcd" font-size="14.00">17</text>
</g>
</g>
</svg>
