<?xml version="1.0" encoding="UTF-8" standalone="no"?>
<!DOCTYPE svg PUBLIC "-//W3C//DTD SVG 1.1//EN"
 "http://www.w3.org/Graphics/SVG/1.1/DTD/svg11.dtd">
<!-- Generated by graphviz version 2.38.0 (20140413.2041)
 -->
<!-- Title: g Pages: 1 -->
<svg width="1799pt" height="2696pt"
 viewBox="0.00 0.00 1799.00 2696.00" xmlns="http://www.w3.org/2000/svg" xmlns:xlink="http://www.w3.org/1999/xlink">
<g id="graph0" class="graph" transform="scale(1 1) rotate(0) translate(4 2692)">
<title>g</title>
<polygon fill="white" stroke="none" points="-4,4 -4,-2692 1795,-2692 1795,4 -4,4"/>
<!-- 0 -->
<g id="node1" class="node"><title>0</title>
<path fill="#f48fb1" stroke="black" stroke-width="9" d="M1431.5,-2688C1431.5,-2688 1204.5,-2688 1204.5,-2688 1198.5,-2688 1192.5,-2682 1192.5,-2676 1192.5,-2676 1192.5,-2664 1192.5,-2664 1192.5,-2658 1198.5,-2652 1204.5,-2652 1204.5,-2652 1431.5,-2652 1431.5,-2652 1437.5,-2652 1443.5,-2658 1443.5,-2664 1443.5,-2664 1443.5,-2676 1443.5,-2676 1443.5,-2682 1437.5,-2688 1431.5,-2688"/>
<text text-anchor="middle" x="1318" y="-2666.3" font-family="xkcd" font-size="14.00">1ère lecture senat commission &#45; 2474</text>
</g>
<!-- 1 -->
<g id="node2" class="node"><title>1</title>
<path fill="#f48fb1" stroke="black" stroke-width="9" d="M1280,-2601C1280,-2601 1060,-2601 1060,-2601 1054,-2601 1048,-2595 1048,-2589 1048,-2589 1048,-2577 1048,-2577 1048,-2571 1054,-2565 1060,-2565 1060,-2565 1280,-2565 1280,-2565 1286,-2565 1292,-2571 1292,-2577 1292,-2577 1292,-2589 1292,-2589 1292,-2595 1286,-2601 1280,-2601"/>
<text text-anchor="middle" x="1170" y="-2579.3" font-family="xkcd" font-size="14.00">1ère lecture senat hemicycle &#45; 2477</text>
</g>
<!-- 0&#45;&gt;1 -->
<g id="edge1" class="edge"><title>0&#45;&gt;1</title>
<path fill="none" stroke="black" stroke-width="13" d="M1274.96,-2651.89C1263.06,-2646.63 1250.31,-2640.51 1239,-2634 1225.48,-2626.22 1211.4,-2616.37 1199.51,-2607.48"/>
<polygon fill="black" stroke="black" stroke-width="13" points="1206.12,-2598.21 1191.27,-2601.21 1192.34,-2616.32 1206.12,-2598.21"/>
<text text-anchor="middle" x="1255.5" y="-2622.8" font-family="xkcd" font-size="14.00">2479</text>
</g>
<!-- 1&#45;&gt;0 -->
<g id="edge5" class="edge"><title>1&#45;&gt;0</title>
<path fill="none" stroke="black" d="M1235.38,-2601.03C1248.07,-2605.8 1260.87,-2611.73 1272,-2619 1282.13,-2625.62 1291.53,-2634.96 1299.16,-2643.79"/>
<polygon fill="black" stroke="black" points="1296.57,-2646.15 1305.63,-2651.65 1301.97,-2641.7 1296.57,-2646.15"/>
<text text-anchor="middle" x="1295" y="-2622.8" font-family="xkcd" font-size="14.00">2</text>
</g>
<!-- 7 -->
<g id="node8" class="node"><title>7</title>
<path fill="#f48fb1" stroke="black" stroke-width="9" d="M1779,-2211C1779,-2211 1587,-2211 1587,-2211 1581,-2211 1575,-2205 1575,-2199 1575,-2199 1575,-2187 1575,-2187 1575,-2181 1581,-2175 1587,-2175 1587,-2175 1779,-2175 1779,-2175 1785,-2175 1791,-2181 1791,-2187 1791,-2187 1791,-2199 1791,-2199 1791,-2205 1785,-2211 1779,-2211"/>
<text text-anchor="middle" x="1683" y="-2189.3" font-family="xkcd" font-size="14.00">1ère lecture senat depot &#45; 2476</text>
</g>
<!-- 1&#45;&gt;7 -->
<g id="edge6" class="edge"><title>1&#45;&gt;7</title>
<path fill="none" stroke="black" d="M1292.07,-2568.1C1303.87,-2566.96 1315.66,-2565.9 1327,-2565 1365.82,-2561.9 1643.47,-2566.81 1677,-2547 1699.51,-2533.7 1708,-2523.15 1708,-2497 1708,-2497 1708,-2497 1708,-2279 1708,-2258.87 1701.47,-2237.12 1695.08,-2220.65"/>
<polygon fill="black" stroke="black" points="1698.22,-2219.07 1691.19,-2211.15 1691.74,-2221.73 1698.22,-2219.07"/>
<text text-anchor="middle" x="1710" y="-2384.3" font-family="xkcd" font-size="14.00">1</text>
</g>
<!-- 8 -->
<g id="node9" class="node"><title>8</title>
<path fill="#f3f3f3" stroke="black" stroke-width="3" d="M495,-1428C495,-1428 337,-1428 337,-1428 331,-1428 325,-1422 325,-1416 325,-1416 325,-1404 325,-1404 325,-1398 331,-1392 337,-1392 337,-1392 495,-1392 495,-1392 501,-1392 507,-1398 507,-1404 507,-1404 507,-1416 507,-1416 507,-1422 501,-1428 495,-1428"/>
<text text-anchor="middle" x="416" y="-1406.3" font-family="xkcd" font-size="14.00">CMP CMP commission &#45; 730</text>
</g>
<!-- 1&#45;&gt;8 -->
<g id="edge7" class="edge"><title>1&#45;&gt;8</title>
<path fill="none" stroke="black" stroke-width="3" d="M1047.86,-2577.67C784.336,-2567.53 186,-2539.79 186,-2497 186,-2497 186,-2497 186,-1496 186,-1466.55 253.173,-1444.11 314.916,-1429.7"/>
<polygon fill="black" stroke="black" stroke-width="3" points="315.794,-1433.09 324.768,-1427.45 314.24,-1426.26 315.794,-1433.09"/>
<text text-anchor="middle" x="196.5" y="-1971.8" font-family="xkcd" font-size="14.00">414</text>
</g>
<!-- 9 -->
<g id="node10" class="node"><title>9</title>
<path fill="#f48fb1" stroke="black" d="M153.5,-2460C153.5,-2460 42.5,-2460 42.5,-2460 36.5,-2460 30.5,-2454 30.5,-2448 30.5,-2448 30.5,-2436 30.5,-2436 30.5,-2430 36.5,-2424 42.5,-2424 42.5,-2424 153.5,-2424 153.5,-2424 159.5,-2424 165.5,-2430 165.5,-2436 165.5,-2436 165.5,-2448 165.5,-2448 165.5,-2454 159.5,-2460 153.5,-2460"/>
<text text-anchor="middle" x="98" y="-2438.3" font-family="xkcd" font-size="14.00">CMP senat depot &#45; 1</text>
</g>
<!-- 1&#45;&gt;9 -->
<g id="edge8" class="edge"><title>1&#45;&gt;9</title>
<path fill="none" stroke="black" d="M1047.75,-2580.68C788.863,-2577.48 205.812,-2567.98 168,-2547 137.893,-2530.29 118.264,-2494.52 107.661,-2469.62"/>
<polygon fill="black" stroke="black" points="110.777,-2467.99 103.788,-2460.03 104.286,-2470.61 110.777,-2467.99"/>
<text text-anchor="middle" x="170" y="-2535.8" font-family="xkcd" font-size="14.00">1</text>
</g>
<!-- 10 -->
<g id="node11" class="node"><title>10</title>
<path fill="#b3e5fd" stroke="black" stroke-width="2" d="M758,-2514C758,-2514 546,-2514 546,-2514 540,-2514 534,-2508 534,-2502 534,-2502 534,-2490 534,-2490 534,-2484 540,-2478 546,-2478 546,-2478 758,-2478 758,-2478 764,-2478 770,-2484 770,-2490 770,-2490 770,-2502 770,-2502 770,-2508 764,-2514 758,-2514"/>
<text text-anchor="middle" x="652" y="-2492.3" font-family="xkcd" font-size="14.00">2ème lecture assemblee depot &#45; 471</text>
</g>
<!-- 1&#45;&gt;10 -->
<g id="edge9" class="edge"><title>1&#45;&gt;10</title>
<path fill="none" stroke="black" stroke-width="2" d="M1066.11,-2564.95C979.142,-2550.68 855.236,-2530.35 765.645,-2515.65"/>
<polygon fill="black" stroke="black" stroke-width="2" points="766.153,-2512.18 755.718,-2514.02 765.019,-2519.09 766.153,-2512.18"/>
<text text-anchor="middle" x="956.5" y="-2535.8" font-family="xkcd" font-size="14.00">326</text>
</g>
<!-- 11 -->
<g id="node12" class="node"><title>11</title>
<path fill="#f3f3f3" stroke="black" d="M1015.5,-1428C1015.5,-1428 838.5,-1428 838.5,-1428 832.5,-1428 826.5,-1422 826.5,-1416 826.5,-1416 826.5,-1404 826.5,-1404 826.5,-1398 832.5,-1392 838.5,-1392 838.5,-1392 1015.5,-1392 1015.5,-1392 1021.5,-1392 1027.5,-1398 1027.5,-1404 1027.5,-1404 1027.5,-1416 1027.5,-1416 1027.5,-1422 1021.5,-1428 1015.5,-1428"/>
<text text-anchor="middle" x="927" y="-1406.3" font-family="xkcd" font-size="14.00">congrès congrés congrès &#45; 18</text>
</g>
<!-- 1&#45;&gt;11 -->
<g id="edge10" class="edge"><title>1&#45;&gt;11</title>
<path fill="none" stroke="black" d="M1136.32,-2564.88C1112.95,-2550.36 1086,-2527.08 1086,-2497 1086,-2497 1086,-2497 1086,-2333 1086,-2300.33 1096.24,-2293.47 1105,-2262 1161.15,-2060.18 1210,-2011.99 1210,-1802.5 1210,-1802.5 1210,-1802.5 1210,-1626.5 1210,-1539.11 1201.88,-1498.49 1132,-1446 1116.43,-1434.31 1077.59,-1426.25 1037.85,-1420.85"/>
<polygon fill="black" stroke="black" points="1038.11,-1417.35 1027.74,-1419.53 1037.21,-1424.29 1038.11,-1417.35"/>
<text text-anchor="middle" x="1202.5" y="-1971.8" font-family="xkcd" font-size="14.00">12</text>
</g>
<!-- 12 -->
<g id="node13" class="node"><title>12</title>
<path fill="#f3f3f3" stroke="black" stroke-width="2" d="M865.5,-297C865.5,-297 560.5,-297 560.5,-297 554.5,-297 548.5,-291 548.5,-285 548.5,-285 548.5,-273 548.5,-273 548.5,-267 554.5,-261 560.5,-261 560.5,-261 865.5,-261 865.5,-261 871.5,-261 877.5,-267 877.5,-273 877.5,-273 877.5,-285 877.5,-285 877.5,-291 871.5,-297 865.5,-297"/>
<text text-anchor="middle" x="713" y="-275.3" font-family="xkcd" font-size="14.00">constitutionnalité conseil constitutionnel &#160;&#45; 440</text>
</g>
<!-- 1&#45;&gt;12 -->
<g id="edge11" class="edge"><title>1&#45;&gt;12</title>
<path fill="none" stroke="black" d="M1110.43,-2564.88C1079.46,-2551.95 1048,-2530.56 1048,-2497 1048,-2497 1048,-2497 1048,-2333 1048,-2159.01 1095.16,-2120.66 1129,-1950 1209.57,-1543.71 1181,-1433.7 1181,-1019.5 1181,-1019.5 1181,-1019.5 1181,-800 1181,-658.791 1220.83,-583.609 1116,-489 1008.64,-392.102 925.904,-467.755 808,-384 776.253,-361.448 780.944,-343.116 754,-315 750.37,-311.212 746.363,-307.404 742.319,-303.767"/>
<polygon fill="black" stroke="black" points="744.426,-300.961 734.586,-297.034 739.83,-306.241 744.426,-300.961"/>
<text text-anchor="middle" x="1195" y="-1406.3" font-family="xkcd" font-size="14.00">42</text>
</g>
<!-- 13 -->
<g id="node14" class="node"><title>13</title>
<path fill="#b3e5fd" stroke="black" stroke-width="9" d="M1457,-2514C1457,-2514 1241,-2514 1241,-2514 1235,-2514 1229,-2508 1229,-2502 1229,-2502 1229,-2490 1229,-2490 1229,-2484 1235,-2478 1241,-2478 1241,-2478 1457,-2478 1457,-2478 1463,-2478 1469,-2484 1469,-2490 1469,-2490 1469,-2502 1469,-2502 1469,-2508 1463,-2514 1457,-2514"/>
<text text-anchor="middle" x="1349" y="-2492.3" font-family="xkcd" font-size="14.00">1ère lecture assemblee depot &#45; 2477</text>
</g>
<!-- 1&#45;&gt;13 -->
<g id="edge12" class="edge"><title>1&#45;&gt;13</title>
<path fill="none" stroke="black" stroke-width="6" d="M1206.22,-2564.8C1234.46,-2551.39 1273.82,-2532.7 1304.07,-2518.34"/>
<polygon fill="black" stroke="black" stroke-width="6" points="1306.36,-2523.06 1313.14,-2514.03 1301.85,-2513.58 1306.36,-2523.06"/>
<text text-anchor="middle" x="1281" y="-2535.8" font-family="xkcd" font-size="14.00">1118</text>
</g>
<!-- 14 -->
<g id="node15" class="node"><title>14</title>
<path fill="#b3e5fd" stroke="black" stroke-width="9" d="M1372,-2298C1372,-2298 1126,-2298 1126,-2298 1120,-2298 1114,-2292 1114,-2286 1114,-2286 1114,-2274 1114,-2274 1114,-2268 1120,-2262 1126,-2262 1126,-2262 1372,-2262 1372,-2262 1378,-2262 1384,-2268 1384,-2274 1384,-2274 1384,-2286 1384,-2286 1384,-2292 1378,-2298 1372,-2298"/>
<text text-anchor="middle" x="1249" y="-2276.3" font-family="xkcd" font-size="14.00">1ère lecture assemblee hemicycle &#45; 2465</text>
</g>
<!-- 1&#45;&gt;14 -->
<g id="edge13" class="edge"><title>1&#45;&gt;14</title>
<path fill="none" stroke="black" d="M1157.85,-2564.88C1154.49,-2559.4 1151.17,-2553.15 1149,-2547 1114.88,-2450.17 1085.05,-2396.32 1149,-2316 1152.74,-2311.3 1157.16,-2307.23 1162.02,-2303.7"/>
<polygon fill="black" stroke="black" points="1164,-2306.59 1170.57,-2298.27 1160.25,-2300.68 1164,-2306.59"/>
<text text-anchor="middle" x="1121" y="-2438.3" font-family="xkcd" font-size="14.00">1</text>
</g>
<!-- 15 -->
<g id="node16" class="node"><title>15</title>
<path fill="#f3f3f3" stroke="black" stroke-width="9" d="M999.5,-36C999.5,-36 782.5,-36 782.5,-36 776.5,-36 770.5,-30 770.5,-24 770.5,-24 770.5,-12 770.5,-12 770.5,-6 776.5,-0 782.5,-0 782.5,-0 999.5,-0 999.5,-0 1005.5,-0 1011.5,-6 1011.5,-12 1011.5,-12 1011.5,-24 1011.5,-24 1011.5,-30 1005.5,-36 999.5,-36"/>
<text text-anchor="middle" x="891" y="-14.3" font-family="xkcd" font-size="14.00">promulgation gouvernement &#160;&#45; 2477</text>
</g>
<!-- 1&#45;&gt;15 -->
<g id="edge14" class="edge"><title>1&#45;&gt;15</title>
<path fill="none" stroke="black" stroke-width="3" d="M1178.32,-2564.92C1181.09,-2559.22 1184.18,-2552.84 1187,-2547 1201.76,-2516.38 1202.41,-2507.09 1220,-2478 1225.81,-2468.39 1331.93,-2322.63 1341,-2316 1360.74,-2301.57 1375.96,-2315.54 1393,-2298 1412.64,-2277.78 1412,-2265.68 1412,-2237.5 1412,-2237.5 1412,-2237.5 1412,-104 1412,-64.5135 1175.88,-39.6695 1021.55,-27.6488"/>
<polygon fill="black" stroke="black" stroke-width="3" points="1021.75,-24.1536 1011.51,-26.8755 1021.21,-31.1329 1021.75,-24.1536"/>
<text text-anchor="middle" x="1424.5" y="-1275.8" font-family="xkcd" font-size="14.00">570</text>
</g>
<!-- 2 -->
<g id="node3" class="node"><title>2</title>
<path fill="#f48fb1" stroke="black" d="M901.5,-1602C901.5,-1602 688.5,-1602 688.5,-1602 682.5,-1602 676.5,-1596 676.5,-1590 676.5,-1590 676.5,-1578 676.5,-1578 676.5,-1572 682.5,-1566 688.5,-1566 688.5,-1566 901.5,-1566 901.5,-1566 907.5,-1566 913.5,-1572 913.5,-1578 913.5,-1578 913.5,-1590 913.5,-1590 913.5,-1596 907.5,-1602 901.5,-1602"/>
<text text-anchor="middle" x="795" y="-1580.3" font-family="xkcd" font-size="14.00">3ème lecture senat commission &#45; 19</text>
</g>
<!-- 3 -->
<g id="node4" class="node"><title>3</title>
<path fill="#f48fb1" stroke="black" d="M902,-1515C902,-1515 688,-1515 688,-1515 682,-1515 676,-1509 676,-1503 676,-1503 676,-1491 676,-1491 676,-1485 682,-1479 688,-1479 688,-1479 902,-1479 902,-1479 908,-1479 914,-1485 914,-1491 914,-1491 914,-1503 914,-1503 914,-1509 908,-1515 902,-1515"/>
<text text-anchor="middle" x="795" y="-1493.3" font-family="xkcd" font-size="14.00">3ème lecture senat hemicycle &#45; 20</text>
</g>
<!-- 2&#45;&gt;3 -->
<g id="edge2" class="edge"><title>2&#45;&gt;3</title>
<path fill="none" stroke="black" d="M795,-1565.8C795,-1554.16 795,-1538.55 795,-1525.24"/>
<polygon fill="black" stroke="black" points="798.5,-1525.18 795,-1515.18 791.5,-1525.18 798.5,-1525.18"/>
<text text-anchor="middle" x="804.5" y="-1536.8" font-family="xkcd" font-size="14.00">20</text>
</g>
<!-- 4 -->
<g id="node5" class="node"><title>4</title>
<path fill="#b3e5fd" stroke="black" d="M921.5,-1950C921.5,-1950 712.5,-1950 712.5,-1950 706.5,-1950 700.5,-1944 700.5,-1938 700.5,-1938 700.5,-1926 700.5,-1926 700.5,-1920 706.5,-1914 712.5,-1914 712.5,-1914 921.5,-1914 921.5,-1914 927.5,-1914 933.5,-1920 933.5,-1926 933.5,-1926 933.5,-1938 933.5,-1938 933.5,-1944 927.5,-1950 921.5,-1950"/>
<text text-anchor="middle" x="817" y="-1928.3" font-family="xkcd" font-size="14.00">3ème lecture assemblee depot &#45; 25</text>
</g>
<!-- 3&#45;&gt;4 -->
<g id="edge47" class="edge"><title>3&#45;&gt;4</title>
<path fill="none" stroke="black" d="M863.305,-1515.01C916.724,-1532.89 982,-1566.92 982,-1626.5 982,-1846 982,-1846 982,-1846 982,-1877.83 957.433,-1897.75 927.258,-1910.22"/>
<polygon fill="black" stroke="black" points="925.83,-1907.02 917.734,-1913.85 928.325,-1913.56 925.83,-1907.02"/>
<text text-anchor="middle" x="987" y="-1710.8" font-family="xkcd" font-size="14.00">3</text>
</g>
<!-- 3&#45;&gt;8 -->
<g id="edge46" class="edge"><title>3&#45;&gt;8</title>
<path fill="none" stroke="black" d="M718.76,-1478.9C656.05,-1464.84 567.203,-1444.91 501.971,-1430.28"/>
<polygon fill="black" stroke="black" points="502.642,-1426.84 492.119,-1428.07 501.11,-1433.68 502.642,-1426.84"/>
<text text-anchor="middle" x="631" y="-1449.8" font-family="xkcd" font-size="14.00">1</text>
</g>
<!-- 3&#45;&gt;11 -->
<g id="edge45" class="edge"><title>3&#45;&gt;11</title>
<path fill="none" stroke="black" d="M821.712,-1478.8C841.93,-1465.78 869.881,-1447.78 891.903,-1433.6"/>
<polygon fill="black" stroke="black" points="893.815,-1436.53 900.328,-1428.18 890.025,-1430.65 893.815,-1436.53"/>
<text text-anchor="middle" x="871" y="-1449.8" font-family="xkcd" font-size="14.00">1</text>
</g>
<!-- 3&#45;&gt;12 -->
<g id="edge48" class="edge"><title>3&#45;&gt;12</title>
<path fill="none" stroke="black" d="M780.781,-1478.98C768.596,-1462.62 753,-1436.68 753,-1411 753,-1411 753,-1411 753,-843.5 753,-767.05 751,-747.95 751,-671.5 751,-671.5 751,-671.5 751,-365 751,-343.92 741.139,-322.26 731.464,-306.081"/>
<polygon fill="black" stroke="black" points="734.17,-303.812 725.865,-297.234 728.256,-307.556 734.17,-303.812"/>
<text text-anchor="middle" x="758" y="-884.3" font-family="xkcd" font-size="14.00">3</text>
</g>
<!-- 3&#45;&gt;15 -->
<g id="edge49" class="edge"><title>3&#45;&gt;15</title>
<path fill="none" stroke="black" d="M912.52,-1478.99C981.796,-1465.53 1056,-1443.52 1056,-1411 1056,-1411 1056,-1411 1056,-930.5 1056,-854.05 1058,-834.95 1058,-758.5 1058,-758.5 1058,-758.5 1058,-452 1058,-394.887 1059,-380.613 1059,-323.5 1059,-323.5 1059,-323.5 1059,-104 1059,-72.1554 1034.67,-52.2381 1004.53,-39.782"/>
<polygon fill="black" stroke="black" points="1005.6,-36.4443 995.007,-36.1509 1003.1,-42.9848 1005.6,-36.4443"/>
<text text-anchor="middle" x="1064.5" y="-753.8" font-family="xkcd" font-size="14.00">13</text>
</g>
<!-- 5 -->
<g id="node6" class="node"><title>5</title>
<path fill="#b3e5fd" stroke="black" d="M863,-1776C863,-1776 625,-1776 625,-1776 619,-1776 613,-1770 613,-1764 613,-1764 613,-1752 613,-1752 613,-1746 619,-1740 625,-1740 625,-1740 863,-1740 863,-1740 869,-1740 875,-1746 875,-1752 875,-1752 875,-1764 875,-1764 875,-1770 869,-1776 863,-1776"/>
<text text-anchor="middle" x="744" y="-1754.3" font-family="xkcd" font-size="14.00">3ème lecture assemblee hemicycle &#45; 25</text>
</g>
<!-- 4&#45;&gt;5 -->
<g id="edge3" class="edge"><title>4&#45;&gt;5</title>
<path fill="none" stroke="black" d="M842.566,-1913.9C869.847,-1893.46 906.646,-1858.1 887,-1827 873.13,-1805.05 850.026,-1790.04 826.391,-1779.83"/>
<polygon fill="black" stroke="black" points="827.554,-1776.53 816.971,-1776.02 824.927,-1783.02 827.554,-1776.53"/>
<text text-anchor="middle" x="895" y="-1841.3" font-family="xkcd" font-size="14.00">1</text>
</g>
<!-- 6 -->
<g id="node7" class="node"><title>6</title>
<path fill="#b3e5fd" stroke="black" d="M866,-1863C866,-1863 622,-1863 622,-1863 616,-1863 610,-1857 610,-1851 610,-1851 610,-1839 610,-1839 610,-1833 616,-1827 622,-1827 622,-1827 866,-1827 866,-1827 872,-1827 878,-1833 878,-1839 878,-1839 878,-1851 878,-1851 878,-1857 872,-1863 866,-1863"/>
<text text-anchor="middle" x="744" y="-1841.3" font-family="xkcd" font-size="14.00">3ème lecture assemblee commission &#45; 24</text>
</g>
<!-- 4&#45;&gt;6 -->
<g id="edge4" class="edge"><title>4&#45;&gt;6</title>
<path fill="none" stroke="black" d="M802.227,-1913.8C791.64,-1901.47 777.218,-1884.68 765.376,-1870.89"/>
<polygon fill="black" stroke="black" points="767.921,-1868.48 758.751,-1863.18 762.611,-1873.04 767.921,-1868.48"/>
<text text-anchor="middle" x="794" y="-1884.8" font-family="xkcd" font-size="14.00">25</text>
</g>
<!-- 5&#45;&gt;8 -->
<g id="edge30" class="edge"><title>5&#45;&gt;8</title>
<path fill="none" stroke="black" d="M638.021,-1739.94C618.363,-1735.01 601.612,-1729.03 594,-1722 499.417,-1634.65 594.164,-1539.83 506,-1446 501.295,-1440.99 495.79,-1436.69 489.861,-1433"/>
<polygon fill="black" stroke="black" points="491.355,-1429.82 480.916,-1428.01 487.946,-1435.94 491.355,-1429.82"/>
<text text-anchor="middle" x="550" y="-1580.3" font-family="xkcd" font-size="14.00">1</text>
</g>
<!-- 5&#45;&gt;11 -->
<g id="edge32" class="edge"><title>5&#45;&gt;11</title>
<path fill="none" stroke="black" d="M780.131,-1739.96C824.907,-1716.38 898.21,-1669 922,-1602 941.65,-1546.66 936.515,-1476.53 931.476,-1438.52"/>
<polygon fill="black" stroke="black" points="934.888,-1437.65 930.011,-1428.25 927.958,-1438.64 934.888,-1437.65"/>
<text text-anchor="middle" x="934" y="-1580.3" font-family="xkcd" font-size="14.00">1</text>
</g>
<!-- 5&#45;&gt;12 -->
<g id="edge33" class="edge"><title>5&#45;&gt;12</title>
<path fill="none" stroke="black" d="M691.457,-1739.99C667.628,-1729.35 641.752,-1713 628,-1689 595.53,-1632.33 707,-1171.81 707,-1106.5 707,-1106.5 707,-1106.5 707,-930.5 707,-854.009 713,-834.991 713,-758.5 713,-758.5 713,-758.5 713,-365 713,-345.753 713,-324.054 713,-307.397"/>
<polygon fill="black" stroke="black" points="716.5,-307.256 713,-297.256 709.5,-307.256 716.5,-307.256"/>
<text text-anchor="middle" x="711.5" y="-1014.8" font-family="xkcd" font-size="14.00">4</text>
</g>
<!-- 5&#45;&gt;15 -->
<g id="edge34" class="edge"><title>5&#45;&gt;15</title>
<path fill="none" stroke="black" d="M875.021,-1753.31C939.325,-1749.13 1008.39,-1740.35 1034,-1722 1054.04,-1707.64 1058,-1696.65 1058,-1672 1058,-1672 1058,-1672 1058,-1539.5 1058,-1461.31 1095,-1445.69 1095,-1367.5 1095,-1367.5 1095,-1367.5 1095,-1017.5 1095,-940.992 1102,-922.008 1102,-845.5 1102,-845.5 1102,-845.5 1102,-452 1102,-393.036 1135,-382.464 1135,-323.5 1135,-323.5 1135,-323.5 1135,-104 1135,-74.0876 1068.78,-52.2726 1005.33,-38.2364"/>
<polygon fill="black" stroke="black" points="1005.7,-34.7347 995.186,-36.0504 1004.22,-41.5778 1005.7,-34.7347"/>
<text text-anchor="middle" x="1108" y="-884.3" font-family="xkcd" font-size="14.00">17</text>
</g>
<!-- 27 -->
<g id="node28" class="node"><title>27</title>
<path fill="#f48fb1" stroke="black" d="M834.5,-1689C834.5,-1689 649.5,-1689 649.5,-1689 643.5,-1689 637.5,-1683 637.5,-1677 637.5,-1677 637.5,-1665 637.5,-1665 637.5,-1659 643.5,-1653 649.5,-1653 649.5,-1653 834.5,-1653 834.5,-1653 840.5,-1653 846.5,-1659 846.5,-1665 846.5,-1665 846.5,-1677 846.5,-1677 846.5,-1683 840.5,-1689 834.5,-1689"/>
<text text-anchor="middle" x="742" y="-1667.3" font-family="xkcd" font-size="14.00">3ème lecture senat depot &#45; 20</text>
</g>
<!-- 5&#45;&gt;27 -->
<g id="edge31" class="edge"><title>5&#45;&gt;27</title>
<path fill="none" stroke="black" d="M743.595,-1739.8C743.321,-1728.16 742.954,-1712.55 742.641,-1699.24"/>
<polygon fill="black" stroke="black" points="746.138,-1699.09 742.404,-1689.18 739.14,-1699.26 746.138,-1699.09"/>
<text text-anchor="middle" x="749" y="-1710.8" font-family="xkcd" font-size="14.00">3</text>
</g>
<!-- 6&#45;&gt;5 -->
<g id="edge82" class="edge"><title>6&#45;&gt;5</title>
<path fill="none" stroke="black" d="M744,-1826.8C744,-1815.16 744,-1799.55 744,-1786.24"/>
<polygon fill="black" stroke="black" points="747.5,-1786.18 744,-1776.18 740.5,-1786.18 747.5,-1786.18"/>
<text text-anchor="middle" x="753" y="-1797.8" font-family="xkcd" font-size="14.00">25</text>
</g>
<!-- 7&#45;&gt;0 -->
<g id="edge93" class="edge"><title>7&#45;&gt;0</title>
<path fill="none" stroke="black" stroke-width="13" d="M1706.1,-2211.17C1724.08,-2226.67 1746,-2251.26 1746,-2279 1746,-2584 1746,-2584 1746,-2584 1746,-2644.57 1578.98,-2662.64 1453.61,-2667.67"/>
<polygon fill="black" stroke="black" stroke-width="13" points="1453.09,-2656.3 1443.52,-2668.05 1453.94,-2679.04 1453.09,-2656.3"/>
<text text-anchor="middle" x="1763" y="-2438.3" font-family="xkcd" font-size="14.00">2476</text>
</g>
<!-- 7&#45;&gt;1 -->
<g id="edge94" class="edge"><title>7&#45;&gt;1</title>
<path fill="none" stroke="black" d="M1676.45,-2211.3C1670.62,-2228.28 1663,-2255.05 1663,-2279 1663,-2497 1663,-2497 1663,-2497 1663,-2515.35 1448.17,-2546.51 1302.14,-2565.58"/>
<polygon fill="black" stroke="black" points="1301.65,-2562.11 1292.18,-2566.87 1302.55,-2569.05 1301.65,-2562.11"/>
<text text-anchor="middle" x="1667.5" y="-2384.3" font-family="xkcd" font-size="14.00">6</text>
</g>
<!-- 16 -->
<g id="node17" class="node"><title>16</title>
<path fill="#b3e5fd" stroke="black" d="M346.5,-1080C346.5,-1080 149.5,-1080 149.5,-1080 143.5,-1080 137.5,-1074 137.5,-1068 137.5,-1068 137.5,-1056 137.5,-1056 137.5,-1050 143.5,-1044 149.5,-1044 149.5,-1044 346.5,-1044 346.5,-1044 352.5,-1044 358.5,-1050 358.5,-1056 358.5,-1056 358.5,-1068 358.5,-1068 358.5,-1074 352.5,-1080 346.5,-1080"/>
<text text-anchor="middle" x="248" y="-1058.3" font-family="xkcd" font-size="14.00">nouv. lect. assemblee depot &#45; 205</text>
</g>
<!-- 8&#45;&gt;16 -->
<g id="edge98" class="edge"><title>8&#45;&gt;16</title>
<path fill="none" stroke="black" d="M324.927,-1399.16C280.707,-1388.78 237,-1367.52 237,-1324 237,-1324 237,-1324 237,-1148 237,-1128.59 239.855,-1106.9 242.657,-1090.28"/>
<polygon fill="black" stroke="black" points="246.149,-1090.63 244.459,-1080.17 239.258,-1089.4 246.149,-1090.63"/>
<text text-anchor="middle" x="247.5" y="-1232.3" font-family="xkcd" font-size="14.00">190</text>
</g>
<!-- 22 -->
<g id="node23" class="node"><title>22</title>
<path fill="#b3e5fd" stroke="black" stroke-width="2" d="M481,-1254C481,-1254 295,-1254 295,-1254 289,-1254 283,-1248 283,-1242 283,-1242 283,-1230 283,-1230 283,-1224 289,-1218 295,-1218 295,-1218 481,-1218 481,-1218 487,-1218 493,-1224 493,-1230 493,-1230 493,-1242 493,-1242 493,-1248 487,-1254 481,-1254"/>
<text text-anchor="middle" x="388" y="-1232.3" font-family="xkcd" font-size="14.00">CMP assemblee hemicycle &#45; 540</text>
</g>
<!-- 8&#45;&gt;22 -->
<g id="edge96" class="edge"><title>8&#45;&gt;22</title>
<path fill="none" stroke="black" d="M426.675,-1391.8C438.2,-1370.95 453.577,-1334.9 443,-1305 437.226,-1288.68 425.684,-1273.41 414.658,-1261.49"/>
<polygon fill="black" stroke="black" points="417.027,-1258.9 407.553,-1254.16 412.002,-1263.78 417.027,-1258.9"/>
<text text-anchor="middle" x="457.5" y="-1319.3" font-family="xkcd" font-size="14.00">188</text>
</g>
<!-- 23 -->
<g id="node24" class="node"><title>23</title>
<path fill="#f48fb1" stroke="black" stroke-width="2" d="M516.5,-1167C516.5,-1167 355.5,-1167 355.5,-1167 349.5,-1167 343.5,-1161 343.5,-1155 343.5,-1155 343.5,-1143 343.5,-1143 343.5,-1137 349.5,-1131 355.5,-1131 355.5,-1131 516.5,-1131 516.5,-1131 522.5,-1131 528.5,-1137 528.5,-1143 528.5,-1143 528.5,-1155 528.5,-1155 528.5,-1161 522.5,-1167 516.5,-1167"/>
<text text-anchor="middle" x="436" y="-1145.3" font-family="xkcd" font-size="14.00">CMP senat hemicycle &#45; 535</text>
</g>
<!-- 8&#45;&gt;23 -->
<g id="edge95" class="edge"><title>8&#45;&gt;23</title>
<path fill="none" stroke="black" stroke-width="2" d="M436.28,-1391.82C442.036,-1386.43 448.072,-1380.25 453,-1374 488.674,-1328.77 492.479,-1310.82 502,-1254 504.644,-1238.22 508.012,-1232.83 502,-1218 495.037,-1200.83 481.427,-1185.61 468.365,-1173.94"/>
<polygon fill="black" stroke="black" stroke-width="2" points="470.256,-1170.95 460.368,-1167.15 465.726,-1176.29 470.256,-1170.95"/>
<text text-anchor="middle" x="511.5" y="-1275.8" font-family="xkcd" font-size="14.00">347</text>
</g>
<!-- 37 -->
<g id="node38" class="node"><title>37</title>
<path fill="#f3f3f3" stroke="black" d="M422,-1341C422,-1341 288,-1341 288,-1341 282,-1341 276,-1335 276,-1329 276,-1329 276,-1317 276,-1317 276,-1311 282,-1305 288,-1305 288,-1305 422,-1305 422,-1305 428,-1305 434,-1311 434,-1317 434,-1317 434,-1329 434,-1329 434,-1335 428,-1341 422,-1341"/>
<text text-anchor="middle" x="355" y="-1319.3" font-family="xkcd" font-size="14.00">CMP CMP hemicycle &#45; 5</text>
</g>
<!-- 8&#45;&gt;37 -->
<g id="edge97" class="edge"><title>8&#45;&gt;37</title>
<path fill="none" stroke="black" d="M403.656,-1391.8C394.974,-1379.7 383.207,-1363.3 373.419,-1349.67"/>
<polygon fill="black" stroke="black" points="376,-1347.26 367.326,-1341.18 370.313,-1351.34 376,-1347.26"/>
<text text-anchor="middle" x="394.5" y="-1362.8" font-family="xkcd" font-size="14.00">5</text>
</g>
<!-- 38 -->
<g id="node39" class="node"><title>38</title>
<path fill="#f48fb1" stroke="black" d="M159,-2352C159,-2352 13,-2352 13,-2352 7,-2352 1,-2346 1,-2340 1,-2340 1,-2328 1,-2328 1,-2322 7,-2316 13,-2316 13,-2316 159,-2316 159,-2316 165,-2316 171,-2322 171,-2328 171,-2328 171,-2340 171,-2340 171,-2346 165,-2352 159,-2352"/>
<text text-anchor="middle" x="86" y="-2330.3" font-family="xkcd" font-size="14.00">CMP senat commission &#45; 1</text>
</g>
<!-- 9&#45;&gt;38 -->
<g id="edge105" class="edge"><title>9&#45;&gt;38</title>
<path fill="none" stroke="black" d="M96.072,-2423.97C94.1937,-2407.38 91.3075,-2381.88 89.1054,-2362.43"/>
<polygon fill="black" stroke="black" points="92.5659,-2361.88 87.9631,-2352.34 85.6103,-2362.67 92.5659,-2361.88"/>
<text text-anchor="middle" x="96" y="-2384.3" font-family="xkcd" font-size="14.00">1</text>
</g>
<!-- 19 -->
<g id="node20" class="node"><title>19</title>
<path fill="#b3e5fd" stroke="black" stroke-width="2" d="M576.5,-2298C576.5,-2298 331.5,-2298 331.5,-2298 325.5,-2298 319.5,-2292 319.5,-2286 319.5,-2286 319.5,-2274 319.5,-2274 319.5,-2268 325.5,-2262 331.5,-2262 331.5,-2262 576.5,-2262 576.5,-2262 582.5,-2262 588.5,-2268 588.5,-2274 588.5,-2274 588.5,-2286 588.5,-2286 588.5,-2292 582.5,-2298 576.5,-2298"/>
<text text-anchor="middle" x="454" y="-2276.3" font-family="xkcd" font-size="14.00">2ème lecture assemblee hemicycle &#45; 464</text>
</g>
<!-- 10&#45;&gt;19 -->
<g id="edge17" class="edge"><title>10&#45;&gt;19</title>
<path fill="none" stroke="black" d="M645.966,-2477.61C636.382,-2451.85 615.677,-2403.05 586,-2370 560.922,-2342.07 525.305,-2318.73 497.387,-2302.97"/>
<polygon fill="black" stroke="black" points="499.062,-2299.89 488.617,-2298.12 495.676,-2306.02 499.062,-2299.89"/>
<text text-anchor="middle" x="614" y="-2384.3" font-family="xkcd" font-size="14.00">1</text>
</g>
<!-- 20 -->
<g id="node21" class="node"><title>20</title>
<path fill="#b3e5fd" stroke="black" stroke-width="2" d="M565.5,-2406C565.5,-2406 314.5,-2406 314.5,-2406 308.5,-2406 302.5,-2400 302.5,-2394 302.5,-2394 302.5,-2382 302.5,-2382 302.5,-2376 308.5,-2370 314.5,-2370 314.5,-2370 565.5,-2370 565.5,-2370 571.5,-2370 577.5,-2376 577.5,-2382 577.5,-2382 577.5,-2394 577.5,-2394 577.5,-2400 571.5,-2406 565.5,-2406"/>
<text text-anchor="middle" x="440" y="-2384.3" font-family="xkcd" font-size="14.00">2ème lecture assemblee commission &#45; 470</text>
</g>
<!-- 10&#45;&gt;20 -->
<g id="edge18" class="edge"><title>10&#45;&gt;20</title>
<path fill="none" stroke="black" stroke-width="3" d="M613.413,-2477.98C601.071,-2472.4 587.396,-2466.07 575,-2460 542.77,-2444.22 506.831,-2425.25 480.142,-2410.89"/>
<polygon fill="black" stroke="black" stroke-width="3" points="481.571,-2407.68 471.109,-2406.01 478.247,-2413.84 481.571,-2407.68"/>
<text text-anchor="middle" x="587.5" y="-2438.3" font-family="xkcd" font-size="14.00">470</text>
</g>
<!-- 34 -->
<g id="node35" class="node"><title>34</title>
<path fill="#f3f3f3" stroke="black" d="M1018.5,-384C1018.5,-384 829.5,-384 829.5,-384 823.5,-384 817.5,-378 817.5,-372 817.5,-372 817.5,-360 817.5,-360 817.5,-354 823.5,-348 829.5,-348 829.5,-348 1018.5,-348 1018.5,-348 1024.5,-348 1030.5,-354 1030.5,-360 1030.5,-360 1030.5,-372 1030.5,-372 1030.5,-378 1024.5,-384 1018.5,-384"/>
<text text-anchor="middle" x="924" y="-362.3" font-family="xkcd" font-size="14.00">congrès congrés hemicycle &#45; 18</text>
</g>
<!-- 11&#45;&gt;34 -->
<g id="edge101" class="edge"><title>11&#45;&gt;34</title>
<path fill="none" stroke="black" d="M926.356,-1391.75C925.772,-1374.58 925,-1347.47 925,-1324 925,-1324 925,-1324 925,-452 925,-432.751 924.74,-411.052 924.486,-394.396"/>
<polygon fill="black" stroke="black" points="927.983,-394.198 924.322,-384.256 920.984,-394.311 927.983,-394.198"/>
<text text-anchor="middle" x="931.5" y="-884.3" font-family="xkcd" font-size="14.00">18</text>
</g>
<!-- 12&#45;&gt;15 -->
<g id="edge104" class="edge"><title>12&#45;&gt;15</title>
<path fill="none" stroke="black" stroke-width="3" d="M754.185,-260.899C777.224,-249.486 804.869,-232.441 823,-210 862.918,-160.593 880.348,-85.9349 887.159,-46.1743"/>
<polygon fill="black" stroke="black" stroke-width="3" points="890.636,-46.5943 888.773,-36.1645 883.725,-45.4795 890.636,-46.5943"/>
<text text-anchor="middle" x="874.5" y="-144.8" font-family="xkcd" font-size="14.00">439</text>
</g>
<!-- 29 -->
<g id="node30" class="node"><title>29</title>
<path fill="#f3f3f3" stroke="black" d="M802.5,-210C802.5,-210 639.5,-210 639.5,-210 633.5,-210 627.5,-204 627.5,-198 627.5,-198 627.5,-186 627.5,-186 627.5,-180 633.5,-174 639.5,-174 639.5,-174 802.5,-174 802.5,-174 808.5,-174 814.5,-180 814.5,-186 814.5,-186 814.5,-198 814.5,-198 814.5,-204 808.5,-210 802.5,-210"/>
<text text-anchor="middle" x="721" y="-188.3" font-family="xkcd" font-size="14.00"> conseil constitutionnel &#160;&#45; 1</text>
</g>
<!-- 12&#45;&gt;29 -->
<g id="edge103" class="edge"><title>12&#45;&gt;29</title>
<path fill="none" stroke="black" d="M714.619,-260.799C715.714,-249.163 717.184,-233.548 718.437,-220.237"/>
<polygon fill="black" stroke="black" points="721.931,-220.459 719.383,-210.175 714.962,-219.803 721.931,-220.459"/>
<text text-anchor="middle" x="720" y="-231.8" font-family="xkcd" font-size="14.00">1</text>
</g>
<!-- 13&#45;&gt;0 -->
<g id="edge77" class="edge"><title>13&#45;&gt;0</title>
<path fill="none" stroke="black" d="M1345.93,-2514.05C1340.55,-2543.88 1329.4,-2605.76 1322.93,-2641.64"/>
<polygon fill="black" stroke="black" points="1319.42,-2641.42 1321.09,-2651.88 1326.3,-2642.66 1319.42,-2641.42"/>
<text text-anchor="middle" x="1339" y="-2579.3" font-family="xkcd" font-size="14.00">1</text>
</g>
<!-- 13&#45;&gt;14 -->
<g id="edge78" class="edge"><title>13&#45;&gt;14</title>
<path fill="none" stroke="black" d="M1337.49,-2477.78C1326.06,-2460.21 1308.47,-2431.93 1296,-2406 1280.28,-2373.31 1266.22,-2333.9 1257.66,-2308.18"/>
<polygon fill="black" stroke="black" points="1260.89,-2306.8 1254.45,-2298.38 1254.24,-2308.98 1260.89,-2306.8"/>
<text text-anchor="middle" x="1300" y="-2384.3" font-family="xkcd" font-size="14.00">11</text>
</g>
<!-- 13&#45;&gt;15 -->
<g id="edge80" class="edge"><title>13&#45;&gt;15</title>
<path fill="none" stroke="black" d="M1425.55,-2477.95C1491.01,-2461.62 1577.77,-2435.2 1598,-2406 1607.11,-2392.85 1600.28,-2385.84 1598,-2370 1586.41,-2289.39 1547,-2275.44 1547,-2194 1547,-2194 1547,-2194 1547,-104 1547,-55.103 1496.16,-66.9108 1449,-54 1371.54,-32.7939 1161.06,-24.3788 1021.9,-21.0792"/>
<polygon fill="black" stroke="black" points="1021.66,-17.573 1011.59,-20.841 1021.5,-24.5711 1021.66,-17.573"/>
<text text-anchor="middle" x="1551" y="-1232.3" font-family="xkcd" font-size="14.00">9</text>
</g>
<!-- 35 -->
<g id="node36" class="node"><title>35</title>
<path fill="#b3e5fd" stroke="black" stroke-width="9" d="M1577,-2406C1577,-2406 1325,-2406 1325,-2406 1319,-2406 1313,-2400 1313,-2394 1313,-2394 1313,-2382 1313,-2382 1313,-2376 1319,-2370 1325,-2370 1325,-2370 1577,-2370 1577,-2370 1583,-2370 1589,-2376 1589,-2382 1589,-2382 1589,-2394 1589,-2394 1589,-2400 1583,-2406 1577,-2406"/>
<text text-anchor="middle" x="1451" y="-2384.3" font-family="xkcd" font-size="14.00">1ère lecture assemblee commission &#45; 2465</text>
</g>
<!-- 13&#45;&gt;35 -->
<g id="edge79" class="edge"><title>13&#45;&gt;35</title>
<path fill="none" stroke="black" stroke-width="13" d="M1365.39,-2477.97C1382.09,-2460.61 1408.18,-2433.5 1427.17,-2413.77"/>
<polygon fill="black" stroke="black" stroke-width="13" points="1435.58,-2421.43 1434.31,-2406.34 1419.18,-2405.66 1435.58,-2421.43"/>
<text text-anchor="middle" x="1433" y="-2438.3" font-family="xkcd" font-size="14.00">2466</text>
</g>
<!-- 14&#45;&gt;1 -->
<g id="edge86" class="edge"><title>14&#45;&gt;1</title>
<path fill="none" stroke="black" d="M1242.68,-2298.16C1230.4,-2332.09 1203.09,-2410.33 1187,-2478 1180.87,-2503.77 1176.24,-2533.65 1173.37,-2554.75"/>
<polygon fill="black" stroke="black" points="1169.87,-2554.55 1172.03,-2564.92 1176.81,-2555.46 1169.87,-2554.55"/>
<text text-anchor="middle" x="1203" y="-2438.3" font-family="xkcd" font-size="14.00">1</text>
</g>
<!-- 14&#45;&gt;7 -->
<g id="edge83" class="edge"><title>14&#45;&gt;7</title>
<path fill="none" stroke="black" stroke-width="7" d="M1336.04,-2261.95C1408.39,-2247.78 1511.25,-2227.64 1586.18,-2212.96"/>
<polygon fill="black" stroke="black" stroke-width="7" points="1587.46,-2218.95 1596.1,-2211.02 1585.11,-2206.93 1587.46,-2218.95"/>
<text text-anchor="middle" x="1507" y="-2232.8" font-family="xkcd" font-size="14.00">1370</text>
</g>
<!-- 14&#45;&gt;8 -->
<g id="edge84" class="edge"><title>14&#45;&gt;8</title>
<path fill="none" stroke="black" d="M1114,-2269.2C990.237,-2258.64 817.089,-2239.42 755,-2211 638.175,-2157.52 538,-2148.48 538,-2020 538,-2020 538,-2020 538,-1887.5 538,-1786.65 466.899,-1540.98 433,-1446 431.966,-1443.1 430.762,-1440.13 429.482,-1437.2"/>
<polygon fill="black" stroke="black" points="432.646,-1435.7 425.243,-1428.12 426.304,-1438.67 432.646,-1435.7"/>
<text text-anchor="middle" x="545" y="-1841.3" font-family="xkcd" font-size="14.00">119</text>
</g>
<!-- 14&#45;&gt;12 -->
<g id="edge87" class="edge"><title>14&#45;&gt;12</title>
<path fill="none" stroke="black" d="M1248.68,-2261.74C1248.39,-2244.57 1248,-2217.47 1248,-2194 1248,-2194 1248,-2194 1248,-1496 1248,-1271.86 1261.27,-701.835 1191,-489 1162.11,-401.5 1125.48,-379.812 1039,-348 977.578,-325.405 906.734,-309.497 846.811,-298.78"/>
<polygon fill="black" stroke="black" points="847.363,-295.323 836.908,-297.038 846.151,-302.217 847.363,-295.323"/>
<text text-anchor="middle" x="1257.5" y="-1275.8" font-family="xkcd" font-size="14.00">29</text>
</g>
<!-- 14&#45;&gt;13 -->
<g id="edge85" class="edge"><title>14&#45;&gt;13</title>
<path fill="none" stroke="black" d="M1249.55,-2298.23C1251.53,-2332.93 1260.61,-2412.02 1302,-2460 1305.57,-2464.14 1309.72,-2468.09 1314.03,-2471.73"/>
<polygon fill="black" stroke="black" points="1311.89,-2474.5 1321.91,-2477.96 1316.24,-2469.01 1311.89,-2474.5"/>
<text text-anchor="middle" x="1273" y="-2384.3" font-family="xkcd" font-size="14.00">1</text>
</g>
<!-- 14&#45;&gt;15 -->
<g id="edge89" class="edge"><title>14&#45;&gt;15</title>
<path fill="none" stroke="black" stroke-width="4" d="M1261.53,-2261.72C1272.26,-2245.18 1286,-2219.11 1286,-2194 1286,-2194 1286,-2194 1286,-104 1286,-48.8462 1136.95,-29.3782 1021.97,-22.5656"/>
<polygon fill="black" stroke="black" stroke-width="4" points="1021.84,-19.0527 1011.66,-21.9828 1021.45,-26.0416 1021.84,-19.0527"/>
<text text-anchor="middle" x="1299" y="-1145.3" font-family="xkcd" font-size="14.00">683</text>
</g>
<!-- 24 -->
<g id="node25" class="node"><title>24</title>
<path fill="#f48fb1" stroke="black" stroke-width="2" d="M968,-2211C968,-2211 776,-2211 776,-2211 770,-2211 764,-2205 764,-2199 764,-2199 764,-2187 764,-2187 764,-2181 770,-2175 776,-2175 776,-2175 968,-2175 968,-2175 974,-2175 980,-2181 980,-2187 980,-2187 980,-2199 980,-2199 980,-2205 974,-2211 968,-2211"/>
<text text-anchor="middle" x="872" y="-2189.3" font-family="xkcd" font-size="14.00">2ème lecture senat depot &#45; 454</text>
</g>
<!-- 14&#45;&gt;24 -->
<g id="edge88" class="edge"><title>14&#45;&gt;24</title>
<path fill="none" stroke="black" stroke-width="2" d="M1173.16,-2261.9C1110.78,-2247.84 1022.4,-2227.91 957.517,-2213.28"/>
<polygon fill="black" stroke="black" stroke-width="2" points="958.242,-2209.86 947.717,-2211.07 956.702,-2216.69 958.242,-2209.86"/>
<text text-anchor="middle" x="1094.5" y="-2232.8" font-family="xkcd" font-size="14.00">271</text>
</g>
<!-- 17 -->
<g id="node18" class="node"><title>17</title>
<path fill="#b3e5fd" stroke="black" d="M396,-993C396,-993 164,-993 164,-993 158,-993 152,-987 152,-981 152,-981 152,-969 152,-969 152,-963 158,-957 164,-957 164,-957 396,-957 396,-957 402,-957 408,-963 408,-969 408,-969 408,-981 408,-981 408,-987 402,-993 396,-993"/>
<text text-anchor="middle" x="280" y="-971.3" font-family="xkcd" font-size="14.00">nouv. lect. assemblee commission &#45; 204</text>
</g>
<!-- 16&#45;&gt;17 -->
<g id="edge15" class="edge"><title>16&#45;&gt;17</title>
<path fill="none" stroke="black" stroke-width="2" d="M254.476,-1043.8C258.9,-1032.05 264.851,-1016.24 269.895,-1002.84"/>
<polygon fill="black" stroke="black" stroke-width="2" points="273.286,-1003.77 273.534,-993.175 266.735,-1001.3 273.286,-1003.77"/>
<text text-anchor="middle" x="279.5" y="-1014.8" font-family="xkcd" font-size="14.00">204</text>
</g>
<!-- 18 -->
<g id="node19" class="node"><title>18</title>
<path fill="#b3e5fd" stroke="black" d="M393,-906C393,-906 167,-906 167,-906 161,-906 155,-900 155,-894 155,-894 155,-882 155,-882 155,-876 161,-870 167,-870 167,-870 393,-870 393,-870 399,-870 405,-876 405,-882 405,-882 405,-894 405,-894 405,-900 399,-906 393,-906"/>
<text text-anchor="middle" x="280" y="-884.3" font-family="xkcd" font-size="14.00">nouv. lect. assemblee hemicycle &#45; 205</text>
</g>
<!-- 16&#45;&gt;18 -->
<g id="edge16" class="edge"><title>16&#45;&gt;18</title>
<path fill="none" stroke="black" d="M205.955,-1043.92C166.409,-1025.2 116.397,-992.994 139,-957 152.716,-935.158 175.64,-920.165 199.06,-909.944"/>
<polygon fill="black" stroke="black" points="200.465,-913.151 208.392,-906.122 197.812,-906.674 200.465,-913.151"/>
<text text-anchor="middle" x="141" y="-971.3" font-family="xkcd" font-size="14.00">1</text>
</g>
<!-- 17&#45;&gt;18 -->
<g id="edge102" class="edge"><title>17&#45;&gt;18</title>
<path fill="none" stroke="black" stroke-width="2" d="M280,-956.799C280,-945.163 280,-929.548 280,-916.237"/>
<polygon fill="black" stroke="black" stroke-width="2" points="283.5,-916.175 280,-906.175 276.5,-916.175 283.5,-916.175"/>
<text text-anchor="middle" x="293.5" y="-927.8" font-family="xkcd" font-size="14.00">204</text>
</g>
<!-- 33 -->
<g id="node34" class="node"><title>33</title>
<path fill="#f48fb1" stroke="black" d="M366.5,-819C366.5,-819 193.5,-819 193.5,-819 187.5,-819 181.5,-813 181.5,-807 181.5,-807 181.5,-795 181.5,-795 181.5,-789 187.5,-783 193.5,-783 193.5,-783 366.5,-783 366.5,-783 372.5,-783 378.5,-789 378.5,-795 378.5,-795 378.5,-807 378.5,-807 378.5,-813 372.5,-819 366.5,-819"/>
<text text-anchor="middle" x="280" y="-797.3" font-family="xkcd" font-size="14.00">nouv. lect. senat depot &#45; 205</text>
</g>
<!-- 18&#45;&gt;33 -->
<g id="edge52" class="edge"><title>18&#45;&gt;33</title>
<path fill="none" stroke="black" stroke-width="2" d="M280,-869.799C280,-858.163 280,-842.548 280,-829.237"/>
<polygon fill="black" stroke="black" stroke-width="2" points="283.5,-829.175 280,-819.175 276.5,-829.175 283.5,-829.175"/>
<text text-anchor="middle" x="293.5" y="-840.8" font-family="xkcd" font-size="14.00">205</text>
</g>
<!-- 19&#45;&gt;8 -->
<g id="edge36" class="edge"><title>19&#45;&gt;8</title>
<path fill="none" stroke="black" d="M420.318,-2261.88C396.949,-2247.36 370,-2224.08 370,-2194 370,-2194 370,-2194 370,-1496 370,-1474.06 382.005,-1452.35 393.75,-1436.36"/>
<polygon fill="black" stroke="black" points="396.794,-1438.15 400.169,-1428.11 391.268,-1433.85 396.794,-1438.15"/>
<text text-anchor="middle" x="379" y="-1841.3" font-family="xkcd" font-size="14.00">83</text>
</g>
<!-- 19&#45;&gt;11 -->
<g id="edge38" class="edge"><title>19&#45;&gt;11</title>
<path fill="none" stroke="black" d="M588.685,-2276.67C726.056,-2271.74 927.501,-2256.67 989,-2211 1066.34,-2153.57 1134,-1898.83 1134,-1802.5 1134,-1802.5 1134,-1802.5 1134,-1496 1134,-1448.56 1086.9,-1427.04 1037.64,-1417.5"/>
<polygon fill="black" stroke="black" points="1038.23,-1414.05 1027.77,-1415.75 1037.01,-1420.94 1038.23,-1414.05"/>
<text text-anchor="middle" x="1135" y="-1841.3" font-family="xkcd" font-size="14.00">1</text>
</g>
<!-- 19&#45;&gt;12 -->
<g id="edge39" class="edge"><title>19&#45;&gt;12</title>
<path fill="none" stroke="black" d="M441.135,-2261.77C430.111,-2245.26 416,-2219.22 416,-2194 416,-2194 416,-2194 416,-1626.5 416,-1527.72 481.337,-1520.5 516,-1428 635.477,-1109.15 637,-1012 637,-671.5 637,-671.5 637,-671.5 637,-365 637,-339.538 656.186,-318.204 675.278,-303.278"/>
<polygon fill="black" stroke="black" points="677.434,-306.037 683.399,-297.28 673.276,-300.406 677.434,-306.037"/>
<text text-anchor="middle" x="579.5" y="-1275.8" font-family="xkcd" font-size="14.00">27</text>
</g>
<!-- 19&#45;&gt;15 -->
<g id="edge41" class="edge"><title>19&#45;&gt;15</title>
<path fill="none" stroke="black" d="M387.857,-2261.94C355.743,-2249.27 324,-2228.11 324,-2194 324,-2194 324,-2194 324,-1626.5 324,-1310.86 39,-1291.64 39,-976 39,-976 39,-976 39,-800 39,-742.887 38,-728.613 38,-671.5 38,-671.5 38,-671.5 38,-104 38,-72.573 59.2341,-66.656 88,-54 147.693,-27.7373 548.393,-21.167 760.244,-19.5333"/>
<polygon fill="black" stroke="black" points="760.525,-23.0314 770.499,-19.4569 760.473,-16.0316 760.525,-23.0314"/>
<text text-anchor="middle" x="95" y="-1145.3" font-family="xkcd" font-size="14.00">152</text>
</g>
<!-- 19&#45;&gt;24 -->
<g id="edge40" class="edge"><title>19&#45;&gt;24</title>
<path fill="none" stroke="black" d="M588.725,-2265.36C629.253,-2260.05 673.665,-2253.03 714,-2244 748.306,-2236.32 785.858,-2224.58 815.742,-2214.41"/>
<polygon fill="black" stroke="black" points="817.251,-2217.59 825.567,-2211.03 814.972,-2210.97 817.251,-2217.59"/>
<text text-anchor="middle" x="778" y="-2232.8" font-family="xkcd" font-size="14.00">183</text>
</g>
<!-- 19&#45;&gt;27 -->
<g id="edge37" class="edge"><title>19&#45;&gt;27</title>
<path fill="none" stroke="black" d="M454,-2261.74C454,-2244.57 454,-2217.46 454,-2194 454,-2194 454,-2194 454,-1887.5 454,-1780.77 582.37,-1720.5 667.703,-1692.22"/>
<polygon fill="black" stroke="black" points="668.93,-1695.5 677.367,-1689.09 666.775,-1688.84 668.93,-1695.5"/>
<text text-anchor="middle" x="460.5" y="-1971.8" font-family="xkcd" font-size="14.00">18</text>
</g>
<!-- 20&#45;&gt;8 -->
<g id="edge56" class="edge"><title>20&#45;&gt;8</title>
<path fill="none" stroke="black" d="M375.136,-2369.92C333.049,-2354.47 286,-2326.93 286,-2281 286,-2281 286,-2281 286,-1626.5 286,-1536.86 318.36,-1514.65 376,-1446 379.171,-1442.22 382.761,-1438.5 386.456,-1434.97"/>
<polygon fill="black" stroke="black" points="389.037,-1437.35 394.091,-1428.04 384.334,-1432.17 389.037,-1437.35"/>
<text text-anchor="middle" x="290.5" y="-1884.8" font-family="xkcd" font-size="14.00">6</text>
</g>
<!-- 20&#45;&gt;15 -->
<g id="edge58" class="edge"><title>20&#45;&gt;15</title>
<path fill="none" stroke="black" d="M316.543,-2369.95C268.159,-2355.65 224,-2329.35 224,-2281 224,-2281 224,-2281 224,-1539.5 224,-1322.83 0,-1323.17 0,-1106.5 0,-1106.5 0,-1106.5 0,-104 0,-71.6165 23.1604,-66.5812 53,-54 116.232,-27.3395 540.725,-20.9645 760.158,-19.4562"/>
<polygon fill="black" stroke="black" points="760.473,-22.9543 770.45,-19.388 760.427,-15.9544 760.473,-22.9543"/>
<text text-anchor="middle" x="19" y="-1188.8" font-family="xkcd" font-size="14.00">1</text>
</g>
<!-- 20&#45;&gt;19 -->
<g id="edge55" class="edge"><title>20&#45;&gt;19</title>
<path fill="none" stroke="black" stroke-width="3" d="M442.249,-2369.97C444.441,-2353.38 447.808,-2327.88 450.377,-2308.43"/>
<polygon fill="black" stroke="black" stroke-width="3" points="453.87,-2308.71 451.71,-2298.34 446.93,-2307.8 453.87,-2308.71"/>
<text text-anchor="middle" x="463" y="-2330.3" font-family="xkcd" font-size="14.00">462</text>
</g>
<!-- 26 -->
<g id="node27" class="node"><title>26</title>
<path fill="#f48fb1" stroke="black" stroke-width="2" d="M838.5,-2037C838.5,-2037 617.5,-2037 617.5,-2037 611.5,-2037 605.5,-2031 605.5,-2025 605.5,-2025 605.5,-2013 605.5,-2013 605.5,-2007 611.5,-2001 617.5,-2001 617.5,-2001 838.5,-2001 838.5,-2001 844.5,-2001 850.5,-2007 850.5,-2013 850.5,-2013 850.5,-2025 850.5,-2025 850.5,-2031 844.5,-2037 838.5,-2037"/>
<text text-anchor="middle" x="728" y="-2015.3" font-family="xkcd" font-size="14.00">2ème lecture senat hemicycle &#45; 455</text>
</g>
<!-- 20&#45;&gt;26 -->
<g id="edge57" class="edge"><title>20&#45;&gt;26</title>
<path fill="none" stroke="black" d="M545.036,-2369.97C592.874,-2355.61 639,-2329.25 639,-2281 639,-2281 639,-2281 639,-2105 639,-2077.93 660.795,-2056.84 682.814,-2042.44"/>
<polygon fill="black" stroke="black" points="684.867,-2045.28 691.543,-2037.05 681.194,-2039.32 684.867,-2045.28"/>
<text text-anchor="middle" x="641" y="-2189.3" font-family="xkcd" font-size="14.00">1</text>
</g>
<!-- 21 -->
<g id="node22" class="node"><title>21</title>
<path fill="#f48fb1" stroke="black" d="M827.5,-123C827.5,-123 776.5,-123 776.5,-123 770.5,-123 764.5,-117 764.5,-111 764.5,-111 764.5,-99 764.5,-99 764.5,-93 770.5,-87 776.5,-87 776.5,-87 827.5,-87 827.5,-87 833.5,-87 839.5,-93 839.5,-99 839.5,-99 839.5,-111 839.5,-111 839.5,-117 833.5,-123 827.5,-123"/>
<text text-anchor="middle" x="802" y="-101.3" font-family="xkcd" font-size="14.00"> senat &#160;&#45; 1</text>
</g>
<!-- 21&#45;&gt;15 -->
<g id="edge19" class="edge"><title>21&#45;&gt;15</title>
<path fill="none" stroke="black" d="M817.597,-86.9265C826.796,-77.0687 838.796,-64.5687 850,-54 854,-50.2272 858.323,-46.3427 862.611,-42.5965"/>
<polygon fill="black" stroke="black" points="864.914,-45.2317 870.212,-36.0567 860.349,-39.9252 864.914,-45.2317"/>
<text text-anchor="middle" x="852" y="-57.8" font-family="xkcd" font-size="14.00">1</text>
</g>
<!-- 22&#45;&gt;12 -->
<g id="edge20" class="edge"><title>22&#45;&gt;12</title>
<path fill="none" stroke="black" d="M453.313,-1217.9C482.297,-1207.4 514.795,-1191.2 537,-1167 629.429,-1066.27 599,-914.449 599,-671.5 599,-671.5 599,-671.5 599,-365 599,-340.35 604.915,-331.749 623,-315 628.497,-309.909 634.817,-305.529 641.505,-301.767"/>
<polygon fill="black" stroke="black" points="643.5,-304.678 650.811,-297.011 640.314,-298.445 643.5,-304.678"/>
<text text-anchor="middle" x="609.5" y="-753.8" font-family="xkcd" font-size="14.00">110</text>
</g>
<!-- 22&#45;&gt;15 -->
<g id="edge23" class="edge"><title>22&#45;&gt;15</title>
<path fill="none" stroke="black" stroke-width="2" d="M337.75,-1217.94C278.962,-1195.45 182.723,-1150.28 128,-1080 85.9726,-1026.02 84,-1000.91 84,-932.5 84,-932.5 84,-932.5 84,-669.5 84,-554.334 76,-525.666 76,-410.5 76,-410.5 76,-410.5 76,-104 76,-74.9781 91.978,-66.8502 118,-54 173.858,-26.4162 554.61,-20.4302 760.104,-19.2252"/>
<polygon fill="black" stroke="black" stroke-width="2" points="760.379,-22.7239 770.359,-19.1682 760.34,-15.724 760.379,-22.7239"/>
<text text-anchor="middle" x="98" y="-623.3" font-family="xkcd" font-size="14.00">230</text>
</g>
<!-- 22&#45;&gt;16 -->
<g id="edge22" class="edge"><title>22&#45;&gt;16</title>
<path fill="none" stroke="black" d="M369.524,-1217.87C355.572,-1204.55 336.283,-1185.33 321,-1167 299.863,-1141.65 278.497,-1110.4 264.39,-1088.82"/>
<polygon fill="black" stroke="black" points="267.183,-1086.69 258.81,-1080.2 261.308,-1090.5 267.183,-1086.69"/>
<text text-anchor="middle" x="327.5" y="-1145.3" font-family="xkcd" font-size="14.00">12</text>
</g>
<!-- 22&#45;&gt;23 -->
<g id="edge21" class="edge"><title>22&#45;&gt;23</title>
<path fill="none" stroke="black" d="M402.03,-1217.72C406.157,-1212.23 410.499,-1206.02 414,-1200 418.291,-1192.62 422.284,-1184.25 425.658,-1176.5"/>
<polygon fill="black" stroke="black" points="428.947,-1177.71 429.577,-1167.13 422.489,-1175 428.947,-1177.71"/>
<text text-anchor="middle" x="432.5" y="-1188.8" font-family="xkcd" font-size="14.00">188</text>
</g>
<!-- 23&#45;&gt;12 -->
<g id="edge27" class="edge"><title>23&#45;&gt;12</title>
<path fill="none" stroke="black" d="M493.06,-1130.93C523.601,-1117.9 555,-1096.39 555,-1063 555,-1063 555,-1063 555,-756.5 555,-641.358 561,-612.642 561,-497.5 561,-497.5 561,-497.5 561,-365 561,-340.35 566.069,-330.787 585,-315 591.282,-309.761 598.285,-305.302 605.686,-301.507"/>
<polygon fill="black" stroke="black" points="607.666,-304.445 615.25,-297.047 604.708,-298.101 607.666,-304.445"/>
<text text-anchor="middle" x="564" y="-710.3" font-family="xkcd" font-size="14.00">77</text>
</g>
<!-- 23&#45;&gt;15 -->
<g id="edge29" class="edge"><title>23&#45;&gt;15</title>
<path fill="none" stroke="black" d="M441.097,-1130.75C454.261,-1082.22 483.712,-943.342 414,-870 392.693,-847.584 306.191,-858.703 276,-852 228.659,-841.489 206.495,-853.083 172,-819 151.855,-799.095 152,-786.82 152,-758.5 152,-758.5 152,-758.5 152,-104 152,-43.5257 547.617,-26.0419 759.929,-21.0132"/>
<polygon fill="black" stroke="black" points="760.293,-24.5058 770.21,-20.776 760.132,-17.5077 760.293,-24.5058"/>
<text text-anchor="middle" x="162.5" y="-579.8" font-family="xkcd" font-size="14.00">109</text>
</g>
<!-- 23&#45;&gt;16 -->
<g id="edge28" class="edge"><title>23&#45;&gt;16</title>
<path fill="none" stroke="black" d="M397.955,-1130.8C368.171,-1117.33 326.603,-1098.54 294.784,-1084.15"/>
<polygon fill="black" stroke="black" points="296.221,-1080.96 285.667,-1080.03 293.337,-1087.34 296.221,-1080.96"/>
<text text-anchor="middle" x="359" y="-1101.8" font-family="xkcd" font-size="14.00">2</text>
</g>
<!-- 23&#45;&gt;22 -->
<g id="edge26" class="edge"><title>23&#45;&gt;22</title>
<path fill="none" stroke="black" stroke-width="2" d="M401.195,-1167.06C394.684,-1171.92 388.752,-1177.87 385,-1185 381.379,-1191.88 380.652,-1200.05 381.239,-1207.77"/>
<polygon fill="black" stroke="black" stroke-width="2" points="377.804,-1208.46 382.707,-1217.86 384.731,-1207.46 377.804,-1208.46"/>
<text text-anchor="middle" x="397.5" y="-1188.8" font-family="xkcd" font-size="14.00">347</text>
</g>
<!-- 25 -->
<g id="node26" class="node"><title>25</title>
<path fill="#f48fb1" stroke="black" stroke-width="2" d="M955,-2124C955,-2124 729,-2124 729,-2124 723,-2124 717,-2118 717,-2112 717,-2112 717,-2100 717,-2100 717,-2094 723,-2088 729,-2088 729,-2088 955,-2088 955,-2088 961,-2088 967,-2094 967,-2100 967,-2100 967,-2112 967,-2112 967,-2118 961,-2124 955,-2124"/>
<text text-anchor="middle" x="842" y="-2102.3" font-family="xkcd" font-size="14.00">2ème lecture senat commission &#45; 449</text>
</g>
<!-- 24&#45;&gt;25 -->
<g id="edge24" class="edge"><title>24&#45;&gt;25</title>
<path fill="none" stroke="black" stroke-width="3" d="M865.929,-2174.8C861.781,-2163.05 856.202,-2147.24 851.474,-2133.84"/>
<polygon fill="black" stroke="black" stroke-width="3" points="854.691,-2132.44 848.062,-2124.18 848.09,-2134.77 854.691,-2132.44"/>
<text text-anchor="middle" x="871.5" y="-2145.8" font-family="xkcd" font-size="14.00">449</text>
</g>
<!-- 24&#45;&gt;26 -->
<g id="edge25" class="edge"><title>24&#45;&gt;26</title>
<path fill="none" stroke="black" d="M911.055,-2174.97C950.345,-2155.43 1001.71,-2121.7 976,-2088 959.685,-2066.61 903.771,-2050.29 849.157,-2039.01"/>
<polygon fill="black" stroke="black" points="849.836,-2035.57 839.342,-2037.03 848.453,-2042.43 849.836,-2035.57"/>
<text text-anchor="middle" x="987.5" y="-2102.3" font-family="xkcd" font-size="14.00">5</text>
</g>
<!-- 25&#45;&gt;26 -->
<g id="edge81" class="edge"><title>25&#45;&gt;26</title>
<path fill="none" stroke="black" stroke-width="3" d="M818.93,-2087.8C801.701,-2074.95 777.97,-2057.26 759.071,-2043.17"/>
<polygon fill="black" stroke="black" stroke-width="3" points="761.144,-2040.35 751.035,-2037.18 756.96,-2045.96 761.144,-2040.35"/>
<text text-anchor="middle" x="804.5" y="-2058.8" font-family="xkcd" font-size="14.00">449</text>
</g>
<!-- 26&#45;&gt;4 -->
<g id="edge68" class="edge"><title>26&#45;&gt;4</title>
<path fill="none" stroke="black" d="M746.01,-2000.8C759.16,-1988.24 777.16,-1971.05 791.745,-1957.12"/>
<polygon fill="black" stroke="black" points="794.202,-1959.61 799.016,-1950.18 789.367,-1954.55 794.202,-1959.61"/>
<text text-anchor="middle" x="787.5" y="-1971.8" font-family="xkcd" font-size="14.00">23</text>
</g>
<!-- 26&#45;&gt;8 -->
<g id="edge64" class="edge"><title>26&#45;&gt;8</title>
<path fill="none" stroke="black" d="M635.01,-2000.89C622.607,-1996.28 610.549,-1990.43 600,-1983 546.77,-1945.52 547.239,-1920.12 516,-1863 483.484,-1803.55 475.567,-1787.44 458,-1722 430.514,-1619.6 420.547,-1493.18 417.346,-1438.42"/>
<polygon fill="black" stroke="black" points="420.825,-1437.95 416.777,-1428.16 413.836,-1438.34 420.825,-1437.95"/>
<text text-anchor="middle" x="469" y="-1710.8" font-family="xkcd" font-size="14.00">106</text>
</g>
<!-- 26&#45;&gt;10 -->
<g id="edge66" class="edge"><title>26&#45;&gt;10</title>
<path fill="none" stroke="black" d="M714.796,-2037.18C703.482,-2053.65 689,-2079.67 689,-2105 689,-2389 689,-2389 689,-2389 689,-2417.4 677.017,-2447.8 666.69,-2468.73"/>
<polygon fill="black" stroke="black" points="663.569,-2467.15 662.11,-2477.64 669.795,-2470.35 663.569,-2467.15"/>
<text text-anchor="middle" x="699.5" y="-2232.8" font-family="xkcd" font-size="14.00">145</text>
</g>
<!-- 26&#45;&gt;11 -->
<g id="edge65" class="edge"><title>26&#45;&gt;11</title>
<path fill="none" stroke="black" d="M850.565,-2004.68C930.474,-1992.46 1020,-1970.42 1020,-1933 1020,-1933 1020,-1933 1020,-1496 1020,-1468.46 997.502,-1447.45 974.637,-1433.2"/>
<polygon fill="black" stroke="black" points="976.297,-1430.12 965.902,-1428.08 972.754,-1436.16 976.297,-1430.12"/>
<text text-anchor="middle" x="1025" y="-1710.8" font-family="xkcd" font-size="14.00">3</text>
</g>
<!-- 26&#45;&gt;12 -->
<g id="edge67" class="edge"><title>26&#45;&gt;12</title>
<path fill="none" stroke="black" d="M708.408,-2000.64C679.784,-1974.06 627.107,-1920.3 601,-1863 574.644,-1805.15 582.352,-1785.34 577,-1722 560.573,-1527.59 615.239,-1481 636,-1287 661.062,-1052.81 675,-994.028 675,-758.5 675,-758.5 675,-758.5 675,-365 675,-343.92 684.861,-322.26 694.536,-306.081"/>
<polygon fill="black" stroke="black" points="697.744,-307.556 700.135,-297.234 691.83,-303.812 697.744,-307.556"/>
<text text-anchor="middle" x="663" y="-1145.3" font-family="xkcd" font-size="14.00">25</text>
</g>
<!-- 26&#45;&gt;15 -->
<g id="edge69" class="edge"><title>26&#45;&gt;15</title>
<path fill="none" stroke="black" d="M850.64,-2013.24C894.209,-2008.47 942.869,-1999.52 985,-1983 1008.76,-1973.68 1018.29,-1971.53 1032,-1950 1067.29,-1894.55 1135,-1433.23 1135,-1367.5 1135,-1367.5 1135,-1367.5 1135,-1191.5 1135,-1076.35 1142,-1047.65 1142,-932.5 1142,-932.5 1142,-932.5 1142,-582.5 1142,-504.399 1178,-488.601 1178,-410.5 1178,-410.5 1178,-410.5 1178,-104 1178,-68.814 1097.69,-47.0686 1022.04,-34.39"/>
<polygon fill="black" stroke="black" points="1022.31,-30.8893 1011.88,-32.7367 1021.19,-37.7983 1022.31,-30.8893"/>
<text text-anchor="middle" x="1152" y="-1014.8" font-family="xkcd" font-size="14.00">152</text>
</g>
<!-- 26&#45;&gt;19 -->
<g id="edge63" class="edge"><title>26&#45;&gt;19</title>
<path fill="none" stroke="black" d="M659.005,-2037.09C647.049,-2041.79 635.199,-2047.67 625,-2055 549.52,-2109.25 491.892,-2206.35 467.191,-2252.82"/>
<polygon fill="black" stroke="black" points="463.957,-2251.45 462.425,-2261.93 470.16,-2254.69 463.957,-2251.45"/>
<text text-anchor="middle" x="540" y="-2145.8" font-family="xkcd" font-size="14.00">1</text>
</g>
<!-- 27&#45;&gt;2 -->
<g id="edge71" class="edge"><title>27&#45;&gt;2</title>
<path fill="none" stroke="black" d="M752.725,-1652.8C760.268,-1640.7 770.492,-1624.3 778.996,-1610.67"/>
<polygon fill="black" stroke="black" points="781.97,-1612.51 784.291,-1602.18 776.03,-1608.81 781.97,-1612.51"/>
<text text-anchor="middle" x="781.5" y="-1623.8" font-family="xkcd" font-size="14.00">20</text>
</g>
<!-- 27&#45;&gt;3 -->
<g id="edge72" class="edge"><title>27&#45;&gt;3</title>
<path fill="none" stroke="black" d="M713.115,-1652.93C683.15,-1632.94 643.228,-1598.43 663,-1566 676.152,-1544.43 698.578,-1529.41 721.25,-1519.09"/>
<polygon fill="black" stroke="black" points="722.794,-1522.23 730.612,-1515.08 720.041,-1515.8 722.794,-1522.23"/>
<text text-anchor="middle" x="665" y="-1580.3" font-family="xkcd" font-size="14.00">1</text>
</g>
<!-- 28 -->
<g id="node29" class="node"><title>28</title>
<path fill="#b3e5fd" stroke="black" d="M734,-123C734,-123 658,-123 658,-123 652,-123 646,-117 646,-111 646,-111 646,-99 646,-99 646,-93 652,-87 658,-87 658,-87 734,-87 734,-87 740,-87 746,-93 746,-99 746,-99 746,-111 746,-111 746,-117 740,-123 734,-123"/>
<text text-anchor="middle" x="696" y="-101.3" font-family="xkcd" font-size="14.00"> assemblee &#160;&#45; 1</text>
</g>
<!-- 28&#45;&gt;29 -->
<g id="edge35" class="edge"><title>28&#45;&gt;29</title>
<path fill="none" stroke="black" d="M701.052,-123.175C704.506,-134.921 709.156,-150.729 713.097,-164.129"/>
<polygon fill="black" stroke="black" points="709.761,-165.193 715.941,-173.799 716.477,-163.218 709.761,-165.193"/>
<text text-anchor="middle" x="712" y="-144.8" font-family="xkcd" font-size="14.00">1</text>
</g>
<!-- 29&#45;&gt;21 -->
<g id="edge99" class="edge"><title>29&#45;&gt;21</title>
<path fill="none" stroke="black" d="M737.392,-173.799C749.249,-161.356 765.441,-144.364 778.649,-130.504"/>
<polygon fill="black" stroke="black" points="781.268,-132.829 785.633,-123.175 776.2,-128 781.268,-132.829"/>
<text text-anchor="middle" x="769" y="-144.8" font-family="xkcd" font-size="14.00">1</text>
</g>
<!-- 29&#45;&gt;28 -->
<g id="edge100" class="edge"><title>29&#45;&gt;28</title>
<path fill="none" stroke="black" d="M709.306,-173.863C706.095,-168.378 702.961,-162.133 701,-156 698.689,-148.771 697.371,-140.68 696.639,-133.149"/>
<polygon fill="black" stroke="black" points="700.12,-132.762 695.95,-123.023 693.137,-133.237 700.12,-132.762"/>
<text text-anchor="middle" x="703" y="-144.8" font-family="xkcd" font-size="14.00">1</text>
</g>
<!-- 30 -->
<g id="node31" class="node"><title>30</title>
<path fill="#f48fb1" stroke="black" d="M440.5,-645C440.5,-645 239.5,-645 239.5,-645 233.5,-645 227.5,-639 227.5,-633 227.5,-633 227.5,-621 227.5,-621 227.5,-615 233.5,-609 239.5,-609 239.5,-609 440.5,-609 440.5,-609 446.5,-609 452.5,-615 452.5,-621 452.5,-621 452.5,-633 452.5,-633 452.5,-639 446.5,-645 440.5,-645"/>
<text text-anchor="middle" x="340" y="-623.3" font-family="xkcd" font-size="14.00">nouv. lect. senat hemicycle &#45; 205</text>
</g>
<!-- 30&#45;&gt;12 -->
<g id="edge43" class="edge"><title>30&#45;&gt;12</title>
<path fill="none" stroke="black" d="M452.509,-611.636C490.279,-599.97 523,-578.921 523,-541 523,-541 523,-541 523,-365 523,-340.35 527.611,-330.221 547,-315 554.575,-309.054 569.11,-303.862 586.557,-299.426"/>
<polygon fill="black" stroke="black" points="587.613,-302.773 596.523,-297.04 585.983,-295.965 587.613,-302.773"/>
<text text-anchor="middle" x="528" y="-449.3" font-family="xkcd" font-size="14.00">2</text>
</g>
<!-- 30&#45;&gt;15 -->
<g id="edge44" class="edge"><title>30&#45;&gt;15</title>
<path fill="none" stroke="black" d="M298.285,-608.973C232.983,-579.224 114,-511.204 114,-410.5 114,-410.5 114,-410.5 114,-104 114,-79.3504 117.447,-67.6087 138,-54 163.431,-37.1612 551.233,-26.285 760.082,-21.6179"/>
<polygon fill="black" stroke="black" points="760.277,-25.1146 770.197,-21.3936 760.122,-18.1163 760.277,-25.1146"/>
<text text-anchor="middle" x="119" y="-318.8" font-family="xkcd" font-size="14.00">3</text>
</g>
<!-- 31 -->
<g id="node32" class="node"><title>31</title>
<path fill="#b3e5fd" stroke="black" d="M443,-558C443,-558 237,-558 237,-558 231,-558 225,-552 225,-546 225,-546 225,-534 225,-534 225,-528 231,-522 237,-522 237,-522 443,-522 443,-522 449,-522 455,-528 455,-534 455,-534 455,-546 455,-546 455,-552 449,-558 443,-558"/>
<text text-anchor="middle" x="340" y="-536.3" font-family="xkcd" font-size="14.00">l. définitive assemblee depot &#45; 200</text>
</g>
<!-- 30&#45;&gt;31 -->
<g id="edge42" class="edge"><title>30&#45;&gt;31</title>
<path fill="none" stroke="black" stroke-width="2" d="M340,-608.799C340,-597.163 340,-581.548 340,-568.237"/>
<polygon fill="black" stroke="black" stroke-width="2" points="343.5,-568.175 340,-558.175 336.5,-568.175 343.5,-568.175"/>
<text text-anchor="middle" x="354" y="-579.8" font-family="xkcd" font-size="14.00">200</text>
</g>
<!-- 32 -->
<g id="node33" class="node"><title>32</title>
<path fill="#b3e5fd" stroke="black" d="M481,-384C481,-384 247,-384 247,-384 241,-384 235,-378 235,-372 235,-372 235,-360 235,-360 235,-354 241,-348 247,-348 247,-348 481,-348 481,-348 487,-348 493,-354 493,-360 493,-360 493,-372 493,-372 493,-378 487,-384 481,-384"/>
<text text-anchor="middle" x="364" y="-362.3" font-family="xkcd" font-size="14.00">l. définitive assemblee hemicycle &#45; 200</text>
</g>
<!-- 31&#45;&gt;32 -->
<g id="edge75" class="edge"><title>31&#45;&gt;32</title>
<path fill="none" stroke="black" d="M285.275,-521.966C238.2,-504.255 181.58,-473.712 207,-435 221.602,-412.763 245.202,-397.763 269.717,-387.657"/>
<polygon fill="black" stroke="black" points="271.072,-390.885 279.141,-384.019 268.551,-384.355 271.072,-390.885"/>
<text text-anchor="middle" x="213.5" y="-449.3" font-family="xkcd" font-size="14.00">14</text>
</g>
<!-- 36 -->
<g id="node37" class="node"><title>36</title>
<path fill="#b3e5fd" stroke="black" d="M474.5,-471C474.5,-471 241.5,-471 241.5,-471 235.5,-471 229.5,-465 229.5,-459 229.5,-459 229.5,-447 229.5,-447 229.5,-441 235.5,-435 241.5,-435 241.5,-435 474.5,-435 474.5,-435 480.5,-435 486.5,-441 486.5,-447 486.5,-447 486.5,-459 486.5,-459 486.5,-465 480.5,-471 474.5,-471"/>
<text text-anchor="middle" x="358" y="-449.3" font-family="xkcd" font-size="14.00">l. définitive assemblee commission &#45; 186</text>
</g>
<!-- 31&#45;&gt;36 -->
<g id="edge76" class="edge"><title>31&#45;&gt;36</title>
<path fill="none" stroke="black" d="M343.643,-521.799C346.107,-510.163 349.413,-494.548 352.232,-481.237"/>
<polygon fill="black" stroke="black" points="355.715,-481.684 354.363,-471.175 348.867,-480.233 355.715,-481.684"/>
<text text-anchor="middle" x="361.5" y="-492.8" font-family="xkcd" font-size="14.00">186</text>
</g>
<!-- 32&#45;&gt;12 -->
<g id="edge50" class="edge"><title>32&#45;&gt;12</title>
<path fill="none" stroke="black" d="M399.559,-347.97C423.718,-337.047 456.674,-323.389 487,-315 510.207,-308.581 535.101,-303.238 559.581,-298.823"/>
<polygon fill="black" stroke="black" points="560.427,-302.228 569.671,-297.051 559.216,-295.334 560.427,-302.228"/>
<text text-anchor="middle" x="498" y="-318.8" font-family="xkcd" font-size="14.00">120</text>
</g>
<!-- 32&#45;&gt;15 -->
<g id="edge51" class="edge"><title>32&#45;&gt;15</title>
<path fill="none" stroke="black" d="M371.531,-347.787C378.239,-330.872 387,-304.154 387,-280 387,-280 387,-280 387,-104 387,-66.1586 610.774,-41.0072 760.107,-28.4359"/>
<polygon fill="black" stroke="black" points="760.604,-31.9067 770.279,-27.5892 760.024,-24.9308 760.604,-31.9067"/>
<text text-anchor="middle" x="396" y="-188.3" font-family="xkcd" font-size="14.00">80</text>
</g>
<!-- 33&#45;&gt;30 -->
<g id="edge91" class="edge"><title>33&#45;&gt;30</title>
<path fill="none" stroke="black" d="M265.47,-782.833C249.466,-761.709 227.876,-725.072 243,-696 253.277,-676.244 272.215,-661.035 290.647,-650.061"/>
<polygon fill="black" stroke="black" points="292.618,-652.968 299.615,-645.012 289.184,-646.868 292.618,-652.968"/>
<text text-anchor="middle" x="247.5" y="-710.3" font-family="xkcd" font-size="14.00">4</text>
</g>
<!-- 39 -->
<g id="node40" class="node"><title>39</title>
<path fill="#f48fb1" stroke="black" d="M476.5,-732C476.5,-732 273.5,-732 273.5,-732 267.5,-732 261.5,-726 261.5,-720 261.5,-720 261.5,-708 261.5,-708 261.5,-702 267.5,-696 273.5,-696 273.5,-696 476.5,-696 476.5,-696 482.5,-696 488.5,-702 488.5,-708 488.5,-708 488.5,-720 488.5,-720 488.5,-726 482.5,-732 476.5,-732"/>
<text text-anchor="middle" x="375" y="-710.3" font-family="xkcd" font-size="14.00">nouv. lect. senat commission &#45; 201</text>
</g>
<!-- 33&#45;&gt;39 -->
<g id="edge92" class="edge"><title>33&#45;&gt;39</title>
<path fill="none" stroke="black" stroke-width="2" d="M299.225,-782.799C313.26,-770.241 332.474,-753.049 348.042,-739.12"/>
<polygon fill="black" stroke="black" stroke-width="2" points="350.685,-741.452 355.804,-732.175 346.018,-736.235 350.685,-741.452"/>
<text text-anchor="middle" x="345" y="-753.8" font-family="xkcd" font-size="14.00">201</text>
</g>
<!-- 34&#45;&gt;12 -->
<g id="edge53" class="edge"><title>34&#45;&gt;12</title>
<path fill="none" stroke="black" d="M883.201,-347.891C859.781,-338.133 829.793,-325.744 803,-315 791.336,-310.323 778.786,-305.383 766.869,-300.737"/>
<polygon fill="black" stroke="black" points="768.065,-297.447 757.476,-297.084 765.528,-303.971 768.065,-297.447"/>
<text text-anchor="middle" x="842" y="-318.8" font-family="xkcd" font-size="14.00">1</text>
</g>
<!-- 34&#45;&gt;15 -->
<g id="edge54" class="edge"><title>34&#45;&gt;15</title>
<path fill="none" stroke="black" d="M921.103,-347.8C918.472,-330.67 915,-303.595 915,-280 915,-280 915,-280 915,-104 915,-83.9365 908.73,-62.1776 902.6,-45.6975"/>
<polygon fill="black" stroke="black" points="905.775,-44.2067 898.858,-36.1809 899.26,-46.7681 905.775,-44.2067"/>
<text text-anchor="middle" x="921" y="-188.3" font-family="xkcd" font-size="14.00">17</text>
</g>
<!-- 35&#45;&gt;1 -->
<g id="edge60" class="edge"><title>35&#45;&gt;1</title>
<path fill="none" stroke="black" d="M1462.81,-2406.4C1478.98,-2432.61 1503.31,-2482.5 1478,-2514 1465.62,-2529.41 1369.24,-2549.07 1287.54,-2563.28"/>
<polygon fill="black" stroke="black" points="1286.91,-2559.84 1277.66,-2564.99 1288.11,-2566.73 1286.91,-2559.84"/>
<text text-anchor="middle" x="1491" y="-2492.3" font-family="xkcd" font-size="14.00">1</text>
</g>
<!-- 35&#45;&gt;7 -->
<g id="edge59" class="edge"><title>35&#45;&gt;7</title>
<path fill="none" stroke="black" d="M1471.59,-2369.87C1513.21,-2335.25 1607.4,-2256.89 1654.73,-2217.52"/>
<polygon fill="black" stroke="black" points="1657.01,-2220.18 1662.46,-2211.09 1652.53,-2214.79 1657.01,-2220.18"/>
<text text-anchor="middle" x="1603" y="-2276.3" font-family="xkcd" font-size="14.00">2</text>
</g>
<!-- 35&#45;&gt;14 -->
<g id="edge61" class="edge"><title>35&#45;&gt;14</title>
<path fill="none" stroke="black" stroke-width="13" d="M1418.55,-2369.97C1383.9,-2351.79 1328.87,-2322.91 1290.96,-2303.02"/>
<polygon fill="black" stroke="black" stroke-width="13" points="1295.85,-2292.74 1281.71,-2298.16 1285.28,-2312.88 1295.85,-2292.74"/>
<text text-anchor="middle" x="1397.5" y="-2330.3" font-family="xkcd" font-size="14.00">2462</text>
</g>
<!-- 35&#45;&gt;15 -->
<g id="edge62" class="edge"><title>35&#45;&gt;15</title>
<path fill="none" stroke="black" d="M1451.26,-2369.74C1451.56,-2348.76 1452,-2312.29 1452,-2281 1452,-2281 1452,-2281 1452,-104 1452,-78.9529 1446.97,-67.6908 1426,-54 1392.97,-32.4429 1169.19,-24.0887 1021.7,-20.9042"/>
<polygon fill="black" stroke="black" points="1021.73,-17.4041 1011.66,-20.6927 1021.58,-24.4025 1021.73,-17.4041"/>
<text text-anchor="middle" x="1454" y="-1188.8" font-family="xkcd" font-size="14.00">1</text>
</g>
<!-- 36&#45;&gt;32 -->
<g id="edge70" class="edge"><title>36&#45;&gt;32</title>
<path fill="none" stroke="black" d="M359.214,-434.799C360.036,-423.163 361.138,-407.548 362.077,-394.237"/>
<polygon fill="black" stroke="black" points="365.575,-394.397 362.788,-384.175 358.592,-393.904 365.575,-394.397"/>
<text text-anchor="middle" x="372.5" y="-405.8" font-family="xkcd" font-size="14.00">186</text>
</g>
<!-- 37&#45;&gt;22 -->
<g id="edge73" class="edge"><title>37&#45;&gt;22</title>
<path fill="none" stroke="black" d="M361.678,-1304.8C366.24,-1293.05 372.378,-1277.24 377.579,-1263.84"/>
<polygon fill="black" stroke="black" points="380.975,-1264.76 381.332,-1254.18 374.45,-1262.23 380.975,-1264.76"/>
<text text-anchor="middle" x="378.5" y="-1275.8" font-family="xkcd" font-size="14.00">5</text>
</g>
<!-- 38&#45;&gt;16 -->
<g id="edge74" class="edge"><title>38&#45;&gt;16</title>
<path fill="none" stroke="black" d="M97.1012,-2315.82C108,-2297.27 123,-2266.48 123,-2237.5 123,-2237.5 123,-2237.5 123,-1365.5 123,-1255.34 194.682,-1138.55 229.481,-1088.35"/>
<polygon fill="black" stroke="black" points="232.434,-1090.23 235.326,-1080.04 226.709,-1086.2 232.434,-1090.23"/>
<text text-anchor="middle" x="125" y="-1710.8" font-family="xkcd" font-size="14.00">1</text>
</g>
<!-- 39&#45;&gt;30 -->
<g id="edge90" class="edge"><title>39&#45;&gt;30</title>
<path fill="none" stroke="black" stroke-width="2" d="M367.917,-695.799C363.031,-683.932 356.441,-667.928 350.891,-654.449"/>
<polygon fill="black" stroke="black" stroke-width="2" points="354.116,-653.09 347.072,-645.175 347.643,-655.755 354.116,-653.09"/>
<text text-anchor="middle" x="371" y="-666.8" font-family="xkcd" font-size="14.00">201</text>
</g>
</g>
</svg>
